<?xml version="1.0" encoding="UTF-8"?>
<svg id="_圖層_2" data-name="圖層 2" xmlns="http://www.w3.org/2000/svg" viewBox="0 0 28.51 21.39">
  <defs>
    <style>
      .cls-1 {
        fill: #333;
      }
    </style>
  </defs>
  <g id="_圖層_1-2" data-name="圖層 1">
    <path class="cls-1" d="M28.48,2.08C28.34,.89,27.31,0,25.97,0,18.15,.01,10.34,0,2.52,0,1.02,0,0,1.02,0,2.51,0,7.97,0,13.42,0,18.88c0,.25,.02,.5,.09,.74,.33,1.11,1.21,1.76,2.4,1.76,2.73,0,5.46,0,8.18,0,5.09,0,10.19,0,15.28,0,.64,0,1.22-.16,1.72-.59,.47-.41,.7-.94,.82-1.53V2.12s-.03-.03-.03-.04Zm-2.08-.86c-.21,.19-.36,.34-.52,.48-3.56,3.24-7.12,6.49-10.68,9.73-.66,.6-1.24,.6-1.89,.01C9.65,8.1,5.98,4.76,2.31,1.41c-.05-.04-.09-.09-.2-.19H26.4ZM1.22,19.27V2.03c.14,.13,.22,.2,.31,.27,2.99,2.73,5.97,5.45,8.96,8.17,.16,.15,.16,.21,0,.35-3.09,2.69-6.07,5.51-9.05,8.32-.05,.05-.09,.12-.21,.13Zm25.13,.89H2.09c1.42-1.34,2.77-2.62,4.13-3.89,1.69-1.57,3.4-3.12,5.14-4.65,.15-.14,.24-.15,.4,0,.4,.37,.78,.78,1.24,1.07,.96,.6,2.04,.47,2.96-.34,.27-.24,.55-.48,.8-.73,.14-.14,.23-.13,.38,0,1.54,1.36,3.08,2.73,4.59,4.14,1.51,1.4,3,2.82,4.51,4.23,.05,.04,.11,.07,.16,.11-.01,.03-.03,.05-.04,.08Zm.94-.9c-.12,.01-.16-.07-.21-.11-2.98-2.81-5.96-5.63-9.05-8.32-.14-.12-.2-.19-.02-.35,3.01-2.73,6-5.47,9-8.21,.07-.06,.14-.12,.28-.24V19.27Z"/>
  </g>
</svg>