<?xml version="1.0" encoding="UTF-8"?>
<svg id="_圖層_2" data-name="圖層 2" xmlns="http://www.w3.org/2000/svg" viewBox="0 0 27.52 26">
  <defs>
    <style>
      .cls-1 {
        fill: #333;
      }
    </style>
  </defs>
  <g id="_圖層_1-2" data-name="圖層 1">
    <g id="Layer_2" data-name="Layer 2">
      <g>
        <path class="cls-1" d="M7.78,26c-.74,0-1.45-.29-1.98-.82-1.09-1.09-1.09-2.86,0-3.96l4.66-4.66c.15-.15,.41-.15,.56,0s.15,.41,0,.56l-4.66,4.66c-.78,.78-.78,2.05,0,2.83,.4,.4,.96,.61,1.53,.58,.57-.03,1.1-.3,1.45-.75l4.52-5.63-2.2-2.99c-.13-.18-.09-.43,.08-.56,.18-.13,.43-.09,.56,.08l2.38,3.23c.11,.15,.1,.34-.01,.48l-4.71,5.87c-.5,.62-1.24,1-2.03,1.04-.05,0-.1,0-.15,0Z"/>
        <path class="cls-1" d="M16.94,16.02c-.1,0-.2-.04-.28-.12l-2.49-2.49c-.15-.15-.15-.41,0-.56l3.21-3.21-.83-3.09c-.04-.14,0-.28,.1-.38l3.73-3.73c.1-.1,.25-.14,.38-.1l2.66,.71c.14,.04,.24,.14,.28,.28,.04,.14,0,.28-.1,.38l-2.84,2.84,.53,1.99,1.99,.53,2.84-2.84c.1-.1,.25-.14,.38-.1,.14,.04,.24,.14,.28,.28l.71,2.66c.04,.14,0,.28-.1,.38l-3.73,3.73c-.1,.1-.25,.14-.38,.1l-3.27-.88-1.71,2.13c-.14,.17-.39,.2-.56,.06s-.2-.39-.06-.56l1.87-2.33c.1-.12,.26-.18,.41-.14l3.3,.88,3.4-3.4-.48-1.78-2.52,2.52c-.1,.1-.25,.14-.38,.1l-2.43-.65c-.14-.04-.24-.14-.28-.28l-.65-2.43c-.04-.14,0-.28,.1-.38l2.52-2.52-1.78-.48-3.4,3.4,.83,3.09c.04,.14,0,.28-.1,.38l-3.09,3.09,2.21,2.21c.15,.15,.15,.41,0,.56-.08,.08-.18,.12-.28,.12Z"/>
        <path class="cls-1" d="M20.66,26c-.97,0-1.88-.47-2.44-1.26L9.98,13.54c-.13-.18-.09-.43,.08-.56s.43-.09,.56,.08l8.24,11.21s0,0,0,0c.42,.59,1.07,.92,1.79,.92,.58,0,1.14-.23,1.55-.64,.41-.41,.64-.97,.64-1.55s-.23-1.14-.64-1.55L11.23,10.49l-1.69,1.69c-.15,.15-.41,.15-.56,0s-.15-.41,0-.56l1.97-1.97c.15-.15,.41-.15,.56,0l11.25,11.25c.56,.56,.88,1.32,.88,2.11s-.31,1.55-.88,2.11c-.57,.56-1.32,.88-2.11,.88Z"/>
        <path class="cls-1" d="M8.65,12.9c-.1,0-.2-.04-.28-.12l-1.34-1.34c-.08-.08-.12-.18-.12-.29,0-.11,.05-.21,.12-.28l3.06-2.94c.16-.15,.4-.15,.56,0l1.28,1.28c.15,.15,.15,.41,0,.56l-3,3c-.08,.08-.18,.12-.28,.12Zm-.77-1.73l.77,.77,2.44-2.44-.72-.72-2.49,2.39Z"/>
        <path class="cls-1" d="M9.7,6.58c-.1,0-.2-.04-.28-.12l-2.34-2.34c-.15-.15-.15-.41,0-.56l.63-.63-.29-1.35c-.03-.13,.01-.27,.11-.37L8.62,.12c.15-.15,.41-.15,.56,0l4.25,4.25c.15,.15,.15,.41,0,.56l-1.1,1.1c-.1,.1-.23,.14-.37,.11l-1.35-.29-.63,.63c-.08,.08-.18,.12-.28,.12Zm-1.78-2.74l1.78,1.78,.5-.5c.1-.1,.23-.14,.37-.11l1.35,.29,.66-.66L8.9,.96l-.66,.66,.29,1.35c.03,.13-.01,.27-.11,.37l-.5,.5Z"/>
        <path class="cls-1" d="M1.04,12.39s-.03,0-.04,0c-.12-.01-.23-.08-.29-.18C.16,11.35-.08,10.32,.02,9.3c.11-1.03,.57-2,1.31-2.74l2.2-2.14c.16-.15,.41-.15,.56,0,.15,.16,.15,.41,0,.56L1.89,7.13c-1.11,1.11-1.39,2.81-.76,4.21l2.48-2.48c.15-.15,.41-.15,.56,0l2.43,2.43,3.9-3.73L6.08,3.12l-.24,.23c-.16,.15-.41,.15-.56-.01-.15-.16-.15-.41,.01-.56l.53-.5c.16-.15,.4-.15,.56,0l4.99,4.99c.08,.08,.12,.18,.12,.29s-.05,.21-.12,.28l-4.47,4.28c-.16,.15-.4,.15-.56,0l-2.43-2.43-2.58,2.58c-.07,.08-.18,.12-.28,.12Z"/>
        <path class="cls-1" d="M4.66,4.29s-.05,0-.08,0-.05-.01-.07-.02c-.02,0-.05-.02-.07-.04-.02-.01-.04-.03-.06-.05-.02-.02-.03-.04-.05-.06-.01-.02-.03-.04-.04-.07,0-.02-.02-.05-.02-.07,0-.03,0-.05,0-.08,0-.1,.04-.21,.12-.28,.02-.02,.04-.04,.06-.05s.04-.03,.07-.04c.02-.01,.05-.02,.07-.02,.13-.03,.27,.02,.36,.11,.07,.07,.12,.18,.12,.28s-.04,.21-.12,.28c-.07,.07-.18,.12-.28,.12Z"/>
      </g>
    </g>
  </g>
</svg>