<?xml version="1.0" encoding="UTF-8"?>
<svg id="_圖層_2" data-name="圖層 2" xmlns="http://www.w3.org/2000/svg" viewBox="0 0 25.07 25.02">
  <defs>
    <style>
      .cls-1 {
        fill: #333;
      }
    </style>
  </defs>
  <g id="_圖層_1-2" data-name="圖層 1">
    <g>
      <path class="cls-1" d="M25.07,5.04v.78c-.12,.37-.16,.77-.29,1.14-.28,.78-.73,1.45-1.31,2.03-2.11,2.11-4.22,4.21-6.33,6.32-1.16,1.16-2.56,1.71-4.19,1.59-1.28-.09-2.38-.61-3.29-1.53-.4-.41-.39-1.04,0-1.45,.38-.4,1-.44,1.43-.06,.43,.38,.89,.71,1.46,.85,1.16,.28,2.19,.02,3.03-.82,2.17-2.14,4.33-4.29,6.47-6.46,1.69-1.71,.99-4.51-1.29-5.2-1.21-.37-2.28-.05-3.18,.83-1.14,1.13-2.27,2.27-3.41,3.4-.41,.41-.89,.49-1.33,.24-.57-.32-.71-1.04-.3-1.55,.03-.04,.06-.08,.09-.11,1.29-1.27,2.51-2.61,3.87-3.81C17.61,.24,18.98-.15,20.47,.05c1.96,.26,3.33,1.32,4.16,3.1,.21,.44,.33,.91,.38,1.4"/>
      <path class="cls-1" d="M4.75,25.02h-.15c-.52-.04-1.02-.17-1.5-.38-1.03-.46-1.84-1.16-2.42-2.13C.3,21.87,.05,21.18,0,20.43v-.15C.04,20.18,.04,20.09,0,19.99,0,19.73,0,19.47,0,19.21c.08-.31,.14-.62,.23-.93,.26-.87,.74-1.6,1.37-2.24,1.92-1.91,3.83-3.82,5.75-5.73,1.16-1.16,2.56-1.71,4.19-1.59,1.28,.09,2.38,.61,3.29,1.53,.4,.4,.4,1.02,.02,1.43-.37,.41-1,.46-1.43,.09-.44-.38-.9-.72-1.48-.86-1.16-.28-2.19-.02-3.03,.82-1.97,1.95-3.94,3.9-5.88,5.87-1.69,1.71-.99,4.51,1.29,5.2,1.21,.37,2.28,.05,3.18-.83,.95-.94,1.89-1.89,2.84-2.83,.39-.39,.86-.47,1.29-.23,.58,.31,.73,1.05,.32,1.57-.04,.04-.07,.09-.11,.13-1.05,1.04-2.08,2.09-3.15,3.11-.78,.74-1.74,1.15-2.81,1.28"/>
    </g>
  </g>
</svg>