<?xml version="1.0" encoding="UTF-8"?>
<svg id="_圖層_2" data-name="圖層 2" xmlns="http://www.w3.org/2000/svg" xmlns:xlink="http://www.w3.org/1999/xlink" viewBox="0 0 567 1385">
  <defs>
    <style>
      .cls-1 {
        stroke: #19446b;
      }

      .cls-1, .cls-2, .cls-3, .cls-4, .cls-5, .cls-6, .cls-7, .cls-8, .cls-9, .cls-10 {
        fill: none;
      }

      .cls-1, .cls-2, .cls-3, .cls-4, .cls-5, .cls-6, .cls-8, .cls-9, .cls-10 {
        stroke-miterlimit: 10;
      }

      .cls-11 {
        fill: #19446b;
        fill-rule: evenodd;
      }

      .cls-12 {
        fill: #c39bb7;
      }

      .cls-13 {
        fill: #883972;
      }

      .cls-14 {
        clip-path: url(#clippath-2);
      }

      .cls-15 {
        fill: #680554;
      }

      .cls-16 {
        fill: #226eb2;
      }

      .cls-2 {
        stroke: #226eb2;
      }

      .cls-3 {
        stroke: #175585;
      }

      .cls-17 {
        clip-path: url(#clippath-1);
      }

      .cls-18 {
        clip-path: url(#clippath-4);
      }

      .cls-4 {
        stroke: #478cc2;
      }

      .cls-19 {
        fill: #cbb7c6;
      }

      .cls-5 {
        stroke: #c39bb7;
      }

      .cls-6 {
        stroke: #883972;
      }

      .cls-20 {
        clip-path: url(#clippath);
      }

      .cls-21 {
        clip-path: url(#clippath-3);
      }

      .cls-8 {
        stroke: #a6c6e1;
      }

      .cls-22 {
        fill: #a6c6e1;
      }

      .cls-23 {
        clip-path: url(#clippath-5);
      }

      .cls-9 {
        stroke: #680554;
      }

      .cls-10 {
        stroke: #cbb7c6;
      }

      .cls-24 {
        fill: #175585;
      }

      .cls-25 {
        fill: #478cc2;
      }
    </style>
    <clipPath id="clippath">
      <rect class="cls-7" x="418.71" y="910" width="40.67" height="40.67"/>
    </clipPath>
    <clipPath id="clippath-1">
      <rect class="cls-7" x="111.41" y="59.22" width="30.18" height="34.82"/>
    </clipPath>
    <clipPath id="clippath-2">
      <rect class="cls-7" x="427.77" y="53.22" width="36.33" height="34.78"/>
    </clipPath>
    <clipPath id="clippath-3">
      <rect class="cls-7" x="425.93" y="631" width="32" height="30.72"/>
    </clipPath>
    <clipPath id="clippath-4">
      <rect class="cls-7" x="99.84" y="915.66" width="45.18" height="32.61"/>
    </clipPath>
    <clipPath id="clippath-5">
      <rect class="cls-7" x="432.7" y="335.51" width="25.47" height="34.64"/>
    </clipPath>
  </defs>
  <g id="_圖層_1-2" data-name="圖層 1">
    <g>
      <g class="cls-20">
        <path class="cls-16" d="M430,910c.54,.28,1.14,.51,1.61,.86,.32,.25,.59,.57,.78,.94,.19,.37,.29,.77,.29,1.18,.1,1.86,.2,3.72,.66,5.54,.17,.71,.36,1.4,.56,2.1,.29,1,.1,2.08-.55,2.9-1.18,1.51-2.33,3.06-3.49,4.61-.03,.06-.05,.12-.05,.18s0,.13,.03,.19c2,3.76,4.61,6.98,8.22,9.33,.9,.58,1.83,1.11,2.73,1.68,.08,.06,.17,.09,.27,.08,.1,0,.19-.05,.25-.12,1.53-1.17,3.03-2.34,4.58-3.48,.39-.29,.83-.48,1.3-.57,.47-.09,.95-.07,1.41,.05,1.32,.3,2.64,.69,3.97,.92,1.12,.19,2.24,.28,3.36,.28,1.68,0,3.08,1.08,3.39,2.65,.02,.05,.03,.1,.07,.14v8.42c-.03,.08-.05,.15-.08,.22-.44,1.65-1.64,2.58-3.37,2.55-1.2-.02-2.41-.06-3.59-.18-2.46-.24-4.86-.73-7.2-1.46-6.58-2.02-12.47-5.82-17.01-10.99-4.03-4.52-6.88-9.96-8.32-15.84-.71-2.89-1.08-5.85-1.08-8.83-.02-.83,.27-1.63,.81-2.26,.53-.57,1.22-.95,1.97-1.11h8.51Z"/>
      </g>
      <g>
        <g class="cls-17">
          <g>
            <path class="cls-15" d="M130.55,59.24v5.72c.02,2.65,2.02,4.5,4.87,4.51h6.16v21.47c0,1.82-1.33,3.07-3.28,3.07h-23.6c-1.96,0-3.29-1.25-3.29-3.06v-28.69c0-1.79,1.3-3.05,3.21-3.06h15.6c.08,0,.17,.01,.33,.03Zm-4.05,19.1h8.56c.2,0,.4,0,.59-.03,.38-.05,.73-.24,.97-.52,.24-.28,.35-.64,.31-1-.06-.8-.71-1.33-1.65-1.33h-17.6c-.13,0-.25,.02-.38,.04-.22,.04-.43,.12-.61,.23-.18,.12-.34,.27-.45,.45-.11,.18-.18,.38-.2,.59-.02,.21,0,.42,.08,.61,.23,.61,.81,.96,1.64,.96h8.73Zm.05,4.84h-6.86c-.75,0-1.51-.02-2.26,.01-.21,.01-.42,.07-.61,.17-.19,.09-.35,.22-.48,.38-.13,.16-.22,.34-.27,.53-.05,.19-.05,.39-.01,.59,.17,.74,.77,1.19,1.66,1.19h17.6c.37,.01,.74-.1,1.03-.31,.29-.21,.49-.52,.56-.86,.18-.96-.51-1.7-1.59-1.7-2.92,0-5.85,0-8.78,0Zm-5.38-13.12h3.49c.23,0,.45-.02,.67-.07,.35-.11,.65-.33,.84-.63,.19-.3,.26-.65,.19-.99-.06-.34-.26-.65-.55-.86-.29-.22-.65-.33-1.02-.32h-7.07c-1,0-1.73,.63-1.7,1.46,0,.2,.05,.39,.14,.57,.09,.18,.22,.34,.37,.48s.34,.24,.55,.3c.2,.06,.42,.09,.63,.08,1.15-.03,2.3-.01,3.45-.01Z"/>
            <path class="cls-15" d="M133.67,60.73l6.22,5.81s0,.02-.03,.02c-1.58,0-3.15,.02-4.73,0-.75,0-1.43-.56-1.45-1.21-.04-1.52-.01-3.05-.01-4.63Z"/>
          </g>
        </g>
        <circle class="cls-9" cx="126.5" cy="123.5" r="123"/>
        <g>
          <path d="M51.86,116.05c-.16,.35-.51,.64-1.25,.61-.9,2.43-1.92,4.67-3.07,6.75l1.41,.54c-.13,.26-.42,.48-.99,.54v19.01c-.03,.19-1.09,.8-2.05,.8h-.48v-17.54c-1.22,1.66-2.5,3.17-3.87,4.45l-.48-.32c2.72-3.84,5.47-9.95,6.98-16.03l3.81,1.18Zm-2.75,26.46c2.08-2.11,4.61-5.73,6.3-9.34l3.42,1.7c-.19,.35-.64,.58-1.31,.45-2.27,3.2-5.25,5.89-8.06,7.58l-.35-.38Zm19.2-13.63s1.89,1.44,3.04,2.53c-.1,.35-.38,.51-.86,.51h-8.9v11.55c-.03,.19-.86,.86-2.14,.86h-.42v-12.42h-9.22l-.26-.93h9.47v-4.83h-3.78v1.31c0,.19-.8,.7-2.05,.7h-.42v-12.29l2.82,1.18h9.79l1.25-1.47,2.59,2.02c-.22,.26-.51,.45-1.22,.54v8.96c0,.13-.9,.61-2.11,.61h-.42v-1.57h-3.9v4.83h5.06l1.66-2.11Zm-13.05-3.65h10.24v-7.23h-10.24v7.23Zm7.65,8.58c10.24,4.61,8.7,10.3,5.86,8.48-1.09-2.5-4.1-5.98-6.24-8.22l.38-.26Z"/>
          <path d="M86.52,119.09s1.6,1.25,2.59,2.21c-.06,.35-.38,.51-.83,.51h-11.36l-.22-.93h8.42l1.41-1.79Zm.7,10.88h-8.93l-.26-.93h6.3l1.31-1.63s1.18,.9,2.11,1.73c3.04-2.85,4.86-7.14,5.66-11.2h-5.22l-.29-.96h5.38l1.38-1.41,2.46,2.18c-.22,.29-.51,.38-1.22,.45-1.15,4.26-3.52,8.7-7.97,11.49-.13,.19-.42,.29-.74,.29Zm-2.88-5.02l1.31-1.63s1.5,1.15,2.43,2.05c-.1,.35-.42,.51-.86,.51h-8.93l-.26-.93h6.3Zm4.03,8.93c-.19,.22-.67,.48-1.28,.61v7.65c-.03,.16-1.18,.7-1.95,.7h-.38v-1.44h-4.13v1.82c0,.22-.99,.77-1.92,.77h-.35v-11.9l2.43,1.06h3.68l1.25-1.31,2.66,2.05Zm-8.35-18.65c6.72,1.34,4.64,6.14,2.18,4.48-.32-1.44-1.5-3.23-2.5-4.32l.32-.16Zm4.74,25.21v-6.34h-4.13v6.34h4.13Zm18.56,.03s1.76,1.38,2.82,2.37c-.1,.35-.42,.51-.86,.51h-17.41l-.26-.93h9.6c.61-1.73,1.28-4.06,1.6-5.82l3.58,.99c-.13,.35-.51,.64-1.22,.61-.74,1.28-1.89,2.91-3.1,4.22h3.74l1.5-1.95Zm-14.65-21.31c5.12,1.66,3.07,5.31,1.25,3.81-.06-1.25-.83-2.72-1.6-3.62l.35-.19Zm11.2,17.47v-1.02h-7.46v.54c0,.19-.99,.7-1.92,.7h-.32v-8.61l2.37,1.06h7.01l1.22-1.31,2.72,2.05c-.22,.26-.74,.51-1.38,.64v5.28c-.03,.19-1.15,.67-1.89,.67h-.35Zm-8.19,.19c5.73,2.4,3.2,6.56,1.15,4.67-.06-1.5-.83-3.33-1.54-4.51l.38-.16Zm6.62-12.73s1.5,1.18,2.37,2.08c-.1,.35-.38,.51-.77,.51h-7.26l-.26-.96h4.64l1.28-1.63Zm1.57,10.59v-4.48h-7.46v4.48h7.46Zm6.18-13.98c-.22,.29-.51,.38-1.15,.16-1.15,.7-2.59,1.41-3.81,1.86,1.5,1.82,3.26,3.26,5.22,4.16l-.03,.35c-.9,.16-1.63,.8-1.92,1.95-3.9-2.66-6.21-7.17-7.42-13.21l.51-.19c.35,1.12,.8,2.24,1.31,3.3,.83-.9,1.76-2.14,2.5-3.17l2.56,1.92c-.22,.29-.51,.38-1.18,.16-1.09,.7-2.4,1.41-3.46,1.82,.42,.8,.86,1.54,1.38,2.24,.99-.86,2.14-2.08,3.04-3.14l2.46,1.79Z"/>
          <path d="M129.43,115.7c-.1,.38-.51,.54-1.34,.61,2.85,4.03,8.26,7.14,13.69,9.12l-.03,.45c-1.15,.29-1.98,1.25-2.21,2.21-5.15-2.56-9.85-6.62-12.03-11.36-2.98,4.67-9.31,9.89-15.49,12.54l-.22-.45c5.44-3.1,11.74-9.57,13.38-14.14l4.26,1.02Zm5.09,15.2l2.98,2.3c-.22,.26-.74,.51-1.38,.64v9.44c-.03,.19-1.41,.74-2.24,.74h-.42v-2.18h-13.34v1.6c0,.22-1.15,.83-2.24,.83h-.42v-13.09l2.85,1.25h12.8l1.41-1.54Zm-3.07-6.46s1.89,1.47,3.07,2.56c-.1,.35-.42,.48-.86,.48h-14.17l-.26-.9h10.53l1.7-2.14Zm2.02,16.48v-7.55h-13.34v7.55h13.34Z"/>
          <path d="M150.45,135.76c.96,3.36,.38,5.79-.54,6.91-.64,.77-1.95,.96-2.46,.19-.38-.74-.03-1.54,.67-2.08,.9-.86,1.92-3.04,1.79-5.02h.54Zm-2.91-4.06s.7-.16,.99-.35c1.73-1.31,3.81-3.68,5.54-6.02-1.31,.38-2.94,.83-4.64,1.22-.26,.38-.51,.61-.8,.74l-1.25-3.17s.61-.13,.83-.32c2.02-1.79,4.54-6.43,5.47-8.93l3.39,1.82c-.16,.29-.54,.54-1.18,.42-1.44,2.18-4,5.12-6.34,7.1,1.44,0,3.36,0,5.34-.03,.93-1.38,1.7-2.62,2.21-3.65l3.2,2.08c-.16,.26-.58,.51-1.25,.35-1.89,2.59-5.66,6.27-9.02,8.74,1.98-.13,4.86-.35,7.87-.61-.58-1.22-1.25-2.4-1.89-3.3l.38-.19c6.53,3.55,4.45,8.1,2.37,6.24-.1-.64-.32-1.38-.61-2.11-2.02,.64-5.18,1.6-8.64,2.5-.22,.35-.51,.58-.8,.67l-1.18-3.2Zm6.21,3.42c4.35,4.26,1.6,8.38-.16,6.18,.35-1.95,.1-4.38-.29-6.05l.45-.13Zm3.62-.74c5.66,3.14,3.33,7.62,1.34,5.66,.03-1.79-.86-4.06-1.7-5.5l.35-.16Zm19.33-12.7c-.29,.26-.67,.45-1.41,.54-.38,12.16-1.25,18.62-2.98,20.51-.99,1.09-2.34,1.54-3.87,1.54,0-.8-.16-1.44-.58-1.82-.48-.42-1.7-.8-2.88-1.02v-.54c1.31,.13,3.39,.32,4.1,.32,.64,0,.93-.1,1.31-.45,1.34-1.22,2.11-7.87,2.46-18.88h-8c-1.34,2.88-2.88,5.44-4.64,7.39l-.48-.29c1.82-3.55,3.55-9.06,4.45-14.24l3.9,.99c-.13,.42-.51,.67-1.22,.7-.48,1.54-1.02,3.04-1.6,4.48h7.23l1.44-1.57,2.75,2.34Zm-11.9,4.9c7.55,4.19,5.09,9.86,2.59,7.62-.16-2.43-1.63-5.44-2.98-7.42l.38-.19Z"/>
          <path d="M203.92,126.7v-1.25h-5.79v2.46h7.2l1.5-1.82s1.73,1.28,2.78,2.24c-.06,.35-.38,.51-.83,.51h-10.66v2.53h9.09l1.54-1.89s1.82,1.31,2.91,2.34c-.1,.35-.38,.51-.83,.51h-27.93l-.29-.96h12.96v-2.53h-10.18l-.26-.93h10.43v-2.46h-9.15l-.29-.93h9.44v-2.59h-12.86l-.29-.93h13.15v-2.53h-8.96l-.29-.9h9.25v-2.78l3.71,.38c-.06,.45-.35,.77-1.15,.9v1.5h5.47l1.31-1.41,2.78,2.11c-.19,.26-.67,.51-1.31,.64v2.08h1.5l1.41-1.82s1.66,1.31,2.62,2.24c-.06,.35-.38,.51-.8,.51h-4.74v3.97c-.03,.22-1.25,.8-2.08,.8h-.38Zm1.15,6.4l2.91,2.21c-.19,.26-.7,.51-1.34,.64v7.55c-.03,.19-1.34,.7-2.14,.7h-.42v-1.66h-14.02v.93c0,.26-1.09,.83-2.14,.83h-.38v-10.88l2.75,1.12h13.47l1.31-1.44Zm-15.01,2.4v2.5h14.02v-2.5h-14.02Zm14.02,6.11v-2.69h-14.02v2.69h14.02Zm-5.95-20.61h5.79v-2.53h-5.79v2.53Zm5.79,3.52v-2.59h-5.79v2.59h5.79Z"/>
          <path d="M88.79,166.19c-.13,.38-.54,.61-1.25,.54-2.46,5.79-6.08,10.02-10.33,12.67l-.35-.32c3.23-3.2,6.43-8.51,8.1-14.33l3.84,1.44Zm7.23,14.05c10.08,6.53,7.94,14.08,4.86,11.46-.16-1.25-.58-2.59-1.12-3.94-4.42,1.06-10.53,2.3-17.85,3.49-.26,.45-.58,.7-.93,.83l-1.25-3.49s.77-.19,1.02-.45c2.78-3.01,6.62-10.27,7.94-14.3l3.94,1.7c-.16,.35-.54,.61-1.25,.54-1.95,3.71-5.95,9.09-9.41,12.58,4.03-.22,10.72-.86,17.47-1.66-1.02-2.37-2.5-4.7-3.84-6.53l.42-.22Zm2.21-15.58c-.38,.42-1.28,.64-2.4,.74,1.34,4.67,4.93,9.12,10.3,11.33l-.1,.38c-1.09,.32-2.02,1.28-2.34,2.3-4.83-3.14-7.58-7.97-8.77-14.24h-3.39l-.29-.93h2.91l1.09-1.63,2.98,2.05Z"/>
          <path d="M116.21,173.74v17.6c0,.32-.86,.96-2.02,.96h-.45v-28.51l2.62,1.25h5.63l1.22-1.38,2.66,2.05c-.19,.19-.64,.45-1.18,.58v8.06c-.03,.26-1.22,.83-2.02,.83h-.38v-1.44h-6.08Zm0-7.81v2.94h6.08v-2.94h-6.08Zm6.08,6.85v-3.01h-6.08v3.01h6.08Zm8.54,10.59v6.94c0,.13-.74,.64-1.89,.64h-.38v-7.58h-3.9c-.35,2.78-1.6,5.76-6.02,7.81l-.32-.42c2.91-2.18,3.84-4.8,4.1-7.39h-4.06l-.26-.93h4.38c.03-.38,.03-.77,.03-1.15v-3.39h-3.49l-.22-.93h12.16l1.44-1.82s1.63,1.28,2.59,2.24c-.06,.35-.35,.51-.8,.51h-3.36v4.54h.8l1.44-1.82s1.57,1.28,2.53,2.24c-.1,.35-.42,.51-.86,.51h-3.9Zm-2.27-.93v-4.54h-3.78v3.39c0,.38,0,.77-.03,1.15h3.81Zm12.48-16.67c-.19,.22-.7,.51-1.34,.61v22.59c0,1.92-.38,3.01-3.39,3.33-.1-.8-.22-1.44-.58-1.79-.42-.42-1.06-.7-2.21-.93v-.48s2.46,.19,3.04,.19c.48,0,.64-.19,.64-.64v-14.91h-6.34v.48c0,.26-1.09,.8-2.08,.8h-.38v-11.14l2.59,1.15h5.89l1.22-1.54,2.94,2.27Zm-10.18,.16v2.94h6.34v-2.94h-6.34Zm6.34,6.85v-3.01h-6.34v3.01h6.34Z"/>
          <path d="M146.96,179.79c3.1-3.97,6.37-10.43,8.22-16.99l3.97,1.34c-.13,.38-.54,.67-1.28,.61-.96,2.43-2.08,4.7-3.36,6.78l1.38,.51c-.13,.29-.42,.51-.99,.58v18.81c-.06,.22-1.12,.83-2.11,.83h-.48v-17.41c-1.54,2.02-3.2,3.81-4.93,5.25l-.42-.32Zm28.73,8.86c.93,.35,1.22,.64,1.22,1.15,0,1.25-1.47,1.63-7.78,1.63h-4.22c-3.2,0-4.29-.67-4.29-3.07v-24.89l3.62,.38c-.03,.42-.32,.8-1.15,.9v9.41h8.42l1.57-2.05s1.76,1.44,2.85,2.5c-.1,.35-.38,.51-.86,.51h-11.97v12.64c0,.96,.38,1.31,2.08,1.31h4.1c1.79,0,3.17,0,3.78-.1,.45-.03,.67-.13,.86-.45,.32-.51,.8-2.24,1.28-4.32h.42l.1,4.45Z"/>
        </g>
      </g>
      <g>
        <g class="cls-14">
          <path class="cls-13" d="M427.77,70.51v-.77c.28-.38,.51-.81,.86-1.12,5.25-4.78,10.51-9.56,15.77-14.32,1.01-.91,2.05-.91,3.09-.03,4.45,3.86,8.91,7.72,13.36,11.57,.89,.77,1.78,1.54,2.66,2.32,.54,.48,.75,1.13,.47,1.78-.17,.43-.44,.82-.77,1.14-.33,.32-.73,.58-1.17,.74-.16,.06-.34,.08-.51,.04-.17-.04-.32-.12-.44-.25-.18-.17-.38-.32-.62-.53v12.67c0,.97,.01,1.94,0,2.91,0,.45-.18,.88-.51,1.2-.32,.32-.76,.5-1.21,.5-2.27,.02-4.54,.01-6.8,0-.36,0-.71-.12-.99-.34-.28-.22-.48-.53-.55-.88-.06-.27-.09-.55-.08-.83v-10.7h-8.09v10.81c0,1.21-.74,1.94-1.97,1.94h-5.89c-1.37,0-2.06-.69-2.06-2.06v-15.45c-.42,.37-.78,.69-1.14,1-.31,.28-.72,.44-1.14,.45-.42,0-.84-.14-1.16-.41-.49-.36-.87-.85-1.1-1.42Z"/>
        </g>
        <circle class="cls-6" cx="443.5" cy="123.5" r="123"/>
        <g>
          <path d="M385.91,116.05c-.16,.35-.51,.64-1.25,.61-.9,2.43-1.92,4.67-3.07,6.75l1.41,.54c-.13,.26-.42,.48-.99,.54v19.01c-.03,.19-1.09,.8-2.05,.8h-.48v-17.54c-1.22,1.66-2.5,3.17-3.87,4.45l-.48-.32c2.72-3.84,5.47-9.95,6.98-16.03l3.81,1.18Zm-2.75,26.46c2.08-2.11,4.61-5.73,6.3-9.34l3.42,1.7c-.19,.35-.64,.58-1.31,.45-2.27,3.2-5.25,5.89-8.06,7.58l-.35-.38Zm19.2-13.63s1.89,1.44,3.04,2.53c-.1,.35-.38,.51-.86,.51h-8.9v11.55c-.03,.19-.86,.86-2.14,.86h-.42v-12.42h-9.22l-.26-.93h9.47v-4.83h-3.78v1.31c0,.19-.8,.7-2.05,.7h-.42v-12.29l2.82,1.18h9.79l1.25-1.47,2.59,2.02c-.22,.26-.51,.45-1.22,.54v8.96c0,.13-.9,.61-2.11,.61h-.42v-1.57h-3.9v4.83h5.06l1.66-2.11Zm-13.05-3.65h10.24v-7.23h-10.24v7.23Zm7.65,8.58c10.24,4.61,8.7,10.3,5.86,8.48-1.09-2.5-4.1-5.98-6.24-8.22l.38-.26Z"/>
          <path d="M420.57,119.09s1.6,1.25,2.59,2.21c-.06,.35-.38,.51-.83,.51h-11.36l-.22-.93h8.42l1.41-1.79Zm.7,10.88h-8.93l-.26-.93h6.3l1.31-1.63s1.18,.9,2.11,1.73c3.04-2.85,4.86-7.14,5.66-11.2h-5.22l-.29-.96h5.38l1.38-1.41,2.46,2.18c-.22,.29-.51,.38-1.22,.45-1.15,4.26-3.52,8.7-7.97,11.49-.13,.19-.42,.29-.74,.29Zm-2.88-5.02l1.31-1.63s1.5,1.15,2.43,2.05c-.1,.35-.42,.51-.86,.51h-8.93l-.26-.93h6.3Zm4.03,8.93c-.19,.22-.67,.48-1.28,.61v7.65c-.03,.16-1.18,.7-1.95,.7h-.38v-1.44h-4.13v1.82c0,.22-.99,.77-1.92,.77h-.35v-11.9l2.43,1.06h3.68l1.25-1.31,2.66,2.05Zm-8.35-18.65c6.72,1.34,4.64,6.14,2.18,4.48-.32-1.44-1.5-3.23-2.5-4.32l.32-.16Zm4.74,25.21v-6.34h-4.13v6.34h4.13Zm18.56,.03s1.76,1.38,2.82,2.37c-.1,.35-.42,.51-.86,.51h-17.41l-.26-.93h9.6c.61-1.73,1.28-4.06,1.6-5.82l3.58,.99c-.13,.35-.51,.64-1.22,.61-.74,1.28-1.89,2.91-3.1,4.22h3.74l1.5-1.95Zm-14.65-21.31c5.12,1.66,3.07,5.31,1.25,3.81-.06-1.25-.83-2.72-1.6-3.62l.35-.19Zm11.2,17.47v-1.02h-7.46v.54c0,.19-.99,.7-1.92,.7h-.32v-8.61l2.37,1.06h7.01l1.22-1.31,2.72,2.05c-.22,.26-.74,.51-1.38,.64v5.28c-.03,.19-1.15,.67-1.89,.67h-.35Zm-8.19,.19c5.73,2.4,3.2,6.56,1.15,4.67-.06-1.5-.83-3.33-1.54-4.51l.38-.16Zm6.62-12.73s1.5,1.18,2.37,2.08c-.1,.35-.38,.51-.77,.51h-7.26l-.26-.96h4.64l1.28-1.63Zm1.57,10.59v-4.48h-7.46v4.48h7.46Zm6.18-13.98c-.22,.29-.51,.38-1.15,.16-1.15,.7-2.59,1.41-3.81,1.86,1.5,1.82,3.26,3.26,5.22,4.16l-.03,.35c-.9,.16-1.63,.8-1.92,1.95-3.9-2.66-6.21-7.17-7.42-13.21l.51-.19c.35,1.12,.8,2.24,1.31,3.3,.83-.9,1.76-2.14,2.5-3.17l2.56,1.92c-.22,.29-.51,.38-1.18,.16-1.09,.7-2.4,1.41-3.46,1.82,.42,.8,.86,1.54,1.38,2.24,.99-.86,2.14-2.08,3.04-3.14l2.46,1.79Z"/>
          <path d="M451.71,130c0,3.94-.42,10.18-5.34,14.3l-.38-.32c2.94-4.38,3.26-9.63,3.26-13.98v-4.7l2.94,1.18h18.27l1.7-2.11s1.92,1.47,3.14,2.53c-.1,.35-.42,.51-.86,.51h-22.72v2.59Zm20.73-13.44s1.92,1.41,3.07,2.46c-.1,.35-.38,.51-.83,.51h-7.17l1.98,1.31c-.22,.29-.51,.38-1.18,.16-.9,.58-2.02,1.15-3.26,1.66,4.54,1.98,3.71,4.16,1.95,3.68-1.02-.77-2.66-1.7-4.74-2.59-3.17,1.06-6.82,1.92-10.24,2.37l-.19-.48c2.72-.67,5.66-1.63,8.32-2.78-1.92-.77-4.13-1.5-6.46-2.08l.16-.54c3.68,.35,6.5,.93,8.67,1.54,1.44-.74,2.78-1.5,3.81-2.24h-18.78l-.29-.96h13.44c-.32-1.41-1.54-2.94-2.69-3.81l.29-.26c4.8,.45,5.25,3.1,4.22,4.06h8.29l1.63-2.02Zm-.19,23.58s1.92,1.41,3.14,2.5c-.1,.35-.42,.51-.86,.51h-23.17l-.29-.96h10.72v-4.32h-6.3l-.26-.93h6.56v-3.84h-5.28c-1.06,1.6-2.3,2.98-3.62,3.94l-.45-.29c1.41-2.02,2.78-5.12,3.49-8.38l3.42,1.06c-.16,.35-.54,.64-1.22,.61-.32,.77-.7,1.44-1.09,2.14h4.74v-4.16l3.58,.35c-.06,.45-.32,.74-1.06,.83v2.98h3.94l1.6-1.95s1.79,1.31,2.94,2.37c-.1,.35-.42,.51-.83,.51h-7.65v3.84h3.39l1.54-1.92s1.76,1.34,2.85,2.34c-.1,.35-.38,.51-.83,.51h-6.94v4.32h6.27l1.66-2.05Z"/>
          <path d="M487.99,125.97c6.18,2.75,4.1,6.85,2.05,5.15-.19-1.38-1.15-3.17-2.05-4.42v16.77c0,.35-1.02,.93-1.86,.93h-.51v-14.27c-1.09,2.53-2.5,4.83-4.32,6.91l-.42-.38c2.21-3.74,3.55-8.54,4.29-13.28h-3.68l-.26-.93h4.38v-7.74l3.55,.38c-.1,.48-.35,.77-1.18,.9v6.46h.74l1.44-1.95s1.38,1.15,2.34,2.14v-1.89l2.14,.96h3.04l1.06-1.06,2.18,1.66c-.13,.16-.51,.38-.99,.48v3.97c0,.19-.99,.64-1.66,.64h-.32v-.74h-3.46v.9c0,.16-.86,.58-1.66,.58h-.32v-4.93c-.16,.1-.38,.16-.64,.16h-3.87v2.59Zm20.41,14.43s1.6,1.25,2.56,2.18c-.06,.35-.35,.51-.8,.51h-14.11v.7c0,.13-.77,.54-1.92,.54h-.38v-10.56c-.99,1.02-2.08,1.98-3.2,2.75l-.38-.38c2.37-2.53,4.48-6.37,5.34-9.09l3.1,1.38c-.13,.32-.42,.51-1.15,.38-.32,.58-.74,1.18-1.18,1.82l.16,.06h10.21l1.34-1.66s1.54,1.18,2.5,2.11c-.1,.35-.38,.51-.83,.51h-6.69v2.85h3.04l1.28-1.63s1.47,1.12,2.37,2.05c-.06,.35-.35,.51-.8,.51h-5.89v2.88h2.94l1.34-1.63s1.44,1.15,2.37,2.05c-.1,.35-.38,.51-.83,.51h-5.82v2.91h4.06l1.38-1.76Zm-17.09-22.49h5.47v-3.17l3.26,.32c-.06,.38-.35,.67-1.02,.77v4.42c0,.22-1.02,.67-1.79,.67h-.45v-2.08h-5.18l-.29-.93Zm3.17,4.74v3.1h3.46v-3.1h-3.46Zm1.57,9.02v2.85h4.67v-2.85h-4.67Zm4.67,3.78h-4.67v2.88h4.67v-2.88Zm-4.67,6.72h4.67v-2.91h-4.67v2.91Zm3.9-14.91c.67,.13,1.18,.26,1.63,.45v-6.94l2.11,.96h3.04l1.09-1.12,2.3,1.76c-.16,.19-.58,.42-1.09,.51v4.38c-.03,.19-1.06,.61-1.7,.61h-.32v-1.18h-3.46v.42c0,.16-.9,.64-1.7,.64h-.22c3.01,1.28,.99,3.87-.7,2.5-.03-.99-.64-2.14-1.28-2.78l.29-.19Zm4.42-7.07c0,.19-1.02,.61-1.82,.61h-.45v-6.08l3.26,.32c-.03,.42-.32,.67-.99,.77v2.11h3.17l1.15-1.54s1.38,1.09,2.18,1.95c-.06,.35-.35,.51-.77,.51h-5.73v1.34Zm-.8,2.46v3.1h3.46v-3.1h-3.46Z"/>
          <path d="M378.43,183.37c.96,3.2,.54,5.63-.29,6.75-.54,.7-1.82,.96-2.3,.19-.42-.64-.06-1.41,.54-1.95,.83-.86,1.66-3.1,1.47-4.99h.58Zm5.63-7.65c6.05,3.3,4.03,7.58,2.05,5.82-.06-.54-.26-1.18-.48-1.86-1.89,.58-4.7,1.41-7.68,2.14-.22,.32-.51,.51-.77,.61l-1.09-3.04s.67-.13,.96-.32c1.66-1.31,3.68-3.65,5.31-5.92-1.18,.35-2.72,.8-4.29,1.18-.26,.42-.54,.67-.83,.8l-1.25-3.04s.64-.13,.86-.32c1.7-1.82,3.9-6.37,4.61-8.8l3.33,1.63c-.16,.29-.51,.54-1.15,.45-1.28,2.18-3.55,5.12-5.57,7.1,1.34,0,3.2,0,5.02-.03,.99-1.44,1.79-2.78,2.3-3.84l2.94,2.11c-.16,.22-.61,.45-1.22,.29-1.89,2.59-5.54,6.27-8.8,8.8,1.82-.1,4.35-.26,6.98-.45-.48-1.15-1.12-2.27-1.7-3.1l.45-.22Zm-2.56,7.17c4,4.13,1.41,8.1-.19,6.05,.35-1.92,.16-4.32-.26-5.89l.45-.16Zm3.17-.54c5.18,3.52,2.94,7.71,1.15,5.86,.06-1.86-.77-4.19-1.57-5.7l.42-.16Zm19.61,6.4c.9,.29,1.15,.54,1.15,1.06,0,1.18-1.34,1.57-7.94,1.57h-4.64c-3.23,0-4.06-.54-4.06-2.66v-14.4l.06-.06c-.9,.48-1.79,.9-2.85,1.25l-.19-.48c4.22-2.3,6.18-5.38,6.82-9.57h-4.93l-.29-.93h12.86l1.31-1.31,2.53,2.08c-.22,.22-.61,.38-1.25,.45-.29,4.38-.96,6.82-2.14,7.68-.77,.58-1.86,.83-3.04,.83,0-.64-.06-1.22-.48-1.5-.38-.38-1.28-.61-2.27-.8l.03-.51c.96,.06,2.69,.22,3.23,.22,.51,0,.77-.06,1.02-.26,.54-.48,1.06-2.5,1.31-5.95h-4.96c-.9,3.94-2.88,6.66-6.27,8.58l2.34,.99h8.9l1.25-1.31,2.66,2.02c-.19,.22-.64,.45-1.18,.58v7.46c-.03,.16-1.22,.7-2.05,.7h-.38v-1.7h-9.6v5.44c0,.7,.22,.93,1.89,.93h4.51c1.95,0,3.52-.03,4.1-.06,.48-.06,.7-.16,.9-.42,.29-.48,.7-1.82,1.15-3.52h.38l.13,3.62Zm-13.06-12.8v5.89h3.71v-5.89h-3.71Zm5.92,0v5.89h3.68v-5.89h-3.68Z"/>
          <path d="M420.44,187.5c2.18-.26,4.54-.54,6.94-.86l.03,.51c-3.17,.96-7.68,2.27-14.14,3.87-.16,.35-.48,.61-.8,.7l-1.44-3.26c1.47-.1,3.9-.35,6.88-.67v-4.64h-4.93l-.26-.93h5.18v-4.26h-5.73l-.26-.93h8.42c.51-1.63,1.09-3.84,1.47-5.47h-7.26c5.28,2.78,2.78,6.91,.8,4.96,.06-1.63-.7-3.68-1.5-4.96h-2.82l-.26-.93h5.28v-7.78l3.1,.32c-.06,.42-.32,.67-.99,.8v6.66h2.11v-7.78l3.17,.32c-.03,.42-.35,.74-1.06,.83v6.62h2.27l1.44-1.86s1.66,1.28,2.69,2.27c-.1,.35-.38,.51-.83,.51h-5.18l2.72,.67c-.13,.38-.51,.67-1.22,.67-.77,1.18-2.05,2.78-3.17,4.13h2.27l1.38-1.73s1.6,1.22,2.59,2.14c-.1,.35-.38,.51-.83,.51h-6.08v4.26h1.98l1.44-1.82s1.6,1.28,2.62,2.24c-.1,.35-.42,.51-.83,.51h-5.22v4.35Zm-8.86-23.55c5.89,2.88,3.52,7.3,1.5,5.38,0-1.7-.96-3.84-1.86-5.18l.35-.19Zm11.23,5.57c.67-1.38,1.57-3.65,2.27-5.73l3.42,1.44c-.16,.35-.54,.61-1.22,.54-1.22,1.44-2.72,3.04-4,4.03l-.48-.29Zm15.74,.29s1.57,1.44,2.5,2.4c-.06,.35-.38,.51-.83,.51h-3.3v16.16c0,1.95-.38,3.14-3.68,3.46-.1-.8-.29-1.41-.74-1.82-.51-.42-1.28-.7-2.75-.93v-.48s3.3,.22,3.94,.22c.58,0,.77-.19,.77-.67v-15.94h-6.94l-.26-.9h7.2v-8.58l3.65,.38c-.1,.48-.42,.8-1.18,.9v7.3h.22l1.41-2.02Zm-9.79,5.38c6.37,4,3.65,9.34,1.38,7.01,.13-2.24-.77-4.99-1.76-6.85l.38-.16Z"/>
          <path d="M446.23,170.45c7.1,.7,5.38,5.66,2.85,4.16-.45-1.41-1.92-2.98-3.14-3.9l.29-.26Zm8.74-1.44c-1.18,3.84-3.42,11.01-3.84,12.58-.26,1.02-.48,2.02-.45,2.85,.06,1.5,1.06,2.88,.96,5.57-.06,1.44-.83,2.34-2.02,2.34-.61,0-1.12-.58-1.22-1.6,.48-3.26,.32-5.95-.38-6.43-.45-.32-.93-.42-1.57-.48v-.67h1.38c.42,0,.51-.03,.83-.67q.58-1.12,5.73-13.6l.58,.13Zm-6.5-5.89c7.55,.96,5.76,6.14,3.17,4.54-.54-1.54-2.08-3.26-3.46-4.26l.29-.29Zm22.14,12.83l2.94,2.18c-.22,.26-.7,.51-1.38,.64v10.14c0,1.86-.38,2.94-3.49,3.23-.1-.77-.22-1.38-.64-1.76-.42-.38-1.06-.7-2.37-.86v-.51s2.78,.22,3.39,.22c.48,0,.64-.19,.64-.64v-2.85h-10.56c-.35,2.53-1.41,5.06-4.83,6.82l-.35-.35c2.62-2.46,2.85-5.66,2.85-8.96v-7.04l2.91,1.15h9.66l1.22-1.41Zm2.24-3.78s1.79,1.41,2.91,2.46c-.1,.35-.42,.51-.83,.51h-20.41l-.26-.93h8.61v-3.01h-6.14l-.26-.93h6.4v-2.75h-7.42l-.22-.96h7.65v-3.78l3.55,.32c-.06,.45-.32,.7-1.06,.83v2.62h4.83l1.57-2.02s1.82,1.41,2.91,2.46c-.06,.35-.42,.51-.86,.51h-8.45v2.75h4.22l1.47-1.82s1.7,1.28,2.72,2.24c-.06,.35-.35,.51-.8,.51h-7.62v3.01h5.89l1.6-2.05Zm-3.14,12.61v-2.75h-10.43v1.18c0,.48,0,1.02-.03,1.57h10.46Zm-10.43-6.46v2.78h10.43v-2.78h-10.43Z"/>
          <path d="M481.59,176.59c2.5-2.27,4.42-5.28,5.57-8.42h-4.61l-.26-.96h5.92v-4.38l3.49,.38c-.06,.42-.32,.7-1.12,.83v3.17h1.12l1.44-1.82s1.6,1.28,2.59,2.27c-.1,.35-.38,.51-.83,.51h-4.32v1.12c6.21,1.12,4.7,5.18,2.56,3.9-.42-1.02-1.54-2.3-2.56-3.2v6.43c0,.22-1.06,.74-1.92,.74h-.45v-5.86c-1.6,2.24-3.71,4.19-6.24,5.73l-.38-.45Zm15.77,12.42c1.18,.13,2.5,.16,3.94,.16,2.18,0,7.23,0,9.57-.06v.45c-.93,.19-1.38,1.02-1.44,2.02h-8.26c-6.24,0-9.63-1.15-11.84-6.34-1.38,2.72-3.55,5.31-7.2,7.07l-.29-.38c3.9-2.91,5.54-7.52,6.11-11.49l3.81,.9c-.1,.42-.45,.7-1.18,.7-.22,.8-.54,1.66-.9,2.5,1.22,2.24,2.82,3.42,5.06,4.03v-9.7h-11.68l-.29-.96h23.1l1.44-1.44,2.59,2.5c-.22,.22-.58,.29-1.22,.32-.8,.77-2.27,1.79-3.36,2.34l-.38-.19c.29-.67,.67-1.7,.96-2.56h-8.54v4.16h4.42l1.57-1.92s1.82,1.34,2.94,2.37c-.1,.35-.38,.51-.83,.51h-8.1v5.02Zm-.86-20.83l-.26-.96h4.48v-4.26l3.62,.38c-.06,.45-.35,.74-1.18,.86v3.01h2.3l1.54-1.92s1.73,1.34,2.75,2.37c-.1,.35-.38,.51-.83,.51h-5.76v1.54c7.84,1.98,6.72,6.85,4.16,5.57-.74-1.47-2.53-3.23-4.16-4.58v5.73c0,.22-1.06,.7-1.98,.7h-.45v-5.95c-1.63,2.18-3.87,4-6.56,5.44l-.35-.48c2.62-2.11,4.61-4.93,5.79-7.97h-3.1Z"/>
        </g>
      </g>
      <g>
        <path class="cls-13" d="M123.94,341.38c0,.43,.01,.86,0,1.29,0,.14-.06,.28-.14,.38-3.29,3.53-6.58,7.05-9.88,10.56l-1.63,1.74c.02-.31,.02-.62,0-.93-.09-.74,.17-1.22,.64-1.72,3.42-3.6,6.81-7.24,10.22-10.87,.15-.16,.31-.3,.46-.45h.33Z"/>
        <path class="cls-13" d="M125.27,341.38c.78,.81,1.57,1.62,2.34,2.45,2.9,3.09,5.8,6.18,8.71,9.27,.1,.09,.17,.2,.22,.33,.05,.13,.07,.27,.06,.41-.02,.47,0,.94,0,1.49-.15-.15-.24-.24-.33-.34-3.58-3.83-7.15-7.68-10.75-11.49-.43-.45-.67-.9-.57-1.56,.01-.19,.02-.39,0-.58h.33Z"/>
        <path class="cls-13" d="M110.27,355.54l.99-1.03v19.82h-.99v-18.79Z"/>
        <path class="cls-13" d="M129.48,362.55h-10.1v-8.21h10.1v8.21Z"/>
        <path class="cls-13" d="M119.39,366.11h10.11c0,.1,.01,.2,.01,.31v5.24c0,.27-.07,.34-.3,.34-3.19,0-6.38,0-9.58,0-.15,0-.28,.02-.28-.25,0-1.82,0-3.67,0-5.5,.01-.05,.02-.09,.04-.14Z"/>
        <path class="cls-13" d="M116.34,352.63v9.91h-4.04c0-.1-.02-.18-.02-.27v-5.08c0-.14,.05-.28,.13-.39,1.26-1.36,2.52-2.71,3.78-4.05,.04-.03,.07-.07,.14-.13Z"/>
        <path class="cls-13" d="M136.57,362.55h-4.03v-9.9c.07,.05,.12,.09,.16,.13,1.24,1.33,2.48,2.66,3.72,4,.1,.1,.16,.25,.17,.41,.01,1.71,0,3.41,0,5.11,0,.07-.01,.15-.02,.25Z"/>
        <path class="cls-13" d="M136.58,373.18v1.13h-24.27v-1.13h24.27Z"/>
        <path class="cls-13" d="M112.3,366.11h4.04v5.86c-.08,.01-.15,.02-.23,.03h-3.56c-.17,0-.27-.03-.27-.28,0-1.81,0-3.62,0-5.43,0-.05,.01-.1,.02-.18Z"/>
        <path class="cls-13" d="M132.53,366.11h4.04c0,.12,.01,.22,.01,.32v5.21c0,.28-.06,.37-.31,.36-1.16-.02-2.32,0-3.48,0-.09,0-.17,0-.28-.02v-5.87Z"/>
        <path class="cls-13" d="M118.36,350.45v21.51h-1v-20.14c0-.1,0-.2,.04-.28,.03-.09,.08-.17,.15-.23,.26-.26,.51-.53,.81-.85Z"/>
        <path class="cls-13" d="M130.53,350.46c.33,.35,.64,.66,.92,.99,.06,.1,.08,.23,.07,.35v20.16h-.99v-21.51Z"/>
        <path class="cls-13" d="M137.61,354.49c.32,.34,.6,.63,.87,.94,.07,.08,.11,.19,.11,.3v18.46s0,.07-.02,.11h-.97v-19.81Z"/>
        <path class="cls-13" d="M129.51,353.14h-10.14v-1c0-.06,.08-.14,.14-.17,.06-.01,.13-.01,.19,0h9.46c.28,0,.38,.08,.35,.41-.01,.26,0,.51,0,.77Z"/>
        <path class="cls-13" d="M129.49,363.75v1.16h-10.1v-1.16h10.1Z"/>
        <path class="cls-13" d="M122.92,345.63v5.14h-3.55v-1.29c0-.08,.04-.16,.1-.21,1.13-1.2,2.25-2.41,3.38-3.61,.01-.02,.03-.02,.08-.02Z"/>
        <path class="cls-13" d="M125.96,345.57l1.46,1.57c.64,.68,1.28,1.35,1.92,2.05,.1,.13,.16,.29,.17,.47,.02,.37,0,.74,0,1.13h-3.55v-5.21Z"/>
        <path class="cls-13" d="M124.44,343.97c.17,.1,.31,.27,.41,.46,.09,.2,.13,.42,.11,.65-.03,1.78-.01,3.55-.01,5.33v.36h-1.01v-.39c0-1.77,.02-3.53-.01-5.3-.02-.22,.02-.45,.11-.65,.09-.2,.23-.36,.4-.47Z"/>
        <path class="cls-13" d="M116.34,363.75v1.16h-4.03v-1.16h4.03Z"/>
        <path class="cls-13" d="M132.53,364.91v-1.17h4.03v1.17h-4.03Z"/>
      </g>
      <circle class="cls-6" cx="126.5" cy="404.5" r="123"/>
      <g>
        <path d="M58.04,416.57c.99,3.23,.51,5.66-.32,6.78-.58,.74-1.82,.96-2.34,.22-.38-.67-.06-1.47,.54-2.02,.9-.9,1.73-3.1,1.57-4.99h.54Zm-2.56-4s.64-.16,.9-.35c1.57-1.31,3.42-3.62,5.02-5.89-1.18,.35-2.56,.8-4,1.15-.22,.32-.48,.51-.7,.61l-1.25-3.07s.61-.13,.86-.32c1.73-1.79,3.9-6.37,4.64-8.8l3.36,1.66c-.16,.29-.51,.54-1.12,.48-1.34,2.14-3.65,5.15-5.76,7.14,1.31,.03,2.98,.03,4.7,0,.8-1.28,1.44-2.46,1.89-3.42l3.07,2.08c-.16,.26-.61,.45-1.22,.32-1.76,2.5-5.12,6.05-8.13,8.45,1.73-.1,4.1-.26,6.62-.48-.38-1.15-.93-2.37-1.41-3.23l.38-.19c5.47,3.42,3.36,7.58,1.47,5.79-.03-.48-.1-1.02-.26-1.6-1.82,.58-4.45,1.41-7.23,2.11-.22,.35-.48,.58-.77,.67l-1.09-3.1Zm5.38,3.42c4.13,4.16,1.47,8.16-.16,6.08,.32-1.92,.1-4.35-.29-5.95l.45-.13Zm3.1-.58c5.34,3.1,3.14,7.3,1.25,5.47,.03-1.7-.8-3.94-1.63-5.31l.38-.16Zm12.86-12.42v5.7h3.36l1.57-1.95s1.79,1.38,2.85,2.4c-.06,.35-.38,.51-.8,.51h-15.81l-.26-.96h6.59v-5.7h-7.04l-.26-.93h7.3v-6.18l3.68,.38c-.06,.45-.38,.77-1.18,.9v4.9h3.74l1.57-2.05s1.82,1.44,2.91,2.46c-.06,.35-.42,.51-.83,.51h-7.39Zm4.42,8.9l2.56,1.98c-.22,.26-.51,.45-1.18,.54v10.05c0,.16-.9,.67-2.08,.67h-.45v-2.3h-8.51v1.79c0,.22-.8,.7-2.02,.7h-.38v-13.12l2.75,1.12h8.06l1.25-1.44Zm-1.15,10.02v-7.65h-8.51v7.65h8.51Z"/>
        <path d="M97.24,407.09c6.34,2.66,4.32,6.82,2.24,5.12-.29-1.41-1.34-3.17-2.24-4.48v16.7c0,.32-.99,.86-1.92,.86h-.51v-13.95c-1.09,2.46-2.53,4.7-4.35,6.69l-.45-.42c2.24-3.65,3.58-8.42,4.32-13.15h-3.74l-.26-.96h4.48v-7.65l3.58,.38c-.06,.48-.32,.77-1.15,.9v6.37h.83l1.44-1.95s1.63,1.38,2.62,2.4c-.1,.35-.42,.51-.83,.51h-4.06v2.62Zm21.05,9.34s1.34,1.31,2.14,2.18c-.06,.35-.35,.51-.8,.51h-2.5v3.14c0,1.73-.38,2.75-3.36,3.04-.06-.7-.19-1.25-.61-1.6-.35-.35-1.02-.64-2.3-.8v-.48s2.66,.19,3.26,.19c.51,0,.67-.19,.67-.64v-2.85h-10.46v5.34c0,.26-.93,.8-1.89,.8h-.38v-6.14h-2.62l-.26-.93h2.88v-9.54l2.46,1.12h3.81v-2.34h-7.97l-.26-.93h4.9v-2.78h-2.85l-.26-.93h3.1v-2.59h-4l-.26-.93h4.26v-3.3l3.36,.35c-.06,.42-.38,.74-1.09,.83v2.11h4.03v-3.3l3.36,.35c-.03,.45-.35,.74-1.09,.86v2.08h1.92l1.41-1.76s1.63,1.28,2.59,2.18c-.1,.35-.38,.51-.83,.51h-5.09v2.59h1.5l1.28-1.66s1.5,1.18,2.43,2.08c-.06,.35-.38,.51-.8,.51h-4.42v2.78h2.43l1.38-1.76s1.6,1.22,2.56,2.18c-.06,.35-.38,.51-.8,.51h-8.51v2.34h3.84l1.15-1.38,2.82,2.11c-.19,.22-.7,.48-1.31,.61v6.98l1.15-1.66Zm-13.95-5.73v3.14h4v-3.14h-4Zm0,7.49h4v-3.46h-4v3.46Zm2.94-15.39h4.03v-2.59h-4.03v2.59Zm0,3.71h4.03v-2.78h-4.03v2.78Zm3.36,4.19v3.14h4.16v-3.14h-4.16Zm4.16,7.49v-3.46h-4.16v3.46h4.16Z"/>
        <path d="M135.86,397.05c-.16,.35-.51,.64-1.25,.61-.9,2.43-1.92,4.67-3.07,6.75l1.41,.54c-.13,.26-.42,.48-.99,.54v19.01c-.03,.19-1.09,.8-2.05,.8h-.48v-17.54c-1.22,1.66-2.5,3.17-3.87,4.45l-.48-.32c2.72-3.84,5.47-9.95,6.98-16.03l3.81,1.18Zm-2.75,26.46c2.08-2.11,4.61-5.73,6.3-9.34l3.42,1.7c-.19,.35-.64,.58-1.31,.45-2.27,3.2-5.25,5.89-8.06,7.58l-.35-.38Zm19.2-13.63s1.89,1.44,3.04,2.53c-.1,.35-.38,.51-.86,.51h-8.9v11.55c-.03,.19-.86,.86-2.14,.86h-.42v-12.42h-9.22l-.26-.93h9.47v-4.83h-3.78v1.31c0,.19-.8,.7-2.05,.7h-.42v-12.29l2.82,1.18h9.79l1.25-1.47,2.59,2.02c-.22,.26-.51,.45-1.22,.54v8.96c0,.13-.9,.61-2.11,.61h-.42v-1.57h-3.9v4.83h5.06l1.66-2.11Zm-13.05-3.65h10.24v-7.23h-10.24v7.23Zm7.65,8.58c10.24,4.61,8.7,10.3,5.86,8.48-1.09-2.5-4.1-5.98-6.24-8.22l.38-.26Z"/>
        <path d="M189.75,398.71c-.22,.22-.74,.48-1.38,.61v24.73c-.03,.22-1.25,.9-2.14,.9h-.35v-1.92h-20.7v1.25c0,.32-.93,.99-2.05,.99h-.45v-28.54l2.72,1.25h20.16l1.31-1.54,2.88,2.27Zm-3.87,23.39v-23.23h-20.7v23.23h20.7Zm-4.03-19.33s1.7,1.41,2.78,2.4c-.1,.35-.38,.51-.86,.51h-7.1v4.74h2.34l1.22-1.31,2.62,2.02c-.19,.22-.64,.42-1.18,.54v7.49c-.03,.19-1.25,.7-1.98,.7h-.38v-1.86h-7.68v1.41c0,.22-.99,.74-1.98,.74h-.35v-10.82l2.5,1.09h2.43v-4.74h-7.07l-.26-.9h7.33v-4.77l3.55,.35c-.06,.42-.35,.74-1.09,.83v3.58h3.65l1.54-2.02Zm-10.24,8.58v5.73h7.68v-5.73h-7.68Z"/>
        <path d="M101.52,469.65v1.09h-12.93v-1.09l4.99-.7c.03-1.86,.06-3.74,.06-5.6v-12.93l-4.67,.45v-1.22l7.2-1.86,.48,.35-.13,5.02v10.18c0,1.86,.03,3.74,.06,5.6l4.93,.7Z"/>
        <path d="M111.61,457.14c1.15-.35,2.27-.51,3.55-.51,4.54,0,7.65,2.53,7.65,7.07s-3.23,7.49-8.19,7.49c-3.55,0-5.82-1.63-6.53-4.86,.29-.74,.9-1.12,1.66-1.12,1.02,0,1.47,.51,1.89,2.21l.58,2.11c.74,.22,1.41,.32,2.14,.32,3.49,0,5.38-2.27,5.38-5.79s-2.08-5.57-5.47-5.57c-1.12,0-2.27,.13-3.39,.45l-.9-.26,.74-10.56h11.46v2.72h-10.11l-.45,6.3Z"/>
        <path d="M154.96,461.81s2.08,1.54,3.3,2.66c-.06,.35-.42,.51-.83,.51h-11.01v7.52c0,.19-.86,.8-2.24,.8h-.48v-8.32h-14.62l-.26-.93h5.54v-9.7l3.07,1.25h6.27v-6.05h-6.94c-2.27,3.17-4.93,5.73-7.71,7.49l-.42-.35c3.01-2.98,6.21-8.03,8.1-13.34l3.87,1.5c-.16,.35-.58,.64-1.31,.54-.58,1.12-1.22,2.21-1.89,3.23h14.72l1.79-2.21s1.98,1.44,3.3,2.62c-.1,.35-.42,.51-.9,.51h-9.89v6.05h4.99l1.66-2.11s1.89,1.47,3.07,2.53c-.06,.32-.42,.48-.86,.48h-8.86v7.55h6.75l1.79-2.24Zm-11.26,2.24v-7.55h-6.66v7.55h6.66Z"/>
      </g>
      <circle class="cls-8" cx="443.5" cy="692.5" r="123"/>
      <g class="cls-21">
        <g>
          <path class="cls-22" d="M456.53,631l-1.99,1.71c-5.22,4.45-10.45,8.9-15.66,13.35-.22,.2-.5,.31-.79,.3-3.26,0-6.51,0-9.77,0h-.49s1.04-.85,1.04-.85c5.89-4.75,11.8-9.5,17.69-14.25,.22-.18,.47-.27,.74-.26h8.75s.49,0,.49,0Z"/>
          <path class="cls-22" d="M438.73,647.64v2.56h-2.64s-.54,0-.54,0c-.15,.63-.32,.66-.47,.72-.15,.06-.29,.16-.41,.28-.12,.12-.2,.27-.27,.43-.05,.16-.08,.33-.8,.5v4.51c.73,.81,2.01,1.24,2.01,1.24h3.11v3.84h-12.8v-3.78s.67-.02,.77-.06h2.89c.84,.05,1.32-.43,1.46-1.29v-4.42c-.14-.84-1.43-1.97-1.43-1.97h-2.89s-.8,0-.8,0v-2.56h12.8Z"/>
          <path class="cls-22" d="M436.17,656.03v-4.55h.38c.99,0,2,0,3,0,.24,0,.46-.07,.64-.22,4.52-3.79,9.05-7.58,13.59-11.36,.09-.07,.18-.14,.31-.25v.36c.01,.76,.49,1.23,1.24,1.23h1.48s-1.95,1.64-1.95,1.64c-5.12,4.27-10.24,8.55-15.35,12.82-.24,.22-.57,.34-.89,.32-.8-.02-1.62,0-2.46,0Z"/>
          <path class="cls-22" d="M440.01,649.67c0-1.17,0-2.28,0-3.38,0-.09,.11-.2,.2-.27,4.98-4.24,9.96-8.48,14.93-12.72l2.79-2.37v1.1c0,.68,0,1.37,0,2.06,.01,.11,0,.21-.05,.31-.04,.1-.11,.18-.19,.24-3.65,3.1-7.29,6.2-10.94,9.31-2.16,1.85-4.33,3.7-6.5,5.54-.06,.05-.13,.1-.24,.18Z"/>
          <path class="cls-22" d="M440.01,660.32c0-1.18,0-2.28,0-3.36,.04-.12,.11-.23,.23-.29,2.83-2.43,5.68-4.85,8.52-7.27l8.94-7.61,.24-.19v1.85c0,.44-.01,.87,0,1.3,0,.1-.01,.21-.06,.3-.04,.09-.11,.17-.19,.23-4.85,4.12-9.69,8.24-14.52,12.36l-3.15,2.69Z"/>
        </g>
      </g>
      <circle class="cls-2" cx="439.5" cy="976.5" r="123"/>
      <circle class="cls-1" cx="438.5" cy="1261.5" r="123"/>
      <circle class="cls-10" cx="126.5" cy="692.5" r="123"/>
      <g>
        <path d="M83.92,691.38c-.19,.26-.7,.54-1.34,.67v10.81c-.03,.22-1.34,.77-2.24,.77h-.45v-2.66h-8.7v11.33c0,.35-1.15,1.02-2.14,1.02h-.51v-12.35h-8.7v2.18c0,.26-1.12,.9-2.21,.9h-.42v-14.69l2.88,1.25h8.45v-6.82l3.84,.42c-.1,.45-.35,.8-1.18,.93v5.47h8.38l1.41-1.47,2.94,2.24Zm-15.39,8.67v-8.51h-8.7v8.51h8.7Zm11.36,0v-8.51h-8.7v8.51h8.7Z"/>
        <path d="M95.7,696.63c0,5.25-.32,12.13-5.31,16.86l-.45-.32c2.94-4.86,3.2-10.91,3.2-16.54v-9.18l3.01,1.22h19.1l1.7-2.14s1.89,1.5,3.04,2.59c-.1,.35-.42,.51-.86,.51h-23.42v7.01Zm10.08,3.26c-.22,.29-.51,.38-1.18,.42-.64,2.78-1.57,5.34-3.17,7.58,2.37,1.76,5.6,2.18,10.18,2.18,1.92,0,6.3,0,8.45-.06v.42c-.93,.19-1.38,1.02-1.41,1.98h-7.2c-5.09,0-8.48-.7-10.94-3.39-1.54,1.79-3.65,3.26-6.5,4.38l-.26-.48c2.56-1.41,4.42-3.17,5.76-5.28-.83-1.31-1.54-2.88-2.11-4.9l.42-.22c.64,1.73,1.38,3.04,2.3,4.1,1.02-1.95,1.7-4.16,2.11-6.56h-2.27l-.96,.86-2.18-1.73c.32-.19,.74-.42,1.18-.54,.9-1.54,2.11-3.84,2.85-5.47h-3.78l-.29-.93h4.1l1.28-1.31,2.59,2.34c-.29,.32-.9,.48-1.6,.51-.74,1.41-1.95,3.68-2.91,5.31h1.79l1.31-1.34,2.43,2.14Zm-2.5-16.16c7.33,1.15,5.38,6.24,2.72,4.58-.45-1.47-1.86-3.3-2.98-4.38l.26-.19Zm7.36,22.33v-6.14h-4.1l-.26-.93h4.35v-5.22c-1.73,.29-3.58,.48-5.31,.58l-.13-.54c3.87-.74,8.51-2.27,10.88-3.49l2.5,2.24c-.29,.29-.83,.29-1.6-.03-1.12,.32-2.46,.61-3.97,.9v5.57h1.41l1.47-1.98s1.7,1.41,2.69,2.4c-.06,.35-.38,.51-.8,.51h-4.77v6.14h2.5l1.5-1.95s1.7,1.38,2.75,2.37c-.1,.35-.38,.51-.83,.51h-13.47l-.26-.93h5.44Z"/>
        <path d="M151.8,694.33s1.82,1.34,2.91,2.4c-.1,.35-.42,.51-.86,.51h-27.49l-.29-.96h14.05c-.1-.03-.19-.06-.29-.13-.26-.9-1.15-1.89-1.95-2.37l.26-.29c4.22-.22,4.19,2.27,2.91,2.78h9.18l1.57-1.95Zm-10.18,10.66v5.02c0,1.86-.48,3.01-3.62,3.3-.06-.7-.19-1.31-.61-1.66-.42-.38-1.12-.7-2.53-.86v-.48s2.91,.19,3.55,.19c.51,0,.64-.16,.64-.54v-4.96h-4.64v.61c0,.13-.35,.35-.86,.51l3.17,1.6c-.16,.32-.45,.48-1.15,.32-1.95,1.73-5.54,3.65-9.02,4.54l-.29-.42c2.78-1.44,5.76-4,7.17-6.02-.32,.13-.77,.22-1.18,.22h-.38v-8.03l2.75,1.15h11.52l1.31-1.44,2.94,2.18c-.22,.26-.7,.54-1.34,.67v4.54c-.03,.22-1.34,.67-2.18,.67h-.42v-1.12h-4.83Zm-8-10.81c0,.26-1.12,.77-2.14,.77h-.38v-10.46l2.72,1.15h13.18l1.31-1.44,2.91,2.18c-.22,.26-.74,.54-1.34,.67v6.82c-.03,.19-1.31,.7-2.18,.7h-.38v-1.22h-13.69v.83Zm0-7.62v2.43h13.69v-2.43h-13.69Zm13.69,5.86v-2.5h-13.69v2.5h13.69Zm-12.9,11.65h12.03v-3.65h-12.03v3.65Zm9.89,2.62c11.39,1.15,9.69,7.1,6.88,5.73-.93-1.41-3.55-3.68-7.04-5.25l.16-.48Z"/>
        <path d="M165.33,710.93v1.22c0,.16-.74,.74-1.86,.74h-.38v-9.86c-.64,.77-1.31,1.44-1.98,2.02l-.48-.32c1.44-2.05,2.85-5.22,3.62-8.42l3.14,1.09c-.16,.35-.51,.61-1.18,.54-.22,.54-.48,1.06-.77,1.54l.32,.13h7.49l1.28-1.54s1.41,1.12,2.34,1.95c-.1,.35-.38,.51-.83,.51h-4.86v2.46h1.73l1.18-1.44s1.31,1.02,2.18,1.86c-.1,.35-.38,.51-.8,.51h-4.29v2.53h1.73l1.22-1.41s1.31,1.02,2.14,1.86c-.06,.35-.35,.51-.8,.51h-4.29v2.56h2.18l1.34-1.63s1.54,1.15,2.5,2.08c-.1,.35-.38,.51-.83,.51h-11.01Zm-4.48-24.19h4.54v-3.04l3.26,.32c-.06,.38-.35,.67-1.06,.77v4.45c0,.22-.99,.67-1.79,.67h-.42v-2.21h-4.26l-.29-.96Zm6.18,3.23l2.18,1.66c-.13,.19-.58,.42-1.09,.51v3.97c0,.22-.96,.64-1.57,.64h-.29v-1.02h-2.37v.77c0,.13-.64,.61-1.57,.61h-.32v-7.07l2.3,.96h1.66l1.06-1.02Zm-.77,4.83v-2.88h-2.37v2.88h2.37Zm-.93,5.73v2.46h3.62v-2.46h-3.62Zm3.62,3.39h-3.62v2.53h3.62v-2.53Zm0,3.49h-3.62v2.56h3.62v-2.56Zm-.29-11.33c.42,.13,.8,.26,1.12,.42v-6.5l2.3,.99h1.73l1.02-1.09,2.27,1.73c-.19,.19-.61,.45-1.15,.51v3.84c0,.19-.96,.64-1.57,.64h-.32v-.9h-2.4v.38c0,.16-.54,.61-1.38,.67,2.43,1.47,.54,3.55-.9,2.34-.1-.93-.64-2.14-1.09-2.85l.35-.19Zm21.37,14.14c.64,.29,.74,.54,.74,.99,0,.9-.8,1.41-3.55,1.41h-1.5c-1.86,0-2.14-.58-2.14-2.05v-8.1h-1.38c-.26,5.47-1.76,8.58-6.91,10.62l-.16-.45c3.68-2.4,4.51-5.15,4.64-9.18-.26,.22-.9,.51-1.79,.51l-.38,.03v-16.51c-.16,.13-.38,.19-.67,.19h-4.38v1.47c0,.22-1.02,.64-1.82,.64h-.45v-6.14l3.26,.32c-.03,.42-.32,.67-.99,.77v1.98h1.95l1.12-1.5s1.18,.96,1.98,1.79v-2.69l2.69,1.12h5.57l1.28-1.44,2.56,2.02c-.22,.26-.58,.45-1.28,.58v16.13c0,.16-.9,.67-1.98,.67h-.42v-.93h-.13v7.52c0,.35,.06,.45,.54,.45h1.82c.22,0,.29-.06,.42-.32,.19-.42,.54-1.98,.86-3.46h.42l.1,3.55Zm-18.37-18.3v2.88h2.4v-2.88h-2.4Zm8.22-5.54v4.8h6.11v-4.8h-6.11Zm6.11,9.98v-4.22h-6.11v4.22h6.11Zm0,5.18v-4.26h-6.11v4.26h6.11Z"/>
        <path d="M38.28,735.99s1.63,1.28,2.62,2.24c-.06,.35-.38,.51-.8,.51h-12.77l-.22-.93h9.73l1.44-1.82Zm-1.34,4.19s1.5,1.18,2.46,2.11c-.1,.35-.42,.51-.86,.51h-9.79l-.26-.93h7.07l1.38-1.7Zm0,4.13s1.5,1.18,2.46,2.11c-.1,.35-.42,.51-.86,.51h-9.79l-.26-.93h7.07l1.38-1.7Zm1.44,14.85c-.03,.19-1.15,.7-1.95,.7h-.35v-1.54h-4.83v1.86c0,.26-.99,.8-1.95,.8h-.35v-11.94l2.43,1.09h4.38l1.25-1.31,2.69,2.05c-.19,.26-.67,.48-1.31,.61v7.68Zm-7.52-27.07c6.78,1.41,4.64,6.3,2.14,4.58-.26-1.5-1.44-3.3-2.43-4.38l.29-.19Zm5.22,25.31v-6.3h-4.83v6.3h4.83Zm18.78-10.02c-.26,.29-.58,.38-1.34,.42-1.15,2.75-2.75,5.18-4.9,7.3,2.4,1.6,5.31,2.69,8.61,3.39l-.03,.35c-1.09,.19-1.86,.93-2.24,2.14-3.2-1.06-5.86-2.5-7.97-4.48-2.66,2.08-5.98,3.68-10.18,4.77l-.22-.48c3.71-1.34,6.75-3.23,9.18-5.57-1.79-2.05-3.04-4.61-3.9-7.78h-1.86l-.26-.93h10.98l1.57-1.5,2.56,2.37Zm-16.09-1.92c2.98-2.72,3.39-6.02,3.39-8.9v-3.74l2.78,1.15h4l1.28-1.38,2.53,2.14c-.22,.22-.61,.38-1.18,.48v6.27c0,.35,.06,.48,.58,.48h1.12c.42,0,.86,0,1.09-.03h.48c.19-.03,.45-.1,.61-.13h.32l.13,.03c.64,.26,.9,.45,.9,.96,0,.93-.83,1.41-3.74,1.41h-1.63c-1.89,0-2.18-.54-2.18-2.05v-7.26h-4.74v1.63c0,2.72-.51,6.78-5.41,9.31l-.32-.38Zm3.74,1.98c.99,2.62,2.53,4.77,4.48,6.43,1.66-1.89,2.91-4.06,3.78-6.43h-8.26Z"/>
        <path d="M69.76,740.89c-.13,.29-.42,.48-.99,.58v18.97c-.03,.22-1.12,.83-2.08,.83h-.48v-17.12c-1.12,1.66-2.34,3.1-3.62,4.32l-.45-.26c2.59-4,5.22-10.24,6.59-16.41l3.94,1.22c-.13,.38-.51,.67-1.22,.64-.86,2.4-1.86,4.67-2.98,6.75l1.28,.48Zm19.39-1.86s1.76,1.38,2.78,2.37c-.1,.35-.42,.51-.86,.51h-12.99c-.54,1.06-1.18,2.02-1.92,2.98l.22,.1h10.43l1.22-1.44,2.91,2.21c-.19,.22-.7,.51-1.38,.61v12c0,1.79-.32,2.82-3.14,3.07-.03-.67-.13-1.28-.42-1.63-.35-.35-.86-.67-1.86-.83v-.48s1.92,.16,2.43,.16c.45,0,.54-.19,.54-.58v-3.65h-4.29v5.63c0,.16-.8,.7-2.02,.7h-.42v-6.34h-5.02c-.7,2.69-2.21,5.15-5.38,6.88l-.38-.35c3.17-2.85,3.81-6.88,3.81-10.82v-2.4c-1.22,1.06-2.56,2.02-3.97,2.82l-.38-.51c2.66-2.14,4.86-5.12,6.21-8.13h-4.93l-.26-.93h5.66v-4.03h-3.81l-.26-.96h4.06v-4l3.58,.38c-.06,.48-.35,.77-1.18,.9v2.72h4.64v-4l3.58,.38c-.1,.45-.38,.77-1.22,.9v2.72h1.25l1.54-1.95s1.7,1.38,2.75,2.4c-.1,.35-.38,.51-.83,.51h-4.7v4.03h2.5l1.47-1.95Zm-8.74,14.46v-3.36h-4.48c-.03,1.15-.13,2.24-.35,3.36h4.83Zm-4.48-7.58v3.3h4.48v-3.3h-4.48Zm2.24-4.93h4.64v-4.03h-4.64v4.03Zm4.67,4.93v3.3h4.29v-3.3h-4.29Zm4.29,7.58v-3.36h-4.29v3.36h4.29Z"/>
        <path d="M107.88,733.05c-.16,.35-.51,.64-1.25,.61-.9,2.43-1.92,4.67-3.07,6.75l1.41,.54c-.13,.26-.42,.48-.99,.54v19.01c-.03,.19-1.09,.8-2.05,.8h-.48v-17.54c-1.22,1.66-2.5,3.17-3.87,4.45l-.48-.32c2.72-3.84,5.47-9.95,6.98-16.03l3.81,1.18Zm-2.75,26.46c2.08-2.11,4.61-5.73,6.3-9.34l3.42,1.7c-.19,.35-.64,.58-1.31,.45-2.27,3.2-5.25,5.89-8.06,7.58l-.35-.38Zm19.2-13.63s1.89,1.44,3.04,2.53c-.1,.35-.38,.51-.86,.51h-8.9v11.55c-.03,.19-.86,.86-2.14,.86h-.42v-12.42h-9.22l-.26-.93h9.47v-4.83h-3.78v1.31c0,.19-.8,.7-2.05,.7h-.42v-12.29l2.82,1.18h9.79l1.25-1.47,2.59,2.02c-.22,.26-.51,.45-1.22,.54v8.96c0,.13-.9,.61-2.11,.61h-.42v-1.57h-3.9v4.83h5.06l1.66-2.11Zm-13.05-3.65h10.24v-7.23h-10.24v7.23Zm7.65,8.58c10.24,4.61,8.7,10.3,5.86,8.48-1.09-2.5-4.1-5.98-6.24-8.22l.38-.26Z"/>
        <path d="M161.76,734.71c-.22,.22-.74,.48-1.38,.61v24.73c-.03,.22-1.25,.9-2.14,.9h-.35v-1.92h-20.7v1.25c0,.32-.93,.99-2.05,.99h-.45v-28.54l2.72,1.25h20.16l1.31-1.54,2.88,2.27Zm-3.87,23.39v-23.23h-20.7v23.23h20.7Zm-4.03-19.33s1.7,1.41,2.78,2.4c-.1,.35-.38,.51-.86,.51h-7.1v4.74h2.34l1.22-1.31,2.62,2.02c-.19,.22-.64,.42-1.18,.54v7.49c-.03,.19-1.25,.7-1.98,.7h-.38v-1.86h-7.68v1.41c0,.22-.99,.74-1.98,.74h-.35v-10.82l2.5,1.09h2.43v-4.74h-7.07l-.26-.9h7.33v-4.77l3.55,.35c-.06,.42-.35,.74-1.09,.83v3.58h3.65l1.54-2.02Zm-10.24,8.58v5.73h7.68v-5.73h-7.68Z"/>
        <path d="M182.31,757.65v1.09h-12.93v-1.09l4.99-.7c.03-1.86,.06-3.74,.06-5.6v-12.93l-4.67,.45v-1.22l7.2-1.86,.48,.35-.13,5.02v10.18c0,1.86,.03,3.74,.06,5.6l4.93,.7Z"/>
        <path d="M214.98,749.81s2.08,1.54,3.3,2.66c-.06,.35-.42,.51-.83,.51h-11.01v7.52c0,.19-.86,.8-2.24,.8h-.48v-8.32h-14.62l-.26-.93h5.54v-9.7l3.07,1.25h6.27v-6.05h-6.94c-2.27,3.17-4.93,5.73-7.71,7.49l-.42-.35c3.01-2.98,6.21-8.03,8.1-13.34l3.87,1.5c-.16,.35-.58,.64-1.31,.54-.58,1.12-1.22,2.21-1.89,3.23h14.72l1.79-2.21s1.98,1.44,3.3,2.62c-.1,.35-.42,.51-.9,.51h-9.89v6.05h4.99l1.66-2.11s1.89,1.47,3.07,2.53c-.06,.32-.42,.48-.86,.48h-8.86v7.55h6.75l1.79-2.24Zm-11.26,2.24v-7.55h-6.66v7.55h6.66Z"/>
      </g>
      <path class="cls-19" d="M142.27,653.3v3.59h-3.57v5.4h-7.16v-5.37h-3.55v5.37h-7.15v-5.37h-3.55v5.38h-7.17v-5.4h-3.53v-3.61h3.51v-7.2h-3.51v-3.63h3.54c0-1.01,.02-1.99,0-2.96-.02-.42,.1-.83,.35-1.17,.75-1.11,1.47-2.22,2.21-3.32l1.02-1.54c.05,.07,.09,.11,.12,.16,1.12,1.7,2.24,3.39,3.36,5.1,.07,.13,.11,.28,.11,.43,.01,.78,0,1.55,0,2.32v.98h3.56v-3.28c0-.2,.06-.39,.16-.55,1.06-1.61,2.12-3.23,3.19-4.83,.06-.1,.13-.18,.22-.31,.09,.13,.17,.22,.24,.33,.86,1.3,1.67,2.63,2.58,3.88,.57,.72,.85,1.64,.76,2.56-.06,.72-.01,1.45-.01,2.19h3.55v-3.22c0-.22,.07-.43,.19-.61,.62-.98,1.27-1.94,1.9-2.9,.49-.74,.98-1.48,1.48-2.25,.09,.14,.16,.24,.23,.35,.91,1.38,1.8,2.79,2.75,4.15,.45,.58,.66,1.31,.61,2.05-.06,.71-.01,1.43,0,2.15,0,.1,.01,.2,.02,.32h3.54v3.59l-2.75,.03h-.79v7.19h.51l3.03,.02Zm-21.44-7.18h-3.51v7.15h3.51v-7.15Zm10.69,7.15v-7.16h-3.51v7.16h3.51Z"/>
      <g>
        <path d="M354.22,698.17c.84,2.8,.48,4.93-.25,5.91-.48,.62-1.6,.84-2.02,.17-.36-.56-.06-1.23,.48-1.71,.73-.76,1.46-2.72,1.29-4.37h.5Zm4.93-6.69c5.29,2.88,3.53,6.64,1.79,5.1-.06-.48-.22-1.04-.42-1.62-1.65,.5-4.12,1.23-6.72,1.88-.2,.28-.45,.45-.67,.53l-.95-2.66s.59-.11,.84-.28c1.46-1.15,3.22-3.19,4.65-5.18-1.04,.31-2.38,.7-3.75,1.04-.22,.36-.48,.59-.73,.7l-1.09-2.66s.56-.11,.76-.28c1.48-1.6,3.42-5.57,4.03-7.7l2.91,1.43c-.14,.25-.45,.48-1.01,.39-1.12,1.9-3.11,4.48-4.87,6.22,1.18,0,2.8,0,4.4-.03,.87-1.26,1.57-2.44,2.02-3.36l2.58,1.85c-.14,.2-.53,.39-1.06,.25-1.65,2.27-4.84,5.49-7.7,7.7,1.6-.08,3.81-.22,6.1-.39-.42-1.01-.98-1.99-1.48-2.72l.39-.2Zm-2.24,6.27c3.5,3.61,1.23,7.08-.17,5.29,.31-1.68,.14-3.78-.22-5.15l.39-.14Zm2.77-.48c4.54,3.08,2.58,6.75,1.01,5.12,.06-1.62-.67-3.67-1.37-4.98l.36-.14Zm17.16,5.6c.78,.25,1.01,.48,1.01,.92,0,1.04-1.18,1.37-6.94,1.37h-4.06c-2.83,0-3.56-.48-3.56-2.32v-12.6l.06-.06c-.78,.42-1.57,.78-2.49,1.09l-.17-.42c3.7-2.02,5.4-4.7,5.96-8.37h-4.31l-.25-.81h11.26l1.15-1.15,2.21,1.82c-.2,.2-.53,.34-1.09,.39-.25,3.84-.84,5.96-1.88,6.72-.67,.5-1.62,.73-2.66,.73,0-.56-.06-1.06-.42-1.32-.34-.34-1.12-.53-1.99-.7l.03-.45c.84,.06,2.35,.2,2.83,.2,.45,0,.67-.06,.9-.22,.48-.42,.92-2.18,1.15-5.21h-4.34c-.78,3.44-2.52,5.82-5.49,7.5l2.04,.87h7.78l1.09-1.15,2.32,1.76c-.17,.2-.56,.39-1.04,.5v6.52c-.03,.14-1.06,.62-1.79,.62h-.34v-1.48h-8.4v4.76c0,.62,.2,.81,1.65,.81h3.95c1.71,0,3.08-.03,3.58-.06,.42-.06,.62-.14,.78-.36,.25-.42,.62-1.6,1.01-3.08h.34l.11,3.16Zm-11.42-11.2v5.15h3.25v-5.15h-3.25Zm5.18,0v5.15h3.22v-5.15h-3.22Z"/>
        <path d="M398.2,683.55c-.59,1.43-1.34,2.88-2.24,4.26l1.48,.56c-.08,.25-.36,.45-.87,.53v16.52c0,.17-1.01,.62-1.85,.62h-.42v-15.71c-3.05,4.17-7.08,7.95-11.68,10.67l-.31-.34c5.71-4.42,10.78-11.12,12.88-17.11h-12.21l-.25-.84h20.83l1.62-2.02s1.85,1.4,3,2.41c-.08,.31-.36,.45-.78,.45h-9.21Zm-.11,6.97c11.93,3.92,11.2,10,8.29,8.54-1.46-2.72-5.6-6.22-8.54-8.26l.25-.28Z"/>
        <path d="M419.91,688.17c-.08,.22-.34,.42-.81,.48v16.63c-.03,.17-.95,.7-1.82,.7h-.39v-15.29c-1.04,1.48-2.18,2.8-3.36,3.89l-.39-.25c2.35-3.39,4.73-8.79,6.08-14.17l3.33,1.04c-.11,.36-.45,.62-1.06,.59-.78,2.1-1.71,4.12-2.72,5.94l1.15,.45Zm10.92,6.66c-.2,2.32-.84,4.34-2.1,6.02,2.88,1.57,6.64,2.44,10.84,2.6v.31c-.92,.25-1.68,1.06-1.88,2.18-4.28-.59-7.62-1.79-10.08-3.84-1.76,1.65-4.34,2.94-7.95,3.86l-.22-.42c3.3-1.18,5.57-2.66,7.03-4.54-1.12-1.2-2.04-2.63-2.74-4.34l.39-.2c.76,1.32,1.82,2.46,3.11,3.39,.84-1.46,1.29-3.11,1.43-5.04h-4.4v.92c0,.2-.95,.7-1.88,.7h-.28v-9.38l2.3,.98h4.31v-3.02h-7.28l-.22-.81h7.5v-4l3.19,.34c-.06,.39-.28,.67-.98,.78v2.88h4.14l1.48-1.9s1.71,1.32,2.74,2.27c-.08,.31-.36,.45-.73,.45h-7.64v3.02h4.12l1.15-1.26,2.52,1.9c-.17,.22-.62,.45-1.18,.56v6.33c-.03,.2-1.15,.7-1.85,.7h-.36v-1.46h-4.48Zm-2.13-.84v-5.12h-4.45v5.12h4.45Zm2.21-5.12v4.37c0,.25,0,.5-.03,.76h4.42v-5.12h-4.4Z"/>
        <path d="M468.63,682.91c-.22,.25-.7,.53-1.34,.64v19.29c0,1.71-.34,2.72-3.3,3.02-.08-.73-.25-1.26-.64-1.62-.42-.34-1.15-.62-2.46-.81v-.45s2.94,.25,3.5,.25,.67-.22,.67-.64v-6.24h-6.75v8.68c0,.17-.7,.7-1.85,.7h-.39v-9.38h-6.5c-.5,3.5-1.79,6.94-5.04,9.55l-.42-.25c3.19-4.17,3.56-9.46,3.56-14.81v-9.63l2.6,1.06h14.48l1.18-1.43,2.72,2.07Zm-12.57,12.6v-5.91h-6.16v1.2c0,1.51-.03,3.11-.22,4.7h6.38Zm-6.16-12.46v5.74h6.16v-5.74h-6.16Zm8.4,0v5.74h6.75v-5.74h-6.75Zm6.75,12.46v-5.91h-6.75v5.91h6.75Z"/>
        <path d="M500.83,694.39c-.2,.22-.48,.39-1.06,.5v10.22c0,.14-.78,.59-1.85,.59h-.34v-1.43h-8.54v1.09c0,.17-.67,.62-1.79,.62h-.34v-5.85c-.14,.11-.31,.17-.53,.17h-4.51v5.04c0,.14-.67,.64-1.74,.64h-.34v-5.68h-4.62l-.22-.81h4.84v-3.39h-1.79v1.04c0,.17-.81,.62-1.6,.62h-.31v-11.31l2.02,.9h1.68v-2.41h-4.4l-.22-.84h4.62v-3.92l3.02,.31c-.06,.36-.31,.62-.95,.73v2.88h1.48l1.32-1.68s1.51,1.18,2.41,2.07c-.06,.31-.36,.45-.73,.45h-4.48v2.41h1.54l1.01-1.12,2.18,1.71c-.14,.2-.56,.42-1.06,.5v8.29c-.03,.22-.92,.76-1.6,.76h-.28v-1.37h-1.79v3.39h1.46l1.32-1.68s1.34,1.04,2.27,1.88v-6.75l2.44,.98h8.12l1.06-1.26,2.3,1.74Zm-22.82-6.24v3.11h1.9v-3.11h-1.9Zm0,7.14h1.9v-3.19h-1.9v3.19Zm3.72-7.14v3.11h1.93v-3.11h-1.93Zm1.93,7.14v-3.19h-1.93v3.19h1.93Zm3.3-12.1l-.22-.81h10.05l1.4-1.79s1.62,1.26,2.58,2.18c-.08,.28-.34,.42-.73,.42h-13.08Zm9.44,9.27v-1.32h-6.22v.98c0,.17-.7,.62-1.76,.62h-.34v-8.09l2.41,.98h5.82l1.06-1.2,2.21,1.68c-.17,.22-.42,.36-1.01,.45v5.35c0,.14-.78,.56-1.79,.56h-.39Zm-7.36,2.27v3.98h3.25v-3.98h-3.25Zm0,8.74h3.25v-3.98h-3.25v3.98Zm7.36-13.13v-3.89h-6.22v3.89h6.22Zm-2.21,4.4v3.98h3.39v-3.98h-3.39Zm3.39,8.74v-3.98h-3.39v3.98h3.39Z"/>
        <path d="M517.6,692.04l1.93,.95c-.17,.28-.45,.42-1.12,.31-.25,.39-.53,.81-.81,1.23v8.62c0,1.62-.31,2.58-3.08,2.86-.08-.64-.22-1.18-.59-1.48-.42-.34-1.09-.62-2.32-.78v-.45s2.72,.22,3.3,.22c.5,0,.64-.2,.64-.62v-5.8c-2.49,2.83-5.8,5.6-9.69,7.45l-.28-.36c3.42-2.21,6.47-5.4,8.68-8.57-1.82,.5-4.09,1.12-6.92,1.82-.14,.36-.45,.56-.73,.62l-.9-2.72c.59-.03,1.4-.06,2.41-.14v-12.26l2.35,.98h.56c.17-1.04,.39-2.6,.5-3.72l3.39,.53c-.08,.42-.42,.67-1.01,.7-.48,.73-1.2,1.74-1.74,2.49h3.08l1.06-1.26,2.46,1.93c-.2,.2-.64,.45-1.2,.53v6.92Zm-7.48-7.31v2.74h5.43v-2.74h-5.43Zm5.43,3.56h-5.43v2.83h5.43v-2.83Zm-5.43,6.78c1.46-.11,3.08-.25,4.79-.39,.22-.34,.45-.7,.64-1.04v-1.74h-5.43v3.16Zm19.63-9.46s1.46,1.32,2.32,2.24c-.08,.31-.36,.45-.73,.45h-3.3v14.64c0,1.74-.36,2.77-3.36,3.08-.11-.73-.28-1.26-.7-1.62-.45-.39-1.18-.67-2.55-.87v-.42s3.08,.22,3.7,.22c.53,0,.67-.17,.67-.59v-14.45h-7.34l-.22-.81h7.56v-6.97l3.25,.36c-.06,.39-.34,.67-1.01,.76v5.85h.39l1.32-1.88Zm-9.74,5.04c5.94,3.53,3.5,8.34,1.48,6.27,.08-2.02-.87-4.48-1.82-6.13l.34-.14Z"/>
        <path d="M364.61,741.22c1.2-.31,2.52-.64,3.86-1.01l.08,.39c-1.88,.92-4.54,2.3-8.04,3.86-.11,.36-.34,.62-.62,.7l-1.09-2.58c.81-.14,2.24-.45,3.92-.9v-8.82h-3.56l-.22-.81h3.78v-4.06h-2.18l-.08-.31c-.56,.62-1.15,1.2-1.74,1.65l-.31-.25c1.79-2.32,3.39-6.22,4.03-8.88l3.22,.42c-.03,.34-.31,.48-1.01,.56l-.03,.06c6.16,2.6,3.58,5.57,2.1,4.23-.42-.95-1.23-2.44-2.3-3.78-.81,1.76-2.07,3.78-3.53,5.49h3.86l1.18-1.51s1.37,1.06,2.21,1.88c-.06,.31-.34,.45-.73,.45h-2.83v4.06h.78l1.18-1.57s1.34,1.12,2.13,1.93c-.08,.31-.34,.45-.7,.45h-3.39v8.34Zm-4.9-7.11c4.06,3.75,2.07,7.36,.59,5.63,.11-1.74-.42-4-.98-5.49l.39-.14Zm5.4,5.57c.36-1.54,.7-3.84,.9-5.8l2.74,.78c-.08,.31-.39,.56-.98,.59-.53,1.57-1.32,3.36-2.16,4.62l-.5-.2Zm19.68-16.94c-.2,.22-.67,.48-1.23,.56v19.85c0,1.62-.31,2.58-3.05,2.86-.08-.64-.22-1.2-.62-1.48-.42-.34-1.09-.59-2.35-.76v-.45s2.83,.2,3.39,.2,.64-.17,.64-.59v-19.99h-10.42v22.23c0,.28-.73,.78-1.6,.78h-.36v-24.84l2.13,.98h9.94l1.04-1.23,2.49,1.88Zm-6.05,17.33h-4.56l-.67,.81-1.88-1.15c.2-.2,.53-.42,.84-.59v-7.11l2.69,.34c-.06,.31-.31,.56-1.18,.7v6.19h1.62v-9.18h-3.78l-.22-.81h6.75l1.09-1.43s1.2,1.01,1.96,1.79c-.08,.31-.34,.45-.73,.45h-3.53v9.18h1.6v-7.17l2.3,.25c-.06,.34-.25,.53-.76,.64v8.4c0,.2-.67,.53-1.23,.53h-.31v-1.85Zm-5.8-16.18c4.31,2.69,2.52,5.94,1.01,4.48-.06-1.4-.76-3.19-1.34-4.34l.34-.14Zm7.92,.81c-.14,.31-.48,.56-1.04,.56-.7,1.2-1.6,2.63-2.38,3.64l-.48-.2c.34-1.26,.81-3.25,1.18-4.93l2.72,.92Z"/>
        <path d="M394.79,723.95c-1.43,2.32-3.19,4.26-5.01,5.6l-.39-.28c1.74-2.16,3.53-5.66,4.59-9.21l3.16,1.06c-.11,.31-.45,.56-1.09,.5-.25,.5-.53,1.01-.78,1.51h4.62l1.23-1.6s1.4,1.12,2.24,1.96c-.08,.31-.34,.45-.73,.45h-7.84Zm5.99,19.38c0,1.54-.31,2.46-2.86,2.69-.08-.59-.2-1.06-.5-1.4-.36-.28-.9-.53-1.96-.67v-.45s2.21,.17,2.72,.17c.45,0,.59-.17,.59-.53v-5.88c-.95,.67-2.13,1.43-3.47,2.27-.08,.31-.31,.56-.59,.64l-.5-1.18c-.36,2.63-1.32,5.32-3.92,7.31l-.36-.31c2.24-3.02,2.44-6.83,2.44-10.56v-7.06l2.41,.98h3.72l1.01-1.23,2.52,1.9c-.2,.2-.67,.45-1.23,.56v12.74Zm-6.38-7.92c0,.73,0,1.48-.06,2.24,1.15-.25,2.77-.64,4.42-1.18v-6.27h-4.37v2.35c4.7-.2,4.54,2.97,2.72,2.58-.59-.59-1.65-1.26-2.72-1.74v2.02Zm1.85-10.78c5.1,1.04,3.33,4.59,1.57,3.25-.14-1.06-1.04-2.32-1.82-3l.25-.25Zm15.88,5.68l2.35,1.93c-.22,.22-.56,.36-1.15,.45-.17,7.7-.59,11.09-1.71,12.24-.73,.73-1.74,1.01-2.88,1.01,0-.64-.08-1.18-.42-1.48-.36-.34-1.2-.59-2.07-.76l.03-.48c.9,.08,2.35,.2,2.88,.2,.45,0,.64-.06,.87-.28,.7-.7,1.01-4.12,1.18-10.75h-3.53v.45c-.06,4.56-.98,10.16-6.8,13.24l-.34-.36c4.34-3.42,4.98-8.57,4.98-12.94v-.39h-3.61l-.25-.81h3.86v-3.53l3.11,.34c-.06,.36-.25,.64-.95,.73v2.46h3.25l1.2-1.26Zm.5-8.88s1.54,1.18,2.49,2.07c-.08,.31-.36,.45-.76,.45h-8.32c-1.26,1.96-2.8,3.64-4.37,4.82l-.39-.28c1.48-1.99,3.02-5.21,3.92-8.46l3.14,1.18c-.11,.31-.42,.53-1.04,.5-.25,.48-.5,.95-.78,1.43h4.76l1.34-1.71Zm-5.1,3.14c5.4,.87,3.78,4.65,1.85,3.3-.2-1.06-1.18-2.35-2.13-3.08l.28-.22Z"/>
        <path d="M422.42,729.97c2.83,.92,4.82,2.21,5.82,3.78,.39,.59,.64,1.34,.56,2.02-.06,.56-.42,1.06-1.09,1.06-.56,0-.92-.39-1.32-1.26-.87-1.76-2.18-3.47-4.28-5.18l.31-.42Z"/>
        <path d="M452.5,720.98c-.06,.34-.42,.48-1.18,.53,2.58,3.3,7.36,5.94,12.04,7.64l-.03,.42c-1.01,.22-1.74,1.06-1.9,1.9-4.48-2.16-8.62-5.68-10.58-9.63-2.69,3.92-8.29,8.37-13.58,10.67l-.22-.39c4.7-2.66,10.3-8.2,11.73-12.07l3.72,.92Zm4.34,14.59l2.58,1.93c-.2,.25-.64,.48-1.23,.62v7.11c-.03,.17-1.15,.62-1.9,.62h-.36v-1.71h-11.51v1.12c0,.22-.98,.73-1.9,.73h-.31v-10.14l2.38,1.01h6.69c1.09-1.29,2.32-3.19,3-4.82h-11.84l-.25-.84h12.32l1.37-1.15,2.1,1.76c-.2,.25-.48,.31-1.06,.34-1.01,1.62-2.69,3.42-4.62,4.7h3.36l1.2-1.29Zm-.92,7.73v-5.63h-11.51v5.63h11.51Zm-3.19-16.91s1.48,1.06,2.44,1.9c-.08,.31-.36,.45-.7,.45h-8.76l-.22-.81h5.94l1.32-1.54Z"/>
        <path d="M468.09,726.89c6.13,.59,4.62,4.93,2.38,3.58-.36-1.2-1.6-2.58-2.63-3.36l.25-.22Zm7.67-1.65c-1.06,3.5-3.05,9.94-3.42,11.34-.2,.87-.39,1.79-.36,2.52,0,1.29,.9,2.52,.81,4.87-.06,1.23-.7,2.04-1.74,2.04-.56,0-.95-.48-1.09-1.4,.45-2.86,.28-5.21-.34-5.63-.36-.28-.78-.36-1.37-.42v-.59h1.23c.36,0,.45-.03,.73-.59q.5-1.01,5.04-12.26l.5,.11Zm-5.8-4.84c6.5,.84,4.93,5.35,2.66,3.92-.42-1.34-1.76-2.8-2.91-3.67l.25-.25Zm22.26,11.82s1.37,1.29,2.16,2.18c-.08,.31-.34,.45-.73,.45h-3.05c-.11,2.35-.28,4.23-.5,5.71h.31l1.15-1.65s1.32,1.18,2.1,2.02c-.08,.31-.34,.45-.73,.45h-2.94c-.31,1.79-.7,2.91-1.26,3.47-.78,.9-1.88,1.18-3.11,1.2,0-.62-.08-1.12-.45-1.43-.36-.34-1.23-.62-2.18-.78l.03-.48c.98,.11,2.52,.22,3.08,.22,.5,0,.76-.08,1.01-.36,.25-.28,.5-.87,.73-1.85h-9.27l-.98,1.09-2.27-1.57c.28-.2,.67-.42,1.06-.59,.31-1.43,.62-3.39,.92-5.46h-3.22l-.2-.84h3.56c.34-2.35,.64-4.76,.81-6.66-1.01,1.32-2.1,2.52-3.33,3.47l-.34-.28c2.07-2.46,3.81-6.78,4.59-10.33l3.33,1.04c-.11,.31-.36,.42-1.01,.34-.31,.78-.7,1.57-1.12,2.38h9.46l1.43-1.82s1.6,1.26,2.58,2.18c-.08,.31-.36,.45-.76,.45h-13.16c-.36,.62-.73,1.23-1.12,1.79l2.16,1.06h7.5l1.23-1.34,2.3,1.99c-.2,.25-.56,.39-1.18,.48-.06,1.96-.11,3.72-.17,5.26h.39l1.18-1.79Zm-4.26,8.34c.22-1.37,.42-3.28,.53-5.71h-9.1c-.31,2.04-.62,4.09-.92,5.71h9.49Zm-7.67-12.12c-.2,1.54-.45,3.56-.76,5.57h9.02c.08-1.62,.14-3.5,.2-5.57h-8.46Zm1.48,7c5.4,1.74,3.81,5.26,2.04,3.98-.28-1.26-1.43-2.86-2.32-3.81l.28-.17Zm.5-6.13c5.24,1.57,3.81,4.9,2.07,3.7-.34-1.12-1.46-2.63-2.38-3.47l.31-.22Z"/>
        <path d="M508.72,743.07c-.03,.14-1.01,.59-1.71,.59h-.31v-1.88h-3.58v2.46c0,.17-.64,.67-1.62,.67h-.34v-10.5c-.67,1.18-1.43,2.27-2.27,3.3l-.42-.31c2.13-3.78,3.47-8.85,4.2-13.61h-3.75l-.22-.84h8.43l1.37-1.71s1.6,1.2,2.55,2.1c-.08,.31-.36,.45-.73,.45h-5.38c-.45,2.58-1.15,5.01-2.13,7.25l.67,.28h2.94l1.09-1.18,2.35,1.82c-.17,.22-.62,.45-1.15,.56v10.53Zm-2.02-2.1v-8.79h-3.58v8.79h3.58Zm.36,4.82c6.41-2.38,10.89-5.68,13.94-13.24l3.16,1.34c-.14,.36-.45,.45-1.18,.39-3.67,7.28-8.54,10.22-15.76,11.98l-.17-.48Zm2.21-10.47c1.23-2.66,2.3-6.64,2.77-10.42l3.22,.7c-.11,.36-.42,.62-1.04,.64-.98,3.67-2.55,7.06-4.51,9.32l-.45-.25Zm8.74,.39c0,.36-1.04,1.01-1.82,1.01h-.31v-16.49l3.16,.31c-.08,.39-.31,.67-1.04,.78v14.39Zm1.15-10.75c7.64,3.95,5.71,9.32,3.33,7.36-.31-2.35-2.16-5.26-3.67-7.17l.34-.2Z"/>
        <path d="M404.17,779.85c2.38,2.46,5.49,2.97,10.89,2.97,3.11,0,5.6,0,8.76-.17v.36c-1.04,.2-1.6,1.06-1.74,2.1h-7.84c-5.49,0-8.01-1.04-10.5-4.4-.39-.5-.67-.42-.98,0-.59,.9-2.02,2.86-2.91,4.28,.11,.25,0,.48-.2,.64l-1.9-2.66c1.76-1.15,4.68-3.56,5.35-3.56h.2c5.35-2.88,10.98-7.36,14.03-11.65h-17.81l-.25-.84h18.31l1.57-1.37,2.32,2.18c-.22,.28-.53,.36-1.29,.39-3.53,4.51-9.44,8.9-16.16,11.59l.14,.11Zm2.74-19.63c7.22,2.21,5.38,7.36,2.97,5.63-.31-1.85-1.88-4.06-3.25-5.4l.28-.22Z"/>
        <path d="M438.72,783.07c-.03,.14-1.01,.59-1.71,.59h-.31v-1.88h-3.58v2.46c0,.17-.64,.67-1.62,.67h-.34v-10.5c-.67,1.18-1.43,2.27-2.27,3.3l-.42-.31c2.13-3.78,3.47-8.85,4.2-13.61h-3.75l-.22-.84h8.43l1.37-1.71s1.6,1.2,2.55,2.1c-.08,.31-.36,.45-.73,.45h-5.38c-.45,2.58-1.15,5.01-2.13,7.25l.67,.28h2.94l1.09-1.18,2.35,1.82c-.17,.22-.62,.45-1.15,.56v10.53Zm-2.02-2.1v-8.79h-3.58v8.79h3.58Zm.36,4.82c6.41-2.38,10.89-5.68,13.94-13.24l3.16,1.34c-.14,.36-.45,.45-1.18,.39-3.67,7.28-8.54,10.22-15.76,11.98l-.17-.48Zm2.21-10.47c1.23-2.66,2.3-6.64,2.77-10.42l3.22,.7c-.11,.36-.42,.62-1.04,.64-.98,3.67-2.55,7.06-4.51,9.32l-.45-.25Zm8.74,.39c0,.36-1.04,1.01-1.82,1.01h-.31v-16.49l3.16,.31c-.08,.39-.31,.67-1.04,.78v14.39Zm1.15-10.75c7.64,3.95,5.71,9.32,3.33,7.36-.31-2.35-2.16-5.26-3.67-7.17l.34-.2Z"/>
        <path d="M482.49,781.75s1.85,1.4,2.94,2.41c-.08,.31-.36,.45-.76,.45h-24.84l-.25-.84h11.68v-12.91h-9.77l-.22-.81h10v-9.83l3.36,.34c-.08,.42-.31,.7-1.01,.81v8.68h5.77l1.57-1.96s1.79,1.34,2.91,2.32c-.08,.31-.36,.45-.78,.45h-9.46v12.91h7.28l1.6-2.02Z"/>
      </g>
      <ellipse class="cls-4" cx="124.19" cy="976.5" rx="122.69" ry="123"/>
      <g>
        <path d="M57.45,985.7c-.2,.25-.45,.34-1.06,.39-.45,3-1.12,5.85-2.63,8.37,3,2.16,7.22,2.6,13.19,2.6,1.54,0,5.01,0,6.83-.03v.36c-.95,.17-1.43,.92-1.48,1.82h-5.54c-6.38,0-10.75-.7-13.78-3.58-1.2,1.68-2.86,3.14-5.1,4.31l-.25-.39c1.96-1.4,3.33-3.14,4.34-5.07-1.32-1.62-2.3-3.75-3.14-6.61l.42-.2c.84,2.49,1.9,4.31,3.25,5.68,.95-2.3,1.48-4.9,1.74-7.56h-2.72l-.84,.78-1.99-1.51c.25-.17,.64-.36,1.04-.5,1.01-1.85,2.49-4.9,3.3-6.89h-4.93l-.25-.81h5.18l1.15-1.18,2.32,2.1c-.25,.25-.78,.39-1.37,.45-.81,1.76-2.3,4.76-3.36,6.75h2.3l1.2-1.26,2.18,1.96Zm14.56-6.55s1.37,1.23,2.16,2.1c-.08,.31-.34,.45-.73,.45h-3.08v4c-.03,.2-1.06,.64-1.76,.64h-.34v-.92h-3.61v2.88h3.5l1.29-1.68s1.51,1.18,2.41,2.04c-.08,.31-.34,.45-.73,.45h-6.47v2.94h4.59l1.43-1.82s1.65,1.26,2.69,2.18c-.08,.31-.39,.45-.78,.45h-7.92v2.91c0,.25-.92,.67-1.74,.67h-.42v-3.58h-6.58l-.22-.81h6.8v-2.94h-5.1l-.22-.81h5.32v-2.88h-4.73l-.25-.81h4.98v-2.91h-6.97l-.22-.81h7.2v-2.86h-4.82l-.25-.84h5.07v-3l3.14,.34c-.06,.39-.25,.67-.98,.78v1.88h3.33l1.12-1.18,2.44,1.82c-.2,.22-.62,.45-1.18,.56v2.49h.48l1.18-1.74Zm-7.36,1.74h3.61v-2.86h-3.61v2.86Zm3.61,.81h-3.61v2.91h3.61v-2.91Z"/>
        <path d="M84.33,977.39c-1.57,1.88-3.5,3.3-5.4,4.23l-.34-.36c1.93-1.57,3.92-4.23,5.1-7.28l3.02,1.29c-.14,.31-.48,.5-1.09,.39-.2,.31-.39,.62-.62,.9h4.12l1.2-1.51s1.34,1.09,2.16,1.9c-.06,.31-.34,.45-.73,.45h-7.42Zm-5.35,21.76c2.83-1.48,5.74-3.98,7.17-5.94l2.74,1.68c-.17,.25-.42,.36-1.06,.22-1.85,1.65-5.24,3.47-8.6,4.4l-.25-.36Zm6.58-16.3v4.7c1.34-.22,2.86-.45,4.34-.7l.06,.45c-1.99,.73-4.79,1.68-8.68,2.88-.11,.34-.36,.56-.64,.64l-1.18-2.41c.9-.08,2.32-.28,4.03-.53v-5.04h-3.25l-.22-.81h6.44l1.12-1.43c-.22,0-.48-.06-.73-.2-.2-.87-1.04-1.85-1.79-2.35l.25-.22c3.78,.11,3.61,2.44,2.44,2.72,.34,.28,1.43,1.18,2.18,1.85-.08,.31-.36,.45-.76,.45h-3.61Zm15.82,7.03s1.71,1.34,2.77,2.3c-.08,.31-.36,.45-.76,.45h-10.64v6.66c0,.2-1.01,.64-1.9,.64h-.42v-7.31h-10.64l-.22-.81h10.86v-2.27l3.36,.36c-.06,.36-.31,.64-1.04,.76v1.15h7.11l1.51-1.93Zm2.13-2.35c.53,.22,.64,.42,.64,.78,0,.73-.7,1.15-2.77,1.15h-1.09c-1.46,0-1.65-.48-1.65-1.62v-5.15h-3.72v.87c0,.59-.08,1.26-.34,1.96,3.16,1.29,2.86,3.42,1.29,3.08-.5-.5-1.26-1.09-2.1-1.65-.92,1.12-2.58,2.18-5.54,2.97l-.25-.42c2.46-1.01,3.7-2.21,4.34-3.39-.81-.48-1.65-.87-2.41-1.15l.22-.39c1.01,.06,1.85,.2,2.6,.36,.11-.48,.17-.92,.17-1.37v-.87h-2.21l-.25-.84h7.95l1.04-1.04,1.96,1.71c-.17,.2-.45,.34-.92,.42v4.42c0,.28,.06,.34,.39,.34h1.29c.14,0,.22-.03,.34-.2,.14-.25,.39-1.2,.62-2.1h.34l.08,2.13Zm-1.37-12.63s1.51,1.15,2.46,2.02c-.08,.31-.36,.45-.76,.45h-8.76c-1.12,1.48-2.49,2.74-3.86,3.58l-.36-.28c1.29-1.57,2.6-4.09,3.42-6.66l3,1.2c-.11,.31-.48,.53-1.06,.45-.17,.31-.36,.62-.56,.9h5.21l1.29-1.65Zm-7.42,18.82c9.97,1.18,9.77,6.41,7,5.57-1.46-1.76-4.79-4.09-7.22-5.26l.22-.31Zm1.62-15.85c4.65,.31,3.11,3.64,1.34,2.46-.17-.81-.92-1.74-1.6-2.21l.25-.25Z"/>
        <path d="M120.19,985.25c-.2,.22-.53,.36-1.12,.45-.2,8.62-.76,11.9-1.85,13.05-.73,.76-1.65,1.04-2.69,1.04,0-.62-.06-1.15-.36-1.43-.28-.31-.87-.53-1.57-.64l.03-.48c.7,.06,1.76,.14,2.24,.14,.45,0,.67-.06,.9-.31,.7-.73,1.12-4.06,1.32-11.65h-2.69c-.48,5.26-1.65,10.36-4.45,14.39l-.39-.25c2.38-5.63,3.05-12.8,2.88-19.32h-2.66l-.22-.81h7.31l1.29-1.79s1.51,1.26,2.41,2.16c-.08,.31-.34,.45-.73,.45h-5.15c-.03,1.43-.08,2.91-.2,4.37h2.32l1.18-1.2,2.21,1.85Zm-7.67-11c5.6,1.88,3.67,5.96,1.76,4.37-.11-1.43-1.15-3.16-2.07-4.17l.31-.2Zm6.78,9.35c1.43-2.3,2.74-5.85,3.42-9.38l3.3,.9c-.11,.34-.45,.59-1.06,.56-.42,1.18-.92,2.24-1.48,3.28h7.95l1.43-1.88s1.68,1.32,2.72,2.24c-.08,.31-.36,.45-.76,.45h-11.79c-.95,1.62-2.07,3.05-3.3,4.12l-.42-.28Zm15.15,13.36c.78,.25,1.01,.5,1.01,.9,0,1.01-1.15,1.37-6.58,1.37h-3.75c-2.69,0-3.42-.48-3.42-2.3v-8.01l-1.54,.59-.56-.64,2.1-.84v-5.07l2.97,.31c-.06,.36-.31,.64-.92,.73v3.22l2.97-1.15v-5.4l3,.34c-.08,.39-.31,.67-1.04,.76v3.5l3.25-1.29,1.15-1.2,2.07,2.18c-.2,.2-.53,.28-1.09,.31-.59,2.63-1.74,6.33-3.11,8.85l-.36-.22c.62-2.6,1.15-6.38,1.37-9.04l-3.28,1.32v8.85c0,.22-.84,.64-1.57,.64h-.39v-8.74l-2.97,1.18v8.37c0,.64,.22,.84,1.62,.84h3.61c1.6,0,2.86-.03,3.36-.08,.34-.03,.53-.11,.7-.34,.25-.42,.62-1.71,.98-3.22h.36l.06,3.3Z"/>
        <path d="M163.26,994.83s1.88,1.4,2.97,2.41c-.08,.31-.36,.45-.73,.45h-24.89l-.25-.81h11.62v-17.64h-9.49l-.22-.81h17.61l1.6-2.02s1.82,1.37,2.94,2.38c-.08,.31-.36,.45-.78,.45h-9.21v17.64h7.25l1.6-2.04Z"/>
        <path d="M175.97,993.26c.7,3.44-.87,5.66-2.24,6.41-.92,.5-2.07,.48-2.38-.34-.25-.67,.2-1.32,.87-1.71,1.43-.59,3.05-2.24,3.3-4.37h.45Zm3.25-1.23v-2.04h-4.03v2.46c0,.25-.81,.76-1.74,.76h-.36v-17.98l2.24,1.01h3.61l1.12-1.26,2.46,1.88c-.2,.22-.62,.48-1.2,.59v13.92c-.03,.2-1.04,.67-1.76,.67h-.34Zm-4.03-14.98v5.54h4.03v-5.54h-4.03Zm4.03,12.1v-5.74h-4.03v5.74h4.03Zm.45,4.31c4.98,3.5,2.46,7.76,.59,5.68,.17-1.82-.36-4.03-.95-5.6l.36-.08Zm17.11-17.02c-.2,.22-.48,.36-1.04,.39-.2,3.42-.67,5.4-1.68,6.13-.64,.45-1.6,.7-2.66,.7,0-.59-.11-1.12-.45-1.37-.36-.34-1.34-.56-2.27-.73v-.45c.95,.08,2.66,.22,3.19,.22,.48,0,.67-.06,.87-.22,.45-.36,.76-1.96,.92-4.51h-4.23c-.42,2.86-1.76,5.8-7.11,7.92l-.36-.42c4.09-2.35,4.84-5.04,5.07-7.5h-4.09l-.25-.84h10.75l1.09-1.15,2.24,1.82Zm-10.56,15.62c0,.2-.9,.67-1.79,.67h-.34v-8.79l2.27,.98h5.94l1.15-1.23,2.46,1.85c-.2,.2-.62,.42-1.15,.53v5.91c-.03,.17-1.12,.62-1.82,.62h-.36v-1.34h-6.36v.81Zm-1.32,1.43c6.44,2.77,4.51,7.48,2.3,5.71-.25-1.82-1.51-4.09-2.6-5.52l.31-.2Zm1.32-7.78v4.73h6.36v-4.73h-6.36Zm4.42,7.45c8.01,2.83,6.33,8.26,3.78,6.52-.5-2.13-2.46-4.7-4.06-6.3l.28-.22Z"/>
        <path d="M42.16,1028.03c-.2,.25-.48,.31-1.06,.36-.64,1.99-1.85,4.14-3.56,5.85,.2,.06,.36,.14,.56,.34,2.35,2.27,5.54,2.66,11.14,2.63,3.22,0,5.94,0,9.27-.17v.36c-.95,.2-1.46,.92-1.6,1.82h-8.4c-5.71,0-8.32-.9-10.78-3.81-.36-.45-.67-.39-.9,0-.59,.81-1.68,2.44-2.41,3.67,.11,.22,.03,.42-.17,.59l-1.74-2.3c1.09-.73,2.69-2.04,3.7-2.74,1.26-1.79,2.18-4.26,2.58-6.41h-2.66l-.84,.76-1.88-1.6c.28-.17,.7-.34,1.12-.45,.98-1.37,2.27-3.33,3.11-4.76h-4.59l-.25-.81h4.96l1.12-1.18,2.38,2.1c-.28,.31-.9,.42-1.62,.42-.81,1.29-2.1,3.28-3.14,4.7h2.21l1.26-1.23,2.18,1.85Zm-8.01-13.52c6.58,1.26,4.93,5.88,2.66,4.45-.36-1.48-1.74-3.22-2.94-4.26l.28-.2Zm10.95,20.69c0,.28-.87,.78-1.85,.78h-.36v-19.04l2.35,1.04h1.4c.22-1.09,.5-2.66,.7-3.75l3.61,.56c-.08,.45-.48,.67-1.09,.7-.48,.73-1.23,1.71-1.85,2.49h4.42l1.18-1.26,2.52,1.9c-.2,.22-.64,.45-1.2,.56v5.32c-.03,.17-1.12,.62-1.85,.62h-.36v-1.2h-7.62v3.56h8.26l1.18-1.23,2.52,1.9c-.2,.22-.64,.45-1.2,.56v6.19c-.03,.17-1.12,.62-1.85,.62h-.36v-1.43h-8.54v1.12Zm0-16.41v4.31h7.62v-4.31h-7.62Zm0,9.52v4.93h8.54v-4.93h-8.54Z"/>
        <path d="M77.19,1024.72c-.08,.25-.36,.42-.84,.48v14.14c-.03,.14-.84,.62-1.54,.62h-.36v-13.55c-.62,.73-1.26,1.34-1.93,1.9,.28,.28,.56,.59,.81,.84-.08,.31-.34,.45-.73,.45h-3.05v5.6c1.23-.34,2.55-.7,3.86-1.09l.11,.39c-2.02,1.06-4.87,2.55-8.76,4.34-.11,.34-.34,.62-.64,.7l-1.09-2.63c.36-.08,.84-.2,1.43-.34v-9.83l2.52,.25c-.06,.34-.28,.53-.81,.62v8.51l1.51-.39v-11.96h-1.2v.73c0,.17-.62,.64-1.62,.64h-.31v-9.94l2.24,.95h3.16l1.04-1.09,2.24,1.71c-.17,.17-.59,.39-1.09,.48v7c-.03,.2-.98,.62-1.6,.62h-.31v-1.09h-.67v5.01h.48l1.2-1.74s.42,.39,.95,.9c1.48-2.04,3.08-5.26,4.09-8.48l2.8,1.04c-.11,.34-.45,.56-1.06,.5-.56,1.15-1.2,2.27-1.9,3.28l1.09,.45Zm-10.72-1.76h3.75v-5.99h-3.75v5.99Zm6.02-1.6c1.29-1.65,2.69-4.28,3.61-6.92l2.86,1.18c-.14,.31-.5,.53-1.06,.45-1.37,2.27-3.19,4.28-5.01,5.6l-.39-.31Zm12.18,15.82c.45,.06,.9,.08,1.4,.08,.81,0,2.63,0,3.58-.03v.39c-.59,.11-.9,.78-.9,1.6h-2.83c-2.94,0-4.87-.98-5.99-4.56-.62,2.18-1.51,4-2.83,5.4l-.42-.31c1.6-3.3,2.27-7.39,2.13-12.1l3.02,.39c-.08,.39-.36,.67-.98,.73-.14,1.71-.34,3.3-.64,4.76,.64,1.62,1.46,2.58,2.55,3.11v-11.76l2.77,.25c-.06,.34-.28,.59-.87,.67v4.65h1.4l1.18-1.6s1.34,1.15,2.13,1.93c-.06,.31-.34,.45-.7,.45h-4v5.94Zm-7.11-11.62c1.57-2.74,2.58-6.64,2.86-10.86l2.91,.5c-.08,.39-.36,.64-.98,.7-.2,1.15-.45,2.24-.76,3.28,3.47,1.43,1.82,4.2,.42,2.97,.03-.73-.28-1.54-.67-2.21-.81,2.41-1.9,4.42-3.36,5.91l-.42-.28Zm4.09-.67c2.21-2.38,3.56-5.71,3.75-10.19l2.97,.48c-.08,.39-.36,.64-1.01,.7-.22,1.29-.5,2.46-.9,3.53,4.28,2.55,2.69,5.77,1.09,4.42-.11-1.12-.73-2.46-1.43-3.56-.92,2.18-2.27,3.81-4.09,4.93l-.39-.31Z"/>
        <path d="M117.06,1034.83s1.88,1.4,2.97,2.41c-.08,.31-.36,.45-.73,.45h-24.89l-.25-.81h11.62v-17.64h-9.49l-.22-.81h17.61l1.6-2.02s1.82,1.37,2.94,2.38c-.08,.31-.36,.45-.78,.45h-9.21v17.64h7.25l1.6-2.04Z"/>
        <path d="M131.56,1025c5.66,2.18,3.84,5.96,1.93,4.45-.22-1.2-1.09-2.63-1.93-3.72v13.55c-.03,.17-.73,.7-1.82,.7h-.39v-11.37c-1.15,2.1-2.63,3.98-4.4,5.63l-.36-.36c2.13-2.91,3.58-6.78,4.42-10.58h-3.89l-.22-.81h4.45v-4.68c-1.43,.31-2.94,.56-4.37,.73l-.14-.42c2.94-.92,6.41-2.66,8.18-3.92l2.72,2.24c-.28,.25-.78,.31-1.54,.08-.73,.25-1.65,.53-2.63,.78v5.18h.84l1.26-1.68s1.4,1.23,2.27,2.04c-.06,.31-.34,.45-.73,.45h-3.64v1.71Zm17.16,11.42s1.6,1.29,2.58,2.21c-.08,.31-.34,.42-.73,.42h-16.63l-.22-.81h7.67v-4.9h-5.77l-.22-.84h5.99v-3.86c-1.85,.22-3.78,.42-5.6,.53l-.11-.45c3.81-.81,8.62-2.38,11.06-3.58l2.55,2.41c-.28,.25-.84,.25-1.57-.03-1.15,.25-2.58,.53-4.09,.78v4.2h2.69l1.37-1.76s1.57,1.23,2.55,2.16c-.06,.31-.36,.45-.76,.45h-5.85v4.9h3.7l1.4-1.82Zm-10.05-11.84c0,.22-.95,.67-1.85,.67h-.31v-10l2.3,.98h7.42l1.12-1.23,2.44,1.82c-.17,.22-.59,.45-1.12,.56v6.83c-.03,.17-1.12,.7-1.85,.7h-.34v-1.2h-7.81v.87Zm0-7.56v5.85h7.81v-5.85h-7.81Z"/>
        <path d="M165.25,1028.03c-.22,.25-.5,.31-1.06,.36-.64,1.99-1.85,4.14-3.56,5.85,.2,.06,.34,.14,.56,.34,2.35,2.3,5.52,2.69,11.09,2.66,3.28,0,5.99,0,9.32-.17v.36c-.95,.2-1.48,.92-1.62,1.82h-8.4c-5.68,0-8.29-.9-10.78-3.84-.36-.45-.64-.39-.9,0-.5,.84-1.6,2.46-2.3,3.67,.08,.25,.03,.45-.17,.62l-1.74-2.27c1.06-.73,2.6-2.07,3.64-2.77,1.2-1.79,2.16-4.28,2.58-6.44h-2.6l-.87,.76-1.85-1.57c.25-.17,.7-.34,1.09-.48,.95-1.32,2.21-3.33,3.02-4.76h-4.45l-.25-.81h4.84l1.18-1.18,2.32,2.1c-.28,.31-.92,.45-1.65,.45-.76,1.26-2.07,3.28-3.05,4.68h2.13l1.26-1.23,2.21,1.85Zm-7.9-13.52c6.58,1.23,4.93,5.88,2.66,4.42-.36-1.46-1.74-3.22-2.94-4.23l.28-.2Zm5.63,10.56c1.71-2.66,3.5-6.86,4.54-10.92l3.33,1.09c-.11,.31-.48,.56-1.06,.53-.48,1.18-1.04,2.3-1.62,3.33l.06,.03h8.68l1.37-1.71s1.6,1.18,2.58,2.07c-.08,.31-.34,.45-.73,.45h-6.02v3.84h2.41l1.34-1.71s1.51,1.2,2.46,2.07c-.06,.31-.36,.45-.73,.45h-5.49v3.84h2.41l1.34-1.68s1.51,1.18,2.46,2.04c-.06,.31-.36,.45-.73,.45h-5.49v4.09h3.19l1.43-1.82s1.65,1.26,2.63,2.18c-.06,.31-.34,.45-.73,.45h-12.74v1.04c0,.17-.73,.73-1.82,.73h-.39v-13.08c-.76,.92-1.48,1.76-2.3,2.49l-.39-.25Zm4.9-5.12v3.84h4.06v-3.84h-4.06Zm4.06,4.65h-4.06v3.84h4.06v-3.84Zm0,4.65h-4.06v4.09h4.06v-4.09Zm-.62-15.18c5.43,2.27,3.33,6.36,1.43,4.65-.03-1.51-.9-3.33-1.71-4.48l.28-.17Z"/>
        <path d="M191.48,1024.97c0,4.73-.28,10.89-4.7,15.12l-.42-.28c2.66-4.37,2.88-9.8,2.88-14.81v-8.15l2.63,1.04h16.27l1.48-1.9s1.68,1.32,2.69,2.27c-.08,.31-.36,.45-.76,.45h-20.08v6.27Zm17.3,5.91c-.22,.28-.53,.36-1.26,.36-1.2,1.76-2.74,3.28-4.62,4.48,2.77,1.04,6.08,1.6,9.72,1.85l-.03,.34c-.98,.22-1.62,.98-1.85,2.04-3.89-.59-7.14-1.51-9.77-3.14-3.11,1.62-6.92,2.63-11.45,3.16l-.17-.45c3.95-.78,7.45-2.02,10.25-3.7-1.62-1.26-2.88-2.91-3.86-4.96h-2.13l-.25-.84h11.7l1.51-1.26,2.21,2.1Zm-5.01-2.1v-1.18h-5.6v.95c0,.2-.95,.59-1.74,.59h-.42v-5.77h-3.78l-.22-.84h4v-3.08l3.14,.34c-.06,.36-.28,.62-.98,.73v2.02h5.6v-3.08l3.16,.34c-.06,.36-.31,.62-1.01,.73v2.02h2.02l1.29-1.79s1.51,1.26,2.38,2.18c-.08,.31-.36,.45-.76,.45h-4.93v4.79c0,.2-.95,.62-1.74,.62h-.42Zm-7.34,2.1c1.09,1.71,2.69,3.02,4.59,4.03,1.62-1.18,2.94-2.52,3.89-4.03h-8.48Zm1.43-17c6.22,.64,4.56,5.01,2.27,3.67-.39-1.18-1.57-2.63-2.52-3.47l.25-.2Zm5.91,12.91v-3.42h-5.6v3.42h5.6Z"/>
      </g>
      <g class="cls-18">
        <path class="cls-25" d="M113.94,919.81c.31,2.8,.63,5.5,.91,8.2,.12,1.2,.24,2.41,.4,3.61,.1,.96,.85,1.6,1.71,1.48,.94-.13,1.48-.93,1.36-1.92-.3-2.54-.58-5.1-.85-7.65-.21-1.87-.4-3.75-.63-5.62-.16-1.24,.7-2.25,1.95-2.25h8.64c1.07,0,1.89,.88,1.79,1.95-.17,1.86-.4,3.71-.6,5.57-.24,2.2-.47,4.39-.71,6.58-.07,.49-.1,.98-.17,1.46-.14,.97,.42,1.75,1.33,1.89,.21,.03,.42,.02,.63-.04,.21-.06,.4-.16,.56-.29,.16-.14,.3-.3,.4-.49,.09-.19,.14-.4,.16-.61,.23-1.86,.4-3.71,.61-5.57,.23-2.06,.45-4.12,.7-6.27,2.82,1.75,5.18,4.2,6.82,7.12,2.41,4.23,3.05,8.97,2.72,12.27h-37.24c-.28-3.67,.38-7.34,1.94-10.67,1.62-3.61,4.27-6.65,7.62-8.73Z"/>
        <path class="cls-25" d="M122.99,948.27h-20.11c-.61-.35-1.19-.56-1.64-.96-.47-.4-.76-.95-.83-1.56-.07-.61,.09-1.22,.43-1.71,.36-.49,.89-.84,1.46-.97,.2-.04,.4-.06,.6-.23h40.23c.33,.18,.63,.25,.94,.37,.29,.12,.54,.31,.78,.53,.22,.23,.4,.5,.52,.8,.11,.3,.18,.62,.16,.94,0,.32-.05,.64-.18,.93-.13,.3-.31,.56-.52,.79-.23,.23-.51,.41-.8,.53-.29,.12-.61,.18-.92,.55h-20.11Z"/>
      </g>
      <g>
        <path d="M362.08,989.45c0,8.64-3.62,11.74-7.3,11.74s-7.36-3.1-7.36-11.74,3.58-11.81,7.36-11.81,7.3,3.2,7.3,11.81Zm-7.3,10.4c2.14,0,4.16-2.18,4.16-10.4s-2.02-10.43-4.16-10.43-4.26,2.18-4.26,10.43,2.02,10.4,4.26,10.4Z"/>
        <path d="M382.66,995.24c0,3.55-3.04,5.95-7.17,5.95s-7.2-1.95-7.2-5.57c0-2.59,1.79-4.38,5.09-5.98-3.04-1.63-4.35-3.74-4.35-6.18,0-3.62,2.91-5.82,6.56-5.82s6.02,2.24,6.02,5.38c0,1.73-.99,3.78-4.22,5.57,3.58,1.76,5.28,3.58,5.28,6.66Zm-2.82,.35c0-2.08-1.31-3.46-5.38-5.41-2.27,1.44-3.39,2.72-3.39,5.09,0,2.78,1.82,4.61,4.51,4.61s4.26-1.79,4.26-4.29Zm-3.52-7.52c2.02-1.57,2.78-2.98,2.78-4.96,0-2.27-1.31-4.1-3.58-4.1-2.05,0-3.84,1.41-3.84,3.68,0,1.89,.96,3.62,4.64,5.38Z"/>
        <path d="M403.62,989.45c0,8.64-3.62,11.74-7.3,11.74s-7.36-3.1-7.36-11.74,3.58-11.81,7.36-11.81,7.3,3.2,7.3,11.81Zm-7.3,10.4c2.14,0,4.16-2.18,4.16-10.4s-2.02-10.43-4.16-10.43-4.26,2.18-4.26,10.43,2.02,10.4,4.26,10.4Z"/>
        <path d="M424.38,989.45c0,8.64-3.62,11.74-7.3,11.74s-7.36-3.1-7.36-11.74,3.58-11.81,7.36-11.81,7.3,3.2,7.3,11.81Zm-7.3,10.4c2.14,0,4.16-2.18,4.16-10.4s-2.02-10.43-4.16-10.43-4.26,2.18-4.26,10.43,2.02,10.4,4.26,10.4Z"/>
        <path d="M458.91,1000.04c.8,.29,.99,.58,.99,1.09,0,1.12-1.09,1.6-6.37,1.6h-3.52c-2.78,0-3.39-.58-3.39-2.43v-9.31h-1.12c-1.79,6.18-5.92,10.18-15.01,12.45l-.19-.45c7.36-2.78,10.88-6.62,12.48-12h-5.54v1.18c0,.19-.8,.96-2.08,.96h-.45v-9.34c-1.44,1.18-2.98,2.27-4.54,3.14l-.32-.35c3.9-3.04,7.9-8.35,9.82-12.93l3.55,1.6c-.19,.29-.45,.38-1.25,.19-.35,.58-.74,1.12-1.15,1.73h7.78l1.5-1.47,2.66,2.37c-.26,.22-.64,.32-1.31,.35-1.31,1.22-3.3,3.01-5.22,4.16h6.62l1.34-1.44,2.88,2.18c-.19,.26-.7,.54-1.34,.67v7.71c-.03,.22-1.28,.77-2.14,.77h-.42v-1.47h-4.03v8.74c0,.51,.13,.64,1.31,.64h3.23c1.31,0,2.43,0,2.91-.06,.42-.03,.51-.13,.67-.42,.29-.54,.7-2.24,1.12-4.19h.42l.1,4.35Zm-18.75-21.95c-1.06,1.34-2.27,2.75-3.62,4.03l1.12,.45h7.62c1.15-1.25,2.4-3.1,3.2-4.48h-8.32Zm2.82,11.97c.51-1.95,.77-4.16,.86-6.56h-6.59v6.56h5.73Zm3.68-6.56c-.16,2.4-.45,4.61-.93,6.56h7.46v-6.56h-6.53Z"/>
        <path d="M476.26,975.02c-.13,.38-.51,.67-1.22,.64-.93,2.53-2.05,4.93-3.3,7.07l1.47,.54c-.1,.29-.38,.51-.93,.61v18.62c-.06,.22-1.12,.83-2.14,.83h-.45v-17.44c-1.25,1.76-2.59,3.3-4.03,4.61l-.45-.32c2.82-3.9,5.66-10.14,7.2-16.38l3.84,1.22Zm16.19,4.96s1.82,1.5,2.88,2.59c-.1,.35-.42,.51-.83,.51h-4.9v16.45c0,2.05-.48,3.33-4.51,3.74-.13-.9-.38-1.5-.99-1.95-.7-.45-1.79-.8-3.81-1.09v-.48s4.77,.32,5.7,.32c.77,0,.96-.22,.96-.8v-16.19h-12.45l-.26-.93h12.7v-7.94l3.84,.42c-.1,.48-.38,.77-1.18,.86v6.66h1.28l1.57-2.18Zm-15.87,6.27c8.51,4.06,6.46,9.79,3.81,7.74-.51-2.43-2.53-5.54-4.16-7.55l.35-.19Z"/>
        <path d="M530.17,983.24c-.19,.26-.54,.38-1.12,.48-.16,1.44-.42,2.21-1.28,2.66-.64,.35-1.5,.45-2.53,.45l1.18,.9c-.19,.22-.64,.48-1.22,.58v9.44c-.03,.19-1.28,.74-2.14,.74h-.42v-.9h-14.24v.58c0,.22-1.09,.8-2.11,.8h-.42v-11.52c-1.34,.54-2.88,1.02-4.7,1.41l-.19-.48c4.16-1.28,6.62-3.01,8.06-4.9h-3.71l-1.06,1.09-2.4-1.73c.32-.22,.77-.45,1.22-.64,.22-1.12,.48-2.69,.54-3.65l2.78,.83h4.32c.13-.7,.16-1.34,.16-2.05h-8l-.29-.96h8.29v-2.59l3.52,.35c-.06,.38-.32,.7-1.09,.8v1.44h4.06v-2.56l3.65,.35c-.06,.45-.35,.77-1.18,.9v1.31h4.61l1.25-1.31,2.69,2.05c-.19,.22-.64,.48-1.18,.58v2.88c-.03,.22-1.25,.74-2.05,.74h-.38v-.99h-4.93v2.21h6.66l1.22-1.15,2.43,1.89Zm-28.93,19.65c4-1.06,8.45-3.23,10.59-4.93l3.17,2.18c-.26,.29-.83,.38-1.66,.16-2.82,1.38-7.55,2.62-11.94,3.07l-.16-.48Zm8.45-20.38c.42-.74,.7-1.44,.9-2.21h-4.93c-.1,.7-.26,1.5-.42,2.21h4.45Zm13.15,2.05c.83,.03,2.27,.16,2.78,.16,.38,0,.61-.06,.77-.16,.16-.13,.29-.51,.35-1.09h-6.88v2.11c0,.29-1.09,.7-2.02,.7h-.45v-2.82h-5.92c-.86,1.12-2.05,2.21-3.81,3.1l.93,.42h13.73l1.28-1.38,1.54,1.15c0-.51-.1-.8-.42-1.09-.32-.32-1.09-.51-1.92-.61l.03-.51Zm-.19,5.6v-2.21h-14.24v2.21h14.24Zm-14.24,3.23h14.24v-2.27h-14.24v2.27Zm14.24,3.26v-2.34h-14.24v2.34h14.24Zm-5.25-16.35h-4.42c-.19,.77-.48,1.47-.86,2.21h5.28v-2.21Zm-4.06-2.91c0,.67-.06,1.31-.16,1.98h4.22v-2.05h-4.06v.06Zm3.71,21.34c15.93,.83,11.46,6.08,8.7,4.26-1.7-1.28-4.7-2.72-8.8-3.74l.1-.51Zm2.82-21.41v2.05h4.93v-2.05h-4.93Z"/>
        <path d="M380.86,1022.28l2.75,2.14c-.19,.26-.64,.45-1.22,.58v22.88c0,1.92-.38,3.04-3.46,3.33-.1-.77-.26-1.41-.64-1.76-.38-.42-1.06-.74-2.34-.93v-.48s2.72,.19,3.3,.19c.54,0,.67-.19,.67-.64v-8.19h-4.42c-.32,4.19-1.28,8.58-4,11.97l-.51-.29c2.27-5.28,2.3-11.94,2.3-17.92v-10.62l2.85,1.18h3.49l1.22-1.44Zm-.93,16.19v-6.59h-4.22v1.28c0,1.63,0,3.46-.13,5.31h4.35Zm-4.22-13.82v6.34h4.22v-6.34h-4.22Zm24.64,10.43c-.19,.29-.51,.35-1.22,.45-.77,3.17-1.95,6.27-3.9,9.02,1.73,1.7,3.78,3.04,6.08,4l-.1,.35c-1.09,.13-1.98,.9-2.46,2.11-1.98-1.25-3.65-2.75-4.99-4.61-1.5,1.63-3.36,3.1-5.63,4.29l-.32-.45c2.05-1.47,3.68-3.26,4.99-5.31-1.54-2.59-2.59-5.79-3.23-9.76h-1.95v15.33c0,.22-.77,.86-2.02,.86h-.42v-28.83l2.85,1.18h8.03l1.28-1.34,2.62,2.11c-.19,.22-.54,.38-1.18,.45-.06,3.78-.35,5.79-1.38,6.56-.67,.54-1.73,.77-3.04,.77,0-.64-.13-1.15-.54-1.5-.42-.35-1.6-.64-2.69-.8v-.51c1.15,.06,3.17,.22,3.74,.22,.51,0,.74-.06,.9-.22,.38-.35,.51-2.02,.58-4.8h-8.74v9.63h8.67l1.47-1.5,2.59,2.3Zm-10.11,.1c.7,3.14,1.95,5.73,3.65,7.87,1.25-2.46,2.08-5.15,2.59-7.87h-6.24Z"/>
        <path d="M415.36,1036.84c.61-1.02,1.38-2.59,1.89-3.84h-2.5v14.78c0,1.89-.45,3.26-3.68,3.55-.03-.8-.26-1.44-.67-1.86-.45-.42-1.25-.74-2.78-.93v-.48s3.26,.22,3.94,.22c.61,0,.77-.16,.77-.61v-9.47c-1.5,2.78-3.46,5.28-5.82,7.36l-.45-.45c2.62-3.3,4.58-7.78,5.7-12.13h-5.02l-.29-.93h10.78l1.41-1.44,2.59,2.46c-.26,.22-.64,.29-1.28,.32-.96,1.15-2.78,2.75-4.19,3.65l-.38-.22Zm-8.19-12.09l-.29-.96h9.41l1.5-1.5,2.62,2.56c-.26,.22-.61,.26-1.28,.32-1.12,1.02-3.14,2.4-4.74,3.42,2.21,1.89,.96,4.19-.86,3.2-.61-1.66-2.56-3.68-4.06-4.8l.29-.26c1.79,.29,3.1,.8,4,1.38,.77-.99,1.7-2.3,2.34-3.36h-8.93Zm25.21,13.6l2.66,2.18c-.22,.22-.61,.35-1.28,.45-.32,5.12-1.09,8.35-2.4,9.41-.86,.64-2.05,.96-3.39,.96,0-.7-.13-1.31-.58-1.66-.48-.38-1.66-.7-2.88-.9v-.54c1.28,.13,3.49,.29,4.16,.29,.51,0,.8-.06,1.09-.29,.7-.61,1.28-3.42,1.57-7.58h-5.18c-.99,4.16-3.36,8.26-10.08,10.66l-.35-.48c4.99-2.43,7.07-6.21,7.9-10.18h-5.89l-.29-.93h6.37c.19-1.25,.29-2.53,.35-3.74l3.65,.35c-.06,.38-.32,.7-1.09,.8-.1,.86-.19,1.73-.38,2.59h4.74l1.31-1.38Zm.42-11.33c-.99,2.21-2.4,4.13-4.22,5.73,2.11,1.15,4.67,1.98,7.9,2.5l-.1,.38c-.7,.32-1.15,1.15-1.31,2.34-3.55-.99-6.11-2.3-8.06-3.94-2.56,1.86-5.73,3.23-9.47,4.19l-.22-.48c3.42-1.25,6.24-2.91,8.42-4.9-1.28-1.38-2.3-2.88-3.2-4.61-1.06,1.12-2.21,2.05-3.39,2.78l-.38-.35c1.82-2.02,3.68-5.28,4.7-8.83l3.49,1.31c-.13,.35-.54,.64-1.22,.54-.45,.86-.93,1.66-1.44,2.4h7.17l1.57-2.08s1.86,1.44,2.91,2.5c-.06,.35-.38,.51-.8,.51h-2.34Zm-9.22,0c-.16,.22-.35,.45-.54,.67,1.06,1.54,2.27,2.88,3.84,4,1.25-1.41,2.24-2.98,2.88-4.67h-6.18Z"/>
        <path d="M445.95,1028.07c.06,1.89-.8,3.14-1.73,3.68-.86,.48-1.98,.38-2.27-.45-.29-.77,.26-1.44,.99-1.79,1.12-.54,2.14-2.05,1.98-3.74l.51-.03c.19,.48,.32,.96,.38,1.41h8.99v-2.4h-9.06l-.26-.93h17.41l1.6-1.92s1.79,1.34,2.91,2.34c-.1,.35-.42,.51-.86,.51h-9.22v2.4h9.7l1.47-1.5,2.66,2.56c-.22,.26-.54,.29-1.18,.32-.8,.99-2.24,2.37-3.33,3.1l-.42-.22c.32-.86,.7-2.24,.96-3.33h-9.86v7.07c0,.16-.83,.67-2.11,.67h-.42v-7.74h-8.86Zm23.65,20c1.06,.42,1.18,.51,1.18,.96,0,.93-.93,1.54-4.16,1.54h-7.87c-3.23,0-3.94-.51-3.94-3.39v-2.21h-6.4v1.54c0,.19-1.12,.8-2.14,.8h-.35v-11.97l.67,.29-1.02-2.27c1.5-.13,4.86-.54,8.16-.99l.06,.48c-1.44,.58-3.52,1.41-6.37,2.37-.1,.29-.26,.48-.42,.61l1.6,.7h15.1l.9-.99c-1.6-.83-4.32-1.95-6.3-2.46l.19-.54c7.3-.29,8.48,2.59,7.2,3.14l2.08,1.6c-.19,.22-.67,.48-1.25,.61v7.65c-.03,.22-1.28,.83-2.11,.83h-.42v-1.38h-6.69v2.37c0,1.06,.13,1.15,1.5,1.15h7.94c.8,0,1.15,0,1.41-.35,.22-.35,.54-1.41,.96-3.01h.42l.06,2.94Zm-23.2-18.85c7.2-.83,7.65,2.91,5.6,2.75-1.31-.8-3.87-1.86-5.79-2.24l.19-.51Zm2.02,8.22v2.75h6.4v-2.75h-6.4Zm6.4,6.56v-2.85h-6.4v2.85h6.4Zm2.5-6.56v2.75h6.69v-2.75h-6.69Zm6.69,6.56v-2.85h-6.69v2.85h6.69Zm-5.6-12.64c1.82-.8,4.67-2.34,5.82-3.07l1.57,2.34c-.22,.16-.51,.1-.86-.13-1.25,.35-4.19,.99-6.4,1.28l-.13-.42Z"/>
        <path d="M488.22,1025.93s1.7,1.31,2.69,2.3c-.1,.35-.38,.51-.8,.51h-13.22l-.26-.96h10.11l1.47-1.86Zm-2.69,5.95l1.41-1.73s1.57,1.22,2.53,2.14c-.06,.35-.38,.51-.83,.51h-10.27l-.26-.93h7.42Zm1.41,2.37s1.57,1.22,2.53,2.14c-.06,.35-.38,.51-.83,.51h-10.27l-.26-.93h7.42l1.41-1.73Zm.06,4.54l2.72,2.08c-.19,.22-.7,.48-1.31,.61v7.62c-.03,.22-1.18,.74-1.98,.74h-.38v-1.57h-5.12v1.92c0,.22-.99,.77-1.95,.77h-.35v-11.9l2.46,1.09h4.64l1.28-1.34Zm-6.14-16.77c6.75,1.44,4.58,6.43,2.08,4.67-.22-1.54-1.38-3.36-2.4-4.45l.32-.22Zm5.18,25.31v-6.27h-5.12v6.27h5.12Zm17.5-17.47s1.82,1.44,2.98,2.5c-.1,.35-.42,.51-.86,.51h-6.91v5.89h2.56l1.28-1.44,2.78,2.18c-.19,.26-.74,.54-1.41,.67v10.18c-.03,.19-1.18,.7-1.95,.7h-.35v-2.14h-8.19v1.66c0,.26-.99,.8-1.95,.8h-.38v-13.73l2.5,1.12h2.78v-5.89h-6.24l-.26-.93h6.5v-5.95c-1.89,.32-3.84,.58-5.7,.7l-.16-.51c4.16-.9,9.09-2.75,11.55-4.19l2.75,2.37c-.29,.29-.9,.32-1.7,.03-1.22,.42-2.75,.8-4.42,1.18v6.37h3.23l1.57-2.08Zm-10.08,9.82v8.29h8.19v-8.29h-8.19Z"/>
      </g>
      <ellipse class="cls-3" cx="123.19" cy="1261.5" rx="122.69" ry="123"/>
      <g>
        <path d="M69.68,1272.1c6.19,.64,7.14,2.72,6.52,3.64,.53,.42,1.48,1.18,2.13,1.76-.08,.31-.34,.45-.73,.45h-6.16v4.06c0,1.71-.36,2.69-3.39,2.97-.08-.67-.28-1.18-.7-1.51-.45-.36-1.23-.64-2.66-.84v-.42s3.3,.22,3.95,.22c.5,0,.67-.17,.67-.56v-3.92h-16.16l-.2-.81h16.35v-2.13l3.08,.31c-.06,.39-.34,.59-.95,.7v1.12h3.05l.73-.95c-.28-.03-.56-.14-.81-.39-.36-.5-.87-1.04-1.57-1.54-4.03,.42-9.41,.84-16.83,1.37-.17,.31-.48,.48-.76,.53l-1.2-2.55c2.16,.06,5.88,.06,10.36,.03v-2.1h-5.29v.5c0,.2-.92,.67-1.79,.67h-.31v-8.9l2.27,.95h5.12v-2.04h-10.61l-.25-.84h10.86v-2.72l3.16,.34c-.06,.39-.34,.67-1.01,.78v1.6h6.94l1.4-1.79s1.6,1.29,2.58,2.18c-.08,.31-.36,.45-.76,.45h-10.16v2.04h5.38l1.09-1.15,2.38,1.76c-.14,.22-.56,.45-1.09,.56v5.71c-.03,.2-1.06,.7-1.79,.7h-.31v-.81h-5.66v2.1c1.68-.03,3.44-.03,5.24-.06-.64-.36-1.43-.73-2.3-1.04l.17-.45Zm-11.7,6.5c7.14,.53,5.99,5.43,3.53,4.2-.62-1.43-2.35-3.08-3.78-3.95l.25-.25Zm1.15-12.99v2.13h5.29v-2.13h-5.29Zm5.29,5.12v-2.16h-5.29v2.16h5.29Zm2.16-5.12v2.13h5.66v-2.13h-5.66Zm5.66,5.12v-2.16h-5.66v2.16h5.66Z"/>
        <path d="M106.83,1264.63c-.03,.17-1.06,.56-1.74,.56h-.2l.5,.59c-.14,.11-.39,.14-.7-.06-.62,.22-1.65,.59-2.77,.9,6.38,.92,5.71,2.91,4.28,2.58l-.53-.2,1.18,.9c-.14,.17-.48,.36-.92,.45v2.46c-.03,.17-1.04,.59-1.68,.59h-.34v-.48h-11.54l2.66,.53c-.08,.25-.42,.42-1.18,.48-.14,.17-.28,.36-.45,.53h11.03l1.18-1.18,2.24,1.82c-.2,.22-.53,.36-1.06,.42-.25,4.79-.64,7.78-1.74,8.74-.59,.48-1.48,.73-2.41,.73,0-.48-.14-.95-.5-1.26-.36-.31-1.4-.62-2.35-.76l.03-.48,1.23,.11c-.14-.25-.34-.5-.53-.73-2.38,.36-5.63,.78-10.05,1.34-.17,.36-.42,.5-.7,.56l-1.09-2.32c1.37,.03,3.78,0,6.69-.06v-1.46h-2.72v.2c0,.17-.87,.59-1.6,.59h-.28v-3.95c-.92,.7-1.9,1.32-2.94,1.76l-.31-.31c1.82-1.4,3.58-3.64,4.42-5.32h-.36v.28c0,.14-.95,.62-1.74,.62h-.28v-4.28c-.06,.03-.08,.06-.14,.06l-1.04-1.99c.92-.11,2.46-.36,4.31-.7-.76-.59-2.3-1.43-3.44-1.85l.17-.39c4-.14,4.79,1.46,4.23,2.07l2.66-.48v-1.6l2.97,.31c-.03,.31-.25,.53-.81,.62v.67c.7,.06,1.34,.11,1.9,.17,1.15-.59,2.55-1.43,3.39-1.99h-15.99v5.77c0,4.84-.11,10.84-3.92,14.81l-.42-.25c2.18-4.09,2.24-9.49,2.24-14.53v-10.56l2.49,1.01h16.3l1.09-1.18,2.46,1.82c-.17,.22-.64,.45-1.2,.59v2.72Zm-19.04-1.01h16.97v-2.13h-16.97v2.13Zm16.58,4.96c-1.74-.53-4.03-1.18-5.88-1.6v1.37c0,.2-.98,.59-1.76,.59h-.39v-2.1c-1.48,.53-3.39,1.18-5.74,1.96l1.15,.5h11.96l.67-.73Zm-11.76,6.69c-.36,.36-.78,.73-1.18,1.04l1.37,.62h2.58v-1.43l2.72,.31c-.06,.31-.25,.5-.76,.59v.53h3.02l.92-.92,1.96,1.46c-.14,.14-.42,.31-.76,.36v2.16c-.03,.14-1.01,.5-1.62,.5h-.31v-.53h-3.22v1.37l2.58-.06c-.31-.28-.62-.53-.92-.7l.28-.25c2.94,.45,3.61,1.71,3.33,2.41,.2,.03,.34,.03,.42,.03,.34,0,.53-.08,.64-.25,.56-.56,.87-3.16,1.06-7.22h-12.12Zm1.9-5.15h-2.91v1.99h2.91v-1.99Zm.87,9.02v-1.4h-2.72v1.4h2.72Zm1.04-7.03h2.83v-1.99h-2.83v1.99Zm4.14,5.63h-3.22v1.4h3.22v-1.4Zm3.36-5.63v-1.99h-2.83v1.99h2.83Zm.84-7.06v-.62h-.53l.53,.62Z"/>
        <path d="M129.96,1276.97l-.22,5.77h-15.2v-1.06l2.86-.31c.06-2.72,.06-5.43,.06-8.04v-1.6c0-2.74,0-5.49-.06-8.15l-2.86-.31v-1.06h8.65v1.06l-2.88,.31c-.06,2.69-.06,5.4-.06,8.12v2.04c0,2.32,0,4.98,.06,7.67h7.06l1.01-4.45h1.6Z"/>
        <path d="M140.74,1263.59c-.06,2.66-.06,5.4-.06,8.15v1.51c0,2.69,0,5.4,.06,8.09l2.86,.34v1.06h-8.62v-1.06l2.86-.31c.06-2.69,.06-5.38,.06-8.12v-1.51c0-2.74,0-5.46-.06-8.15l-2.86-.31v-1.06h8.62v1.06l-2.86,.31Z"/>
        <path d="M169.08,1263.28l-2.58,.36-.03,19.29h-1.09l-12.52-17.19,.06,15.51,3.28,.42v1.06h-7.25v-1.06l2.58-.36,.06-17.36-.31-.39-2.18-.28v-1.06h4.73l11.34,15.68-.06-14.22-3.28-.39v-1.06h7.25v1.06Z"/>
        <path d="M190.16,1277.28l-.17,5.46h-15.79v-1.06l2.86-.31c.06-2.69,.06-5.38,.06-8.12v-1.51c0-2.74,0-5.46-.06-8.15l-2.86-.31v-1.06h15.2l.17,5.4h-1.51l-.81-4.06h-7.28c-.06,2.66-.06,5.35-.06,8.12h4.62l.45-3.02h1.26v7.22h-1.26l-.42-2.97h-4.65c0,3.02,0,5.77,.06,8.48h7.87l.81-4.12h1.51Z"/>
        <path d="M64.76,1317.14c.84,2.8,.48,4.93-.25,5.91-.48,.64-1.6,.84-2.02,.2-.36-.59-.06-1.26,.48-1.74,.73-.78,1.46-2.72,1.29-4.37h.5Zm-2.16-3.36s.56-.14,.78-.31c1.32-1.12,2.83-3.14,4.12-5.1-.9,.28-1.96,.62-3.05,.92-.22,.34-.48,.56-.73,.67l-1.06-2.66s.53-.11,.73-.28c1.51-1.6,3.42-5.57,4.06-7.7l2.91,1.43c-.14,.25-.48,.48-1.01,.39-1.12,1.9-3.11,4.48-4.9,6.22,1.04,0,2.35,0,3.7-.03,.64-1.06,1.18-2.04,1.48-2.86l2.63,1.79c-.11,.22-.5,.39-1.04,.28-1.46,2.13-4.2,5.18-6.69,7.25,1.4-.06,3.3-.2,5.32-.34-.34-1.06-.78-2.13-1.23-2.91l.34-.17c4.65,3,2.83,6.55,1.23,5.04,0-.39-.06-.84-.17-1.26-1.48,.45-3.61,1.09-5.8,1.68-.2,.31-.45,.48-.7,.56l-.92-2.63Zm4.51,2.88c3.53,3.61,1.23,7.08-.17,5.29,.31-1.65,.14-3.78-.22-5.18l.39-.11Zm2.52-.48c4.4,2.49,2.55,5.91,1.01,4.45,0-1.4-.7-3.16-1.34-4.28l.34-.17Zm17.81-1.62c-.14,.22-.56,.39-1.06,.17-.76,.59-2.1,1.46-3.39,2.16,1.51,1.99,3.39,3.3,5.21,4.2l-.06,.28c-.78,.14-1.4,.84-1.68,1.82-2.66-2.1-4.59-4.76-5.74-9.38v8.26c0,1.57-.36,2.69-3,2.94-.06-.64-.2-1.2-.5-1.51-.39-.34-1.01-.59-2.24-.76v-.42s2.55,.2,3.08,.2c.48,0,.62-.17,.62-.5v-6.97c-.17,.06-.42,.11-.78,.14-.98,3.42-3.14,6.66-6.97,8.71l-.28-.39c2.77-2.1,4.42-5.26,5.18-8.51h-3.39l-.25-.84h3.53l1.2-1.15,1.76,1.54v-3.33h-3.11v.9c0,.14-.64,.53-1.65,.53h-.34v-10.95l2.32,.98h1.71c.22-.98,.48-2.55,.64-3.58l3.39,.59c-.11,.42-.48,.64-1.06,.67-.56,.67-1.4,1.62-2.04,2.32h4.98l1.04-1.18,2.16,1.65c-.2,.22-.48,.39-1.04,.5v8.15c0,.14-.76,.56-1.71,.56h-.34v-1.15h-2.91v1.06c.45,1.62,1.12,2.97,1.88,4.09,.95-1.18,1.99-2.77,2.41-3.7l2.44,1.9Zm-11.87-11.09v3.02h8.06v-3.02h-8.06Zm8.06,6.89v-3.05h-8.06v3.05h8.06Z"/>
        <path d="M116.03,1320.7s1.85,1.4,2.94,2.41c-.08,.31-.36,.45-.76,.45h-24.84l-.25-.84h10.86v-23.24l3.42,.36c-.08,.42-.31,.7-1.01,.81v9.16h5.91l1.6-2.04s1.82,1.4,2.88,2.38c-.08,.31-.34,.45-.76,.45h-9.63v12.12h8.04l1.6-2.02Z"/>
        <path d="M132.44,1299.59l2.41,1.88c-.17,.22-.56,.39-1.06,.5v20.02c0,1.68-.34,2.66-3.02,2.91-.08-.67-.22-1.23-.56-1.54-.34-.36-.92-.64-2.04-.81v-.42s2.38,.17,2.88,.17c.48,0,.59-.17,.59-.56v-7.17h-3.86c-.28,3.67-1.12,7.5-3.5,10.47l-.45-.25c1.99-4.62,2.02-10.44,2.02-15.68v-9.3l2.49,1.04h3.05l1.06-1.26Zm-.81,14.17v-5.77h-3.7v1.12c0,1.43,0,3.02-.11,4.65h3.81Zm-3.7-12.1v5.54h3.7v-5.54h-3.7Zm21.56,9.13c-.17,.25-.45,.31-1.06,.39-.67,2.77-1.71,5.49-3.42,7.9,1.51,1.48,3.3,2.66,5.32,3.5l-.08,.31c-.95,.11-1.74,.78-2.16,1.85-1.74-1.09-3.19-2.41-4.37-4.03-1.32,1.43-2.94,2.72-4.93,3.75l-.28-.39c1.79-1.29,3.22-2.86,4.37-4.65-1.34-2.27-2.27-5.07-2.83-8.54h-1.71v13.41c0,.2-.67,.76-1.76,.76h-.36v-25.23l2.49,1.04h7.03l1.12-1.18,2.3,1.85c-.17,.2-.48,.34-1.04,.39-.06,3.3-.31,5.07-1.2,5.74-.59,.48-1.51,.67-2.66,.67,0-.56-.11-1.01-.48-1.32-.36-.31-1.4-.56-2.35-.7v-.45c1.01,.06,2.77,.2,3.28,.2,.45,0,.64-.06,.78-.2,.34-.31,.45-1.76,.5-4.2h-7.64v8.43h7.59l1.29-1.32,2.27,2.02Zm-8.85,.08c.62,2.74,1.71,5.01,3.19,6.89,1.09-2.16,1.82-4.51,2.27-6.89h-5.46Z"/>
        <path d="M162.62,1312.33c.53-.9,1.2-2.27,1.65-3.36h-2.18v12.94c0,1.65-.39,2.86-3.22,3.11-.03-.7-.22-1.26-.59-1.62-.39-.36-1.09-.64-2.44-.81v-.42s2.86,.2,3.44,.2c.53,0,.67-.14,.67-.53v-8.29c-1.32,2.44-3.02,4.62-5.1,6.44l-.39-.39c2.3-2.88,4-6.8,4.98-10.61h-4.4l-.25-.81h9.44l1.23-1.26,2.27,2.16c-.22,.2-.56,.25-1.12,.28-.84,1.01-2.44,2.41-3.67,3.19l-.34-.2Zm-7.17-10.58l-.25-.84h8.23l1.32-1.32,2.3,2.24c-.22,.2-.53,.22-1.12,.28-.98,.9-2.74,2.1-4.14,3,1.93,1.65,.84,3.67-.76,2.8-.53-1.46-2.24-3.22-3.56-4.2l.25-.22c1.57,.25,2.72,.7,3.5,1.2,.67-.87,1.48-2.02,2.04-2.94h-7.81Zm22.06,11.9l2.32,1.9c-.2,.2-.53,.31-1.12,.39-.28,4.48-.95,7.31-2.1,8.23-.76,.56-1.79,.84-2.97,.84,0-.62-.11-1.15-.5-1.46-.42-.34-1.46-.62-2.52-.78v-.48c1.12,.11,3.05,.25,3.64,.25,.45,0,.7-.06,.95-.25,.62-.53,1.12-3,1.37-6.64h-4.54c-.87,3.64-2.94,7.22-8.82,9.32l-.31-.42c4.37-2.13,6.19-5.43,6.92-8.9h-5.15l-.25-.81h5.57c.17-1.09,.25-2.21,.31-3.28l3.19,.31c-.06,.34-.28,.62-.95,.7-.08,.76-.17,1.51-.34,2.27h4.14l1.15-1.2Zm.36-9.91c-.87,1.93-2.1,3.61-3.7,5.01,1.85,1.01,4.09,1.74,6.92,2.18l-.08,.34c-.62,.28-1.01,1.01-1.15,2.04-3.11-.87-5.35-2.02-7.06-3.44-2.24,1.62-5.01,2.83-8.29,3.67l-.2-.42c3-1.09,5.46-2.55,7.36-4.28-1.12-1.2-2.02-2.52-2.8-4.03-.92,.98-1.93,1.79-2.97,2.44l-.34-.31c1.6-1.76,3.22-4.62,4.12-7.73l3.05,1.15c-.11,.31-.48,.56-1.06,.48-.39,.76-.81,1.46-1.26,2.1h6.27l1.37-1.82s1.62,1.26,2.55,2.18c-.06,.31-.34,.45-.7,.45h-2.04Zm-8.06,0c-.14,.2-.31,.39-.48,.59,.92,1.34,1.99,2.52,3.36,3.5,1.09-1.23,1.96-2.6,2.52-4.09h-5.4Z"/>
      </g>
      <path class="cls-24" d="M123.82,1198.69c11.94,0,21.56,7.79,21.56,17.48,0,4.72-2.33,8.86-5.97,12.13-5.91,5.85-16.09,11.76-17.16,11.32-1.76-.69,1.32-4.46,.06-6.1-.19-.25-.88-.19-2.14-.38-10.37-1.38-17.79-8.24-17.79-17.04,0-9.68,9.56-17.41,21.44-17.41h0Zm-12.26,23.26h3.65c.63,0,1.01-.5,1.01-1.13,0-.44-.31-1.01-1.13-1.01h-2.96c-.25,0-.25-.25-.25-1.13v-6.35c0-.57-.38-1.13-1.07-1.13-.63,0-1.07,.5-1.07,1.13v7.67c0,1.7,.82,1.95,1.82,1.95Zm8.23-.88v-8.74c0-.57-.44-1.13-1.13-1.13-.57,0-1.07,.5-1.07,1.13v8.74c0,.57,.44,1.01,1.13,1.01,.57,0,1.07-.44,1.07-1.01Zm10.31-1.19v-7.67c0-.57-.44-1.01-1.13-1.01-.5,0-1.07,.31-1.07,1.01v5.53l-3.65-5.09c-.5-.88-1.13-1.45-1.89-1.45-.94,0-1.01,.75-1.01,1.82v8.05c0,.57,.44,1.01,1.07,1.01,.57,0,1.07-.38,1.07-1.01v-5.72l3.65,5.09c.82,1.07,1.01,1.64,2.01,1.64,.69,0,.94-.63,.94-2.2h0Zm7.04-4.34h-3.21v-1.82c0-.19,.06-.44,.38-.44h2.83c.69,0,1.13-.38,1.13-1.07,0-.82-.63-1.07-1.19-1.07h-3.65c-1.13,0-1.7,.75-1.7,1.76v7.1c0,1.26,.5,1.95,1.7,1.95h3.71c.82,0,1.13-.5,1.13-1.13,0-.82-.63-1.07-1.13-1.07h-2.77c-.25,0-.44-.19-.44-.38v-1.76h3.33c.82,0,.94-.63,.94-1.07,0-.63-.5-1.01-1.07-1.01Z"/>
      <g>
        <path d="M403.64,1285.13c.7,.25,.87,.5,.87,.95,0,.98-.95,1.4-5.57,1.4h-3.08c-2.44,0-2.97-.5-2.97-2.13v-8.15h-.98c-1.57,5.4-5.18,8.9-13.13,10.89l-.17-.39c6.44-2.44,9.52-5.8,10.92-10.5h-4.84v1.04c0,.17-.7,.84-1.82,.84h-.39v-8.18c-1.26,1.04-2.6,1.99-3.98,2.74l-.28-.31c3.42-2.66,6.92-7.31,8.6-11.31l3.11,1.4c-.17,.25-.39,.34-1.09,.17-.31,.5-.64,.98-1.01,1.51h6.8l1.32-1.29,2.32,2.07c-.22,.2-.56,.28-1.15,.31-1.15,1.06-2.88,2.63-4.56,3.64h5.8l1.18-1.26,2.52,1.9c-.17,.22-.62,.48-1.18,.59v6.75c-.03,.2-1.12,.67-1.88,.67h-.36v-1.29h-3.53v7.64c0,.45,.11,.56,1.15,.56h2.83c1.15,0,2.13,0,2.55-.06,.36-.03,.45-.11,.59-.36,.25-.48,.62-1.96,.98-3.67h.36l.08,3.81Zm-16.41-19.21c-.92,1.18-1.99,2.41-3.16,3.53l.98,.39h6.66c1.01-1.09,2.1-2.72,2.8-3.92h-7.28Zm2.46,10.47c.45-1.71,.67-3.64,.76-5.74h-5.77v5.74h5.01Zm3.22-5.74c-.14,2.1-.39,4.03-.81,5.74h6.52v-5.74h-5.71Z"/>
        <path d="M435.2,1270.43c-.17,.22-.48,.34-.98,.42-.14,1.26-.36,1.93-1.12,2.32-.56,.31-1.32,.39-2.21,.39l1.04,.78c-.17,.2-.56,.42-1.06,.5v8.26c-.03,.17-1.12,.64-1.88,.64h-.36v-.78h-12.46v.5c0,.2-.95,.7-1.85,.7h-.36v-10.08c-1.18,.48-2.52,.9-4.12,1.23l-.17-.42c3.64-1.12,5.8-2.63,7.06-4.28h-3.25l-.92,.95-2.1-1.51c.28-.2,.67-.39,1.06-.56,.2-.98,.42-2.35,.48-3.19l2.44,.73h3.78c.11-.62,.14-1.18,.14-1.79h-7l-.25-.84h7.25v-2.27l3.08,.31c-.06,.34-.28,.62-.95,.7v1.26h3.56v-2.24l3.19,.31c-.06,.39-.31,.67-1.04,.78v1.15h4.03l1.09-1.15,2.35,1.79c-.17,.2-.56,.42-1.04,.5v2.52c-.03,.2-1.09,.64-1.79,.64h-.34v-.87h-4.31v1.93h5.82l1.06-1.01,2.13,1.65Zm-25.31,17.19c3.5-.92,7.39-2.83,9.27-4.31l2.77,1.9c-.22,.25-.73,.34-1.46,.14-2.46,1.2-6.61,2.3-10.44,2.69l-.14-.42Zm7.39-17.84c.36-.64,.62-1.26,.78-1.93h-4.31c-.08,.62-.22,1.32-.36,1.93h3.89Zm11.51,1.79c.73,.03,1.99,.14,2.44,.14,.34,0,.53-.06,.67-.14,.14-.11,.25-.45,.31-.95h-6.02v1.85c0,.25-.95,.62-1.76,.62h-.39v-2.46h-5.18c-.76,.98-1.79,1.93-3.33,2.72l.81,.36h12.01l1.12-1.2,1.34,1.01c0-.45-.08-.7-.36-.95-.28-.28-.95-.45-1.68-.53l.03-.45Zm-.17,4.9v-1.93h-12.46v1.93h12.46Zm-12.46,2.83h12.46v-1.99h-12.46v1.99Zm12.46,2.86v-2.04h-12.46v2.04h12.46Zm-4.59-14.31h-3.86c-.17,.67-.42,1.29-.76,1.93h4.62v-1.93Zm-3.56-2.55c0,.59-.06,1.15-.14,1.74h3.7v-1.79h-3.56v.06Zm3.25,18.68c13.94,.73,10.02,5.32,7.62,3.72-1.48-1.12-4.12-2.38-7.7-3.28l.08-.45Zm2.46-18.73v1.79h4.31v-1.79h-4.31Z"/>
        <path d="M463.11,1277.93s1.82,1.34,2.88,2.32c-.06,.31-.36,.45-.73,.45h-9.63v6.58c0,.17-.76,.7-1.96,.7h-.42v-7.28h-12.8l-.22-.81h4.84v-8.48l2.69,1.09h5.49v-5.29h-6.08c-1.99,2.77-4.31,5.01-6.75,6.55l-.36-.31c2.63-2.6,5.43-7.03,7.08-11.68l3.39,1.32c-.14,.31-.5,.56-1.15,.48-.5,.98-1.06,1.93-1.65,2.83h12.88l1.57-1.93s1.74,1.26,2.88,2.3c-.08,.31-.36,.45-.78,.45h-8.65v5.29h4.37l1.46-1.85s1.65,1.29,2.69,2.21c-.06,.28-.36,.42-.76,.42h-7.76v6.61h5.91l1.57-1.96Zm-9.86,1.96v-6.61h-5.82v6.61h5.82Z"/>
        <path d="M475.94,1272.97c0,4.73-.28,10.89-4.7,15.12l-.42-.28c2.66-4.37,2.88-9.8,2.88-14.81v-8.15l2.63,1.04h16.27l1.48-1.9s1.68,1.32,2.69,2.27c-.08,.31-.36,.45-.76,.45h-20.08v6.27Zm17.3,5.91c-.22,.28-.53,.36-1.26,.36-1.2,1.76-2.74,3.28-4.62,4.48,2.77,1.04,6.08,1.6,9.72,1.85l-.03,.34c-.98,.22-1.62,.98-1.85,2.04-3.89-.59-7.14-1.51-9.77-3.14-3.11,1.62-6.92,2.63-11.45,3.16l-.17-.45c3.95-.78,7.45-2.02,10.25-3.7-1.62-1.26-2.88-2.91-3.86-4.96h-2.13l-.25-.84h11.7l1.51-1.26,2.21,2.1Zm-5.01-2.1v-1.18h-5.6v.95c0,.2-.95,.59-1.74,.59h-.42v-5.77h-3.78l-.22-.84h4v-3.08l3.14,.34c-.06,.36-.28,.62-.98,.73v2.02h5.6v-3.08l3.16,.34c-.06,.36-.31,.62-1.01,.73v2.02h2.02l1.29-1.79s1.51,1.26,2.38,2.18c-.08,.31-.36,.45-.76,.45h-4.93v4.79c0,.2-.95,.62-1.74,.62h-.42Zm-7.34,2.1c1.09,1.71,2.69,3.02,4.59,4.03,1.62-1.18,2.94-2.52,3.89-4.03h-8.48Zm1.43-17c6.22,.64,4.56,5.01,2.27,3.67-.39-1.18-1.57-2.63-2.52-3.47l.25-.2Zm5.91,12.91v-3.42h-5.6v3.42h5.6Z"/>
        <path d="M385.24,1314.68c6.41,1.9,4.82,6.05,2.72,4.59-.42-1.26-1.62-2.83-2.72-3.95v11.84c0,.2-.76,.78-1.82,.78h-.36v-11.37c-1.4,1.4-3,2.63-4.56,3.61l-.34-.34c3.28-2.8,6.47-7.25,7.92-10.95h-7.17l-.22-.81h7.36l1.34-1.32,2.35,2.24c-.25,.22-.62,.28-1.26,.31-.78,1.6-1.88,3.3-3.25,4.9v.45Zm-3.42-12.54c6.33,1.9,4.31,6.13,2.21,4.51-.28-1.46-1.51-3.22-2.46-4.31l.25-.2Zm20.19,21.56s1.65,1.34,2.66,2.3c-.08,.31-.36,.45-.76,.45h-16.55l-.22-.81h7.48v-12.91h-5.54l-.22-.81h5.77v-9.58l3.3,.36c-.06,.42-.28,.67-1.04,.78v8.43h3.05l1.4-1.88s1.62,1.32,2.55,2.24c-.06,.31-.31,.45-.73,.45h-6.27v12.91h3.67l1.46-1.93Z"/>
        <path d="M432.98,1324.85c1.12,.2,1.4,.5,1.4,.92,0,1.2-1.71,1.4-10.92,1.4h-6.72c-4.09,0-5.63-.5-5.63-3.19v-19.1h-1.09l-.22-.81h20.05l1.37-1.79s1.6,1.26,2.55,2.16c-.08,.31-.34,.45-.7,.45h-19.91v18.84c0,1.23,.59,1.68,3.36,1.68h7.14c3,0,5.46-.06,6.33-.14,.53-.03,.98-.08,1.32-.14,.28-.06,.76-.17,1.2-.31h.34l.14,.03Zm-12.32-1.15v-1.32h-3.56v1.2c0,.2-.84,.64-1.65,.64h-.28v-9.18l2.04,.92h3.22l1.01-1.04,2.1,1.6c-.14,.2-.5,.39-.92,.48v6.1c-.03,.2-1.01,.59-1.65,.59h-.31Zm0-2.13v-4.79h-3.56v4.79h3.56Zm6.61-8.54h-6.92v.87c0,.17-.95,.64-1.82,.64h-.31v-8.26l2.27,.98h6.52l1.12-1.15,2.38,1.76c-.17,.2-.59,.42-1.06,.53v5.12c-.03,.2-1.12,.62-1.82,.62h-.36v-1.12Zm0-.84v-4.09h-6.92v4.09h6.92Zm2.88,11.42v-1.23h-3.61v.84c0,.2-.87,.62-1.68,.62h-.28v-8.79l2.07,.92h3.25l1.04-1.12,2.21,1.71c-.17,.2-.56,.42-1.01,.5v5.94c-.03,.17-1.04,.62-1.68,.62h-.31Zm0-2.04v-4.79h-3.61v4.79h3.61Z"/>
        <path d="M445.75,1310.23c-.11,.22-.36,.42-.87,.48v16.63c-.03,.17-.92,.64-1.71,.64h-.39v-15.06c-.81,1.43-1.71,2.72-2.66,3.84l-.42-.25c1.88-3.61,3.72-9.1,4.68-14.31l3.28,.95c-.14,.34-.48,.59-1.09,.59-.59,2.07-1.32,4.09-2.16,5.99l1.34,.5Zm7.28,3.89c-.2,.25-.48,.34-1.01,.42-.28,2.77-.73,5.54-1.88,7.98,2.44,2.21,5.8,2.77,10.58,2.77,1.23,0,3.98,0,5.43-.03v.36c-.81,.17-1.26,.92-1.29,1.79h-4.37c-5.1,0-8.6-.81-11-3.67-.98,1.6-2.38,3.05-4.31,4.23l-.25-.42c1.71-1.43,2.86-3.19,3.64-5.15-.95-1.51-1.71-3.5-2.32-6.02l.39-.17c.64,2.1,1.4,3.72,2.32,4.98,.64-2.18,.9-4.54,1.04-6.94h-1.76l-.81,.78-1.88-1.43c.25-.17,.62-.36,.98-.48,.9-1.99,2.18-5.24,2.83-7.34h-2.77l-.25-.81h2.94l1.06-1.09,2.21,1.93c-.25,.25-.73,.39-1.29,.45-.7,1.88-1.99,5.04-2.88,7.17h1.37l1.12-1.15,2.16,1.82Zm11.62-6.83s1.09,1.09,1.65,1.88c-.06,.31-.31,.45-.67,.45h-2.38v3.98c-.03,.17-.98,.62-1.62,.62h-.31v-.76h-2.83v3h2.66l1.15-1.54s1.29,1.12,2.04,1.93c-.06,.31-.31,.45-.7,.45h-5.15v2.8h3.75l1.18-1.65s1.34,1.18,2.16,2.02c-.06,.31-.34,.45-.73,.45h-6.36v3c0,.25-.87,.7-1.6,.7h-.39v-3.7h-4.68l-.22-.81h4.9v-2.8h-3.72l-.22-.84h3.95v-3h-3.25l-.25-.84h3.5v-3h-5.1l-.22-.81h5.32v-2.94h-3.53l-.25-.84h3.78v-2.8l2.94,.31c-.06,.39-.28,.67-.95,.76v1.74h2.6l.98-1.01,2.1,1.6c-.14,.17-.5,.36-.92,.45v2.74h.53l.87-1.51Zm-6.16,1.51h2.83v-2.94h-2.83v2.94Zm2.83,.81h-2.83v3h2.83v-3Z"/>
        <path d="M476.72,1312.72c5.26,2.49,3.47,5.99,1.76,4.56-.2-1.23-1.01-2.8-1.76-3.95v13.92c0,.28-.87,.73-1.65,.73h-.45v-12.18c-.87,2.07-2.02,3.95-3.44,5.66l-.42-.36c1.82-3.19,2.88-7.34,3.44-11.4h-2.97l-.22-.81h3.61v-6.66l3.11,.36c-.08,.39-.31,.67-1.01,.78v5.52h.53l1.2-1.71s1.37,1.2,2.18,2.07c-.08,.31-.34,.45-.73,.45h-3.19v3.02Zm9.32,8.01c-.14,.31-.36,.45-1.01,.42-.25,.59-.56,1.18-.92,1.76,4.51,1.12,3.25,4.54,1.4,3.42-.22-.92-.98-1.99-1.82-2.77-1.2,1.74-2.83,3.39-4.93,4.45l-.28-.39c2.35-1.99,3.92-5.32,4.48-8.01l3.08,1.12Zm3.44-17.81c-.08,.34-.34,.48-1.09,.53,1.99,2.52,5.35,4.65,8.79,5.74l-.03,.39c-.87,.31-1.32,1.15-1.51,2.07-3.22-1.79-6.08-4.59-7.62-7.9-1.76,3.28-5.12,6.36-9.04,8.12l-.2-.42c3.22-2.13,6.1-6.16,7.14-9.35l3.56,.81Zm-6.94,10.14h2.3l.95-1.01,2.07,1.57c-.14,.17-.48,.36-.9,.42v5.07c-.03,.2-1.01,.59-1.62,.59h-.28v-1.04h-2.6v.87c0,.17-.81,.59-1.62,.59h-.28v-7.92l1.99,.87Zm-.08,.81v3.98h2.6v-3.98h-2.6Zm7.53-5.49s1.4,1.15,2.27,1.99c-.06,.28-.34,.42-.73,.42h-8.06l-.22-.78h5.52l1.23-1.62Zm4.14,12.32c-.11,.31-.34,.48-.98,.45-.31,.7-.7,1.4-1.15,2.13,5.94,1.62,4.93,5.63,2.86,4.51-.53-1.26-1.93-2.8-3.28-3.89-1.23,1.68-2.88,3.25-5.01,4.2l-.22-.39c2.52-1.93,4.14-5.26,4.73-8.09l3.05,1.09Zm-.67-1.01v-1.04h-2.88v.87c0,.17-.81,.59-1.62,.59h-.28v-7.92l2.04,.87h2.52l.95-1.01,2.1,1.57c-.11,.17-.48,.36-.87,.42v5.07c-.03,.17-1.04,.59-1.68,.59h-.28Zm0-1.85v-3.98h-2.88v3.98h2.88Z"/>
      </g>
      <circle class="cls-5" cx="443.5" cy="404.5" r="123"/>
      <g>
        <path d="M387.74,399.06c-.26,.29-.67,.38-1.44,.42-1.06,1.95-3.04,5.6-4.51,7.55,3.55,2.46,4.83,5.31,4.83,7.84,0,3.07-1.18,4.58-4.51,4.7,0-.77-.13-1.63-.35-1.95-.29-.26-.9-.48-1.7-.58v-.48h2.43c.35,0,.58-.03,.83-.19,.54-.32,.83-.96,.83-2.14,0-2.27-.86-4.7-3.14-7.07,.74-2.05,1.89-5.82,2.56-8.38h-4.22v25.69c0,.19-.77,.83-1.98,.83h-.42v-28.64l2.82,1.18h3.65l1.54-1.5,2.78,2.72Zm14.81,.74s1.79,1.47,2.88,2.56c-.06,.35-.38,.51-.83,.51h-10.59c-.06,1.66-.16,3.3-.32,4.83h6.02l1.47-1.5,2.75,2.3c-.26,.26-.64,.42-1.34,.51-.32,8.45-1.09,13.41-2.62,14.88-.93,.9-2.21,1.31-3.78,1.31,0-.77-.13-1.47-.61-1.82-.45-.45-1.79-.83-3.07-1.06l.03-.51c1.34,.13,3.65,.32,4.35,.32,.61,0,.9-.1,1.22-.38,1.02-.9,1.6-5.79,1.92-13.12h-6.43c-.93,7.3-3.39,12.83-10.75,16.73l-.29-.38c7.2-5.6,8.54-12.73,8.64-22.11h-5.47l-.26-.93h15.49l1.6-2.14Zm-10.46-3.87c7.33,2.24,4.77,7.49,2.27,5.34-.13-1.7-1.41-3.87-2.62-5.12l.35-.22Z"/>
        <path d="M423.29,405.81c-.22,.29-.54,.38-1.25,.45-1.5,6.14-4.61,12.35-11.2,16.13l-.35-.38c4.86-3.94,7.68-10.08,8.83-16.09h-7.9l-.26-.9h8l1.5-1.54,2.62,2.34Zm16.32-2.14c-.22,.32-.51,.45-1.25,.29-1.82,1.76-4.86,4.19-7.84,6.02,2.75,4.67,6.46,7.65,10.21,9.66l-.1,.32c-1.09,.16-1.98,1.02-2.4,2.24-5.38-4.1-9.44-9.57-11.36-20.09v19.65c0,2.05-.42,3.26-4.03,3.62-.1-.86-.32-1.47-.83-1.92-.58-.45-1.41-.77-3.14-.99v-.51s3.84,.29,4.61,.29c.58,0,.77-.19,.77-.7v-25.66l3.74,.42c-.1,.45-.32,.74-1.12,.86v2.66c.7,3.78,1.86,6.94,3.3,9.57,2.3-2.4,4.77-5.66,6.08-7.78l3.36,2.08Z"/>
        <path d="M456.31,397.05c-.16,.35-.51,.64-1.25,.61-.9,2.43-1.92,4.67-3.07,6.75l1.41,.54c-.13,.26-.42,.48-.99,.54v19.01c-.03,.19-1.09,.8-2.05,.8h-.48v-17.54c-1.22,1.66-2.5,3.17-3.87,4.45l-.48-.32c2.72-3.84,5.47-9.95,6.98-16.03l3.81,1.18Zm-2.75,26.46c2.08-2.11,4.61-5.73,6.3-9.34l3.42,1.7c-.19,.35-.64,.58-1.31,.45-2.27,3.2-5.25,5.89-8.06,7.58l-.35-.38Zm19.2-13.63s1.89,1.44,3.04,2.53c-.1,.35-.38,.51-.86,.51h-8.9v11.55c-.03,.19-.86,.86-2.14,.86h-.42v-12.42h-9.22l-.26-.93h9.47v-4.83h-3.78v1.31c0,.19-.8,.7-2.05,.7h-.42v-12.29l2.82,1.18h9.79l1.25-1.47,2.59,2.02c-.22,.26-.51,.45-1.22,.54v8.96c0,.13-.9,.61-2.11,.61h-.42v-1.57h-3.9v4.83h5.06l1.66-2.11Zm-13.05-3.65h10.24v-7.23h-10.24v7.23Zm7.65,8.58c10.24,4.61,8.7,10.3,5.86,8.48-1.09-2.5-4.1-5.98-6.24-8.22l.38-.26Z"/>
        <path d="M510.2,398.71c-.22,.22-.74,.48-1.38,.61v24.73c-.03,.22-1.25,.9-2.14,.9h-.35v-1.92h-20.7v1.25c0,.32-.93,.99-2.05,.99h-.45v-28.54l2.72,1.25h20.16l1.31-1.54,2.88,2.27Zm-3.87,23.39v-23.23h-20.7v23.23h20.7Zm-4.03-19.33s1.7,1.41,2.78,2.4c-.1,.35-.38,.51-.86,.51h-7.1v4.74h2.34l1.22-1.31,2.62,2.02c-.19,.22-.64,.42-1.18,.54v7.49c-.03,.19-1.25,.7-1.98,.7h-.38v-1.86h-7.68v1.41c0,.22-.99,.74-1.98,.74h-.35v-10.82l2.5,1.09h2.43v-4.74h-7.07l-.26-.9h7.33v-4.77l3.55,.35c-.06,.42-.35,.74-1.09,.83v3.58h3.65l1.54-2.02Zm-10.24,8.58v5.73h7.68v-5.73h-7.68Z"/>
        <path d="M421.67,457.14c1.15-.35,2.27-.51,3.55-.51,4.54,0,7.65,2.53,7.65,7.07s-3.23,7.49-8.19,7.49c-3.55,0-5.82-1.63-6.53-4.86,.29-.74,.9-1.12,1.66-1.12,1.02,0,1.47,.51,1.89,2.21l.58,2.11c.74,.22,1.41,.32,2.14,.32,3.49,0,5.38-2.27,5.38-5.79s-2.08-5.57-5.47-5.57c-1.12,0-2.27,.13-3.39,.45l-.9-.26,.74-10.56h11.46v2.72h-10.11l-.45,6.3Z"/>
        <path d="M465.03,461.81s2.08,1.54,3.3,2.66c-.06,.35-.42,.51-.83,.51h-11.01v7.52c0,.19-.86,.8-2.24,.8h-.48v-8.32h-14.62l-.26-.93h5.54v-9.7l3.07,1.25h6.27v-6.05h-6.94c-2.27,3.17-4.93,5.73-7.71,7.49l-.42-.35c3.01-2.98,6.21-8.03,8.1-13.34l3.87,1.5c-.16,.35-.58,.64-1.31,.54-.58,1.12-1.22,2.21-1.89,3.23h14.72l1.79-2.21s1.98,1.44,3.3,2.62c-.1,.35-.42,.51-.9,.51h-9.89v6.05h4.99l1.66-2.11s1.89,1.47,3.07,2.53c-.06,.32-.42,.48-.86,.48h-8.86v7.55h6.75l1.79-2.24Zm-11.26,2.24v-7.55h-6.66v7.55h6.66Z"/>
      </g>
      <g class="cls-23">
        <path class="cls-12" d="M457.89,338.19c-.16-.14-.37-.21-.57-.18-.21,.02-.4,.13-.53,.3l-12,15.31c-.13,.17-.2,.39-.18,.6,.02,.22,.12,.42,.28,.56,.16,.14,.37,.21,.57,.19,.21-.02,.4-.13,.53-.3l12-15.31c.07-.08,.12-.18,.15-.29,.03-.1,.04-.21,.03-.32,0-.11-.04-.21-.09-.31-.05-.1-.12-.18-.2-.25Z"/>
        <path class="cls-12" d="M454.09,348.11c-.3-.55-.6-1.1-.91-1.64l-6.84,8.73c-.11,.15-.26,.27-.41,.36-.16,.09-.33,.15-.51,.16-.18,.02-.36,0-.53-.06-.17-.06-.33-.15-.47-.27-.14-.12-.25-.27-.34-.44-.08-.17-.14-.35-.15-.54s0-.38,.06-.56c.05-.18,.14-.35,.26-.5l7.42-9.46c-1.41-2.27-2.92-4.47-4.49-6.64-.44-.6-.92-1.17-1.37-1.75h-.5c-.13,.12-.24,.25-.35,.39-.15,.22-.27,.49-.43,.72-1.7,2.52-3.45,5.02-5.11,7.57-1.69,2.59-3.22,5.28-4.41,8.17-.94,2.3-1.31,4.64-.78,7.14,.37,1.76,1.12,3.41,2.18,4.83l-3.5,4.46c-.12,.17-.17,.38-.15,.59,.02,.21,.12,.4,.28,.54,.16,.14,.35,.2,.55,.19,.2-.01,.39-.11,.52-.27l3.35-4.28c2.67,2.73,6.52,4.1,10.35,3.25,3.7-.82,6.45-3.04,8.14-6.6,1.3-2.74,1.61-5.6,.62-8.55-.66-1.93-1.48-3.79-2.46-5.57Z"/>
      </g>
      <path class="cls-11" d="M416.29,1211.15v12.62h14.76v14.19h11.48v-14.19h14.76v-12.62h-14.76v-14.19h-11.48v14.19h-14.76Z"/>
    </g>
  </g>
</svg>