<?xml version="1.0" encoding="UTF-8"?>
<svg id="_圖層_2" data-name="圖層 2" xmlns="http://www.w3.org/2000/svg" viewBox="0 0 545.57 1959.03">
  <defs>
    <style>
      .cls-1 {
        fill: #4d4d4d;
      }

      .cls-2 {
        fill: #789090;
      }

      .cls-3 {
        fill: #333;
      }

      .cls-4 {
        fill: none;
        stroke: #4d4d4d;
        stroke-miterlimit: 10;
      }
    </style>
  </defs>
  <g id="_圖層_1-2" data-name="圖層 1">
    <g>
      <path class="cls-3" d="M76.35,234.28h-12.46v-24.2h2.66v21.77h9.8v2.44Z"/>
      <path class="cls-3" d="M85.96,234.28h-2.66v-24.2h2.66v24.2Z"/>
      <path class="cls-3" d="M115.01,234.28h-3.35l-12.65-19.55c-.28-.46-.53-.94-.75-1.45h-.09c.08,.5,.13,1.58,.13,3.25v17.75h-2.68v-24.2h3.54l12.3,19.34c.63,1,.95,1.55,.99,1.66h.06c-.12-.8-.17-2.02-.17-3.64v-17.36h2.68v24.2Z"/>
      <path class="cls-3" d="M137.37,234.28h-12.74v-24.2h12.19v2.44h-9.53v8.23h8.81v2.44h-8.81v8.66h10.08v2.44Z"/>
      <path class="cls-3" d="M164.45,216.29c-.53,6.29-.8,9.45-.8,9.48,0,2.36,.69,3.55,2.07,3.55,1.27,0,2.31-.67,3.12-2.01,.8-1.34,1.21-3.04,1.21-5.1,0-3.12-.99-5.68-2.97-7.66-1.98-1.98-4.72-2.97-8.2-2.97s-6.11,1.17-8.31,3.5c-2.2,2.33-3.3,5.28-3.3,8.83s1.04,6.3,3.13,8.44c2.09,2.14,4.9,3.2,8.45,3.2,2.78,0,5.16-.46,7.14-1.38v2.02c-1.96,.83-4.39,1.25-7.29,1.25-4.09,0-7.39-1.23-9.89-3.7-2.5-2.47-3.75-5.7-3.75-9.7s1.31-7.56,3.94-10.26c2.62-2.69,5.97-4.04,10.03-4.04,3.8,0,6.96,1.14,9.49,3.41,2.53,2.27,3.79,5.25,3.79,8.92,0,2.66-.66,4.84-1.97,6.55-1.31,1.71-2.91,2.57-4.79,2.57-2.45,0-3.69-1.35-3.71-4.06h-.08c-.83,2.71-2.46,4.06-4.88,4.06-1.56,0-2.8-.57-3.74-1.7-.94-1.14-1.41-2.66-1.41-4.58,0-2.54,.65-4.65,1.96-6.34,1.31-1.68,3.02-2.52,5.14-2.52,.74,0,1.45,.2,2.12,.6,.67,.4,1.1,.93,1.29,1.59h.06s.07-.67,.17-1.95h2Zm-10.47,8.66c0,1.31,.28,2.36,.84,3.16,.56,.79,1.36,1.19,2.4,1.19,1.44,0,2.57-.71,3.39-2.12,.82-1.42,1.23-3.28,1.23-5.58,0-2.44-1.03-3.66-3.1-3.66-1.4,0-2.54,.66-3.43,1.98-.89,1.32-1.33,3-1.33,5.03Z"/>
      <path class="cls-3" d="M193.83,229.76h-5.6v6.17h-1.64v-6.17h-6.06v-1.62h6.06v-3.62h-5.29v-1.59h2.93c-.25-1.46-.7-3.07-1.35-4.83h-2.14v-1.58h5.85v-3.3h-5.09v-1.56h5.09v-3.61h1.61v3.61h4.84v1.56h-4.84v3.3h5.32v1.58h-1.86c-.34,1.59-.78,3.2-1.31,4.83h2.69v1.59h-4.81v3.62h5.6v1.62Zm-3.88-11.67h-5.29c.5,1.62,.91,3.23,1.22,4.83h2.86c.52-1.61,.92-3.22,1.21-4.83Zm18.47,16.64l-.92,1.28c-1.49-.95-3.02-2.29-4.59-4.03-1.09,1.41-2.5,2.74-4.24,4h-.13l-1.08-1.16c1.85-1.23,3.33-2.57,4.45-4.03-1.89-2.69-3.24-6.2-4.04-10.53h-1.31v15.67h-1.6v-27.12h11.93c.04,2.55-.03,4.32-.22,5.3-.19,.98-.6,1.64-1.23,1.98-.63,.33-2.06,.46-4.3,.39l-.49-1.5c2.3,0,3.58-.05,3.84-.16s.47-.52,.61-1.23c.14-.71,.2-1.78,.16-3.21h-8.72v8.27h10.36c-.31,4.93-1.33,8.94-3.05,12.03,1.26,1.6,2.78,2.96,4.56,4.06Zm-3.27-14.47h-5.7c.87,4.08,2,7.09,3.4,9.03,1.25-2.44,2.02-5.45,2.3-9.03Z"/>
      <path class="cls-3" d="M222.52,208.42l-1.85,5.64v21.75h-1.64v-17.62c-.75,1.76-1.54,3.32-2.36,4.67l-1.06-1.56c1.95-3.31,3.73-7.8,5.32-13.45l1.6,.58Zm2.38,24.88h-1.57v-20.52h1.57v20.52Zm19-12.67l-.92,1.56c-3.58-1.05-6.18-2.13-7.8-3.23-2.66,1.49-5.46,2.57-8.39,3.23l-.85-1.5c3.63-.92,6.22-1.85,7.76-2.8-1.47-1.26-2.54-2.39-3.21-3.39l1.49-.7c1,1.38,2.06,2.44,3.16,3.2,1.68-1.15,3.12-2.78,4.3-4.89h-8.69c-.99,1.39-2.15,2.61-3.48,3.67l-1.44-1.02c2.31-1.8,4.24-4.16,5.81-7.08l1.74,.42c-.56,.97-1.05,1.76-1.46,2.36h11.65v1.64h-2.32c-1.37,2.6-2.93,4.54-4.68,5.81,1.76,1.11,4.2,2.02,7.31,2.7Zm-7.01,1.66c-2.34,2.03-5.57,3.52-9.69,4.45l-.89-1.44c3.94-.81,7.02-2.17,9.24-4.08l1.35,1.06Zm3.55,2.38c-3.18,3.16-7.43,5.29-12.73,6.39l-.92-1.56c5.34-1,9.43-2.95,12.27-5.86l1.38,1.03Zm3.11,2.66c-3.8,4.94-9.07,7.83-15.81,8.67l-.89-1.55c7-.96,12.06-3.62,15.17-8l1.53,.88Z"/>
      <path class="cls-3" d="M268.05,223.87l-1.13,1.22c-1.56-1.7-3.28-3.22-5.17-4.58l1.19-1.25c2.13,1.59,3.83,3.13,5.1,4.61Z"/>
      <path class="cls-3" d="M285.61,222.67c0-4.27,.7-7.5,2.09-9.7,1.39-2.2,3.4-3.3,6.03-3.3,5.04,0,7.56,4.14,7.56,12.41,0,4.02-.69,7.13-2.07,9.32-1.38,2.19-3.39,3.29-6.03,3.29-2.46,0-4.34-1.05-5.64-3.16-1.29-2.1-1.94-5.06-1.94-8.86Zm2.66-.14c0,6.62,1.73,9.94,5.2,9.94s5.15-3.36,5.15-10.08-1.67-10.48-5.02-10.48c-3.55,0-5.32,3.54-5.32,10.62Z"/>
      <path class="cls-3" d="M312.91,221.53c-2.92-1.38-4.38-3.34-4.38-5.91,0-1.77,.68-3.21,2.03-4.3,1.36-1.1,3.04-1.65,5.04-1.65,1.79,0,3.31,.51,4.56,1.54,1.24,1.03,1.86,2.37,1.86,4.04,0,2.69-1.5,4.78-4.51,6.28v.06c3.54,1.33,5.31,3.52,5.31,6.56,0,2.06-.74,3.67-2.21,4.81-1.47,1.15-3.44,1.72-5.9,1.72-2.01,0-3.7-.58-5.05-1.74-1.35-1.16-2.03-2.68-2.03-4.55,0-3.1,1.76-5.37,5.28-6.8v-.06Zm2.13,1.33c-3.14,1.25-4.71,3.05-4.71,5.41,0,1.3,.47,2.33,1.41,3.07,.94,.75,2.13,1.12,3.58,1.12s2.55-.37,3.46-1.12c.91-.74,1.36-1.73,1.36-2.96,0-2.46-1.7-4.3-5.1-5.52Zm4.27-7.27c0-1.15-.36-2.04-1.09-2.7-.73-.65-1.69-.98-2.89-.98-1.11,0-2.07,.34-2.88,1.02-.81,.68-1.22,1.54-1.22,2.59,0,2.15,1.33,3.77,3.99,4.86,2.72-1.15,4.09-2.74,4.09-4.8Z"/>
      <path class="cls-3" d="M329.18,222.67c0-4.27,.7-7.5,2.09-9.7,1.39-2.2,3.4-3.3,6.03-3.3,5.04,0,7.56,4.14,7.56,12.41,0,4.02-.69,7.13-2.07,9.32-1.38,2.19-3.39,3.29-6.03,3.29-2.46,0-4.34-1.05-5.64-3.16-1.29-2.1-1.94-5.06-1.94-8.86Zm2.66-.14c0,6.62,1.73,9.94,5.2,9.94s5.15-3.36,5.15-10.08-1.67-10.48-5.02-10.48c-3.55,0-5.32,3.54-5.32,10.62Z"/>
      <path class="cls-3" d="M350.97,222.67c0-4.27,.7-7.5,2.09-9.7,1.39-2.2,3.4-3.3,6.03-3.3,5.04,0,7.56,4.14,7.56,12.41,0,4.02-.69,7.13-2.07,9.32-1.38,2.19-3.39,3.29-6.03,3.29-2.46,0-4.34-1.05-5.64-3.16-1.29-2.1-1.94-5.06-1.94-8.86Zm2.66-.14c0,6.62,1.73,9.94,5.2,9.94s5.15-3.36,5.15-10.08-1.67-10.48-5.02-10.48c-3.55,0-5.32,3.54-5.32,10.62Z"/>
      <path class="cls-3" d="M400.75,219.46h-1.63v-5.47h-11.22v6.33h-1.61v-6.33h-10.47v5.47h-1.67v-6.98h12.15v-2.36h-10.99v-1.5h24.4v1.5h-11.8v2.36h12.85v6.98Zm.97,12.58c-.15,1.3-.48,2.23-.99,2.78-.52,.55-1.43,.87-2.74,.95s-2.78,.12-4.42,.12c-1.42,0-2.76-.03-4.02-.09s-2.11-.3-2.55-.72c-.44-.42-.66-1.08-.66-1.98v-2.36h-10.24v-9.16h22.18v9.16h-10.25v2.48c0,.27,.09,.47,.28,.61,.19,.14,.87,.24,2.04,.32s2.48,.12,3.92,.12c2.49,0,3.96-.06,4.4-.18,.44-.12,.76-.44,.96-.96,.2-.52,.33-1.17,.38-1.95l1.71,.88Zm-16.75-12.7c-2.57,.67-4.98,1.07-7.23,1.2l-.52-1.47c2.38-.11,4.78-.44,7.22-.98l.53,1.25Zm0-3.27l-.53,1.38c-1.77-.44-4.11-.77-7-1l.7-1.38c2.67,.23,4.95,.56,6.82,1Zm1.36,9.31v-2.31h-8.56v2.31h8.56Zm0,3.83v-2.39h-8.56v2.39h8.56Zm10.25-3.83v-2.31h-8.56v2.31h8.56Zm0,3.83v-2.39h-8.56v2.39h8.56Zm.96-9.84l-.74,1.34c-2.24-.59-4.76-1.01-7.56-1.25l.7-1.28c3.29,.28,5.82,.68,7.59,1.19Zm-.22-2.89c-2.65,.47-5.09,.78-7.31,.94l-.49-1.31c2.21-.17,4.62-.5,7.22-1l.58,1.38Z"/>
      <path class="cls-3" d="M419.64,212.87h-10.85v-1.61h4.74c-.32-1.17-.74-2.2-1.24-3.09l1.53-.45c.53,.96,1.02,2.14,1.47,3.55h4.34v1.61Zm-.75,4.64h-9.36v-1.61h9.36v1.61Zm0,4.61h-9.36v-1.58h9.36v1.58Zm-.34,12.95h-1.63v-1.66h-5.32v2.52h-1.71v-10.61h8.66v9.75Zm-1.63-3.33v-4.8h-5.32v4.8h5.32Zm19.65-13.53h-7.47v5.19h5.64v12.53h-1.66v-2.39h-9.42v2.39h-1.71v-12.53h5.48v-5.19h-7.01v-1.64h7.01v-5.17c-1.9,.2-3.92,.31-6.06,.34l-.61-1.59c5.89-.06,10.68-.77,14.37-2.11l.83,1.5c-2.29,.73-4.57,1.26-6.86,1.59v5.44h7.47v1.64Zm-3.49,13.77v-6.98h-9.42v6.98h9.42Z"/>
      <path class="cls-3" d="M460.99,223.87l-1.13,1.22c-1.56-1.7-3.28-3.22-5.17-4.58l1.19-1.25c2.13,1.59,3.83,3.13,5.1,4.61Z"/>
      <path class="cls-3" d="M52.13,290.12h-6.76v3.12c0,1.79-1,2.69-2.99,2.69-.78,0-1.77-.02-2.97-.06l-.77-1.59c.68,.03,1.52,.05,2.52,.05,1.25,0,1.98-.06,2.19-.17,.21-.11,.31-.33,.31-.64v-3.39H24.27v-1.5h19.39v-1.61h1.71v1.61h6.76v1.5Zm-.42-18.69h-12.62v2.2h10.13v8.7h-1.67c1.52,1.32,2.83,2.76,3.91,4.3l-1.35,.92c-.58-.85-1.1-1.49-1.53-1.92-8.62,.66-16.37,1-23.25,1.03l-.42-1.48c3.89,.03,8.06-.05,12.51-.25v-2.59h-10.19v-8.7h10.19v-2.2h-12.73v-1.47h12.73v-1.98h1.67v1.98h12.62v1.47Zm-14.29,5.78v-2.14h-8.53v2.14h8.53Zm0,3.69v-2.27h-8.53v2.27h8.53Zm-2.08,12.86l-1.06,1.28c-1.51-1.29-3.08-2.35-4.71-3.17l1.06-1.23c1.49,.71,3.06,1.75,4.71,3.12Zm12.24-16.55v-2.14h-8.48v2.14h8.48Zm0,3.69v-2.27h-8.48v2.27h8.48Zm-.38,3.36c-.6-.59-.99-.97-1.19-1.12l1.05-.8h-7.97v2.5c3.36-.18,6.06-.37,8.11-.58Z"/>
      <path class="cls-3" d="M87.49,294.63l-1.25,1.27c-6.67-4.69-10.95-11.13-12.85-19.33-1.36,7.48-5.61,13.9-12.76,19.27l-1.16-1.38c2.43-1.66,4.65-3.73,6.67-6.22,2.01-2.49,3.55-5.23,4.6-8.23,1.05-2.99,1.62-7.04,1.69-12.15h1.78c-.06,5.91,1.12,11.14,3.54,15.7,2.42,4.56,5.67,8.25,9.74,11.07Z"/>
      <path class="cls-3" d="M121.96,283.62c0,2.06-.11,4.07-.34,6.03-.22,1.96-.45,3.22-.67,3.8-.22,.57-.54,1.05-.95,1.45s-.97,.68-1.68,.87c-.71,.19-1.84,.28-3.38,.28l-.64-1.83c.48,.04,1.47,.06,2.97,.06,.52,0,.97-.12,1.35-.35s.64-.56,.8-.98,.33-1.31,.52-2.66c.19-1.35,.31-3.03,.36-5.03h-19.69c-1.5,1.79-3.18,3.45-5.02,4.97l-.97-1.56c4.97-3.94,8.23-8.75,9.78-14.44h-8.53v-1.67h8.91c.48-2.11,.79-3.71,.94-4.8l1.63,.36c-.16,1.18-.43,2.66-.83,4.44h11.8c-.31,1.8-.69,3.66-1.13,5.58h3.18c-.2,1.72-.52,3.55-.97,5.5h2.57Zm-19.46-12.52l-1.47,.91c-.72-1.08-1.62-2.18-2.69-3.3l1.44-.91c1.04,1.05,1.95,2.15,2.72,3.3Zm.83,16.64c-.9,2.98-2.04,5.55-3.43,7.72l-1.53-.83c1.33-1.95,2.48-4.38,3.46-7.3l1.5,.41Zm15.04-8h-14.28c-.54,1.15-1.3,2.44-2.27,3.88h15.84c.29-1.44,.53-2.73,.7-3.88Zm-2.05-5.53h-10.21c-.32,1.22-.76,2.52-1.31,3.91h10.64c.28-1.11,.57-2.42,.88-3.91Zm-8.34,20.8l-1.77,.33c.08-2.12-.19-4.68-.83-7.66l1.58-.34c.5,2.25,.84,4.81,1.02,7.67Zm5.1-1.69l-1.64,.59c-.37-2.2-.95-4.3-1.75-6.3l1.53-.52c.7,1.82,1.32,3.9,1.86,6.22Zm4.59-1.77l-1.52,.7c-.45-1.49-1.15-3.12-2.11-4.89l1.44-.7c.81,1.41,1.54,3.04,2.19,4.89Z"/>
      <path class="cls-3" d="M138.5,268.32c-.69,1.64-1.65,3.39-2.88,5.25v12.06h-1.67v-9.7c-.98,1.19-2.04,2.3-3.18,3.33l-1.08-1.3c3.12-2.94,5.57-6.34,7.34-10.22l1.47,.58Zm-2.69,18.88c-1.23,3.17-2.59,5.63-4.07,7.39l-1.44-.92c1.69-2.04,3.03-4.41,4.01-7.11l1.5,.64Zm20.9-16.89c-.52,2.07-1.11,3.9-1.75,5.47l-1.61-.41c.51-1.22,.92-2.38,1.22-3.47h-11.6c-1.28,1.77-2.69,3.42-4.21,4.94l-1.31-1.16c2.81-2.75,4.82-5.42,6.03-8l1.55,.67c-.22,.55-.56,1.2-1.03,1.95h12.73Zm-11.79,6.81c-1.84,3.06-3.62,5.32-5.35,6.78l-1.25-1.17c1.87-1.67,3.62-3.84,5.26-6.53l1.35,.92Zm6.73,14.22c-.12,1.28-.36,2.25-.74,2.91s-.87,1.08-1.49,1.26c-.62,.18-1.78,.27-3.51,.27-1.59,0-2.97-.03-4.16-.08-1.19-.05-1.95-.16-2.29-.32-.34-.16-.62-.42-.83-.79s-.32-.96-.32-1.78v-6.5h1.69v6.62c0,.51,.17,.84,.52,.99,.34,.15,2.78,.23,7.31,.23,.78,0,1.33-.26,1.64-.78,.31-.52,.5-1.46,.57-2.81l1.61,.78Zm-3.69-1.64l-1.28,1.03c-.93-1.7-2.11-3.3-3.55-4.81l1.25-1.08c1.56,1.71,2.76,3.33,3.58,4.86Zm.94-4.34h-1.67v-11.5h1.67v11.5Zm8.45-2.86l-1.38,1.09c-1.11-2.1-2.69-4.26-4.74-6.47l1.22-1.02c2.19,2.22,3.82,4.35,4.9,6.39Zm.33,11.47l-1.49,.86c-1.02-2.23-2.44-4.55-4.26-6.95l1.31-.92c2.09,2.73,3.56,5.07,4.43,7.02Z"/>
      <path class="cls-3" d="M177.71,278.34h-9.45v17.41h-1.64v-27h11.1v9.59Zm-1.67-5.66v-2.41h-7.78v2.41h7.78Zm0,4.12v-2.62h-7.78v2.62h7.78Zm12.44,10.75h-5.07v7.52h-1.66v-7.52h-4.87c-.14,2.97-1.46,5.53-3.98,7.67l-1.61-.92c2.49-2.08,3.81-4.33,3.94-6.75h-5.2v-1.59h5.32v-3.69h-4.23v-1.53h16.09v1.53h-3.82v3.69h5.07v1.59Zm-6.73-1.59v-3.69h-4.71v3.69h4.71Zm10.03,7.42c0,.89-.25,1.49-.76,1.81-.51,.32-1.41,.48-2.72,.48-.54,0-1.14-.01-1.78-.03l-.64-1.69c.53,.08,1.71,.12,3.52,.12,.47,0,.7-.23,.7-.7v-15.05h-9.36v-9.59h11.04v24.64Zm-1.67-20.7v-2.41h-7.65v2.41h7.65Zm0,4.12v-2.62h-7.65v2.62h7.65Z"/>
      <path class="cls-3" d="M209.48,287.34c-2.02,1.08-4.97,2.5-8.83,4.25l-.34-1.67c1.05-.44,2.39-1.04,4.01-1.81v-10.08h-3.58v-1.58h3.58v-7.48h1.63v7.48h3.24v1.58h-3.24v9.31c.86-.38,1.98-.94,3.37-1.7l.17,1.7Zm7.08,4.77c-2.04,1.53-4.57,2.84-7.59,3.94l-.77-1.52c2.91-.99,5.36-2.21,7.34-3.67l1.02,1.25Zm11.87-2.11h-18.94v-1.52h2.18v-14.39h5.42c.24-.6,.45-1.27,.64-1.98h-7.89v-1.55h8.25c.27-.98,.47-1.91,.6-2.78l1.58,.27c-.16,.98-.32,1.82-.48,2.52h7.95v1.55h-8.34c-.15,.72-.32,1.38-.53,1.98h6.83v14.39h2.75v1.52Zm-4.43-12.48v-1.92h-10.68v1.92h10.68Zm0,3.55v-2.05h-10.68v2.05h10.68Zm0,3.72v-2.25h-10.68v2.25h10.68Zm0,3.7v-2.23h-10.68v2.23h10.68Zm4.34,6.05l-.97,1.41c-1.96-1.38-4.32-2.63-7.08-3.77l.92-1.34c2.77,1.14,5.14,2.37,7.12,3.7Z"/>
      <path class="cls-3" d="M263.72,291.37h-13.09v4.44h-1.66v-4.44h-13.09v-1.55h13.09v-2.59h-9.78v-10.11h21.26v10.11h-9.81v2.59h13.09v1.55Zm-15.32-16.42h-10.22v-6.3h10.22v6.3Zm-1.63-1.62v-3.11h-6.9v3.11h6.9Zm2.21,7.92v-2.58h-8.11v2.58h8.11Zm0,4.42v-2.88h-8.11v2.88h8.11Zm9.81-4.42v-2.58h-8.16v2.58h8.16Zm0,4.42v-2.88h-8.16v2.88h8.16Zm2.75-10.72h-10.19v-6.3h10.19v6.3Zm-1.67-1.56v-3.14h-6.89v3.14h6.89Z"/>
      <path class="cls-3" d="M284.36,289.76h-5.6v6.17h-1.64v-6.17h-6.06v-1.62h6.06v-3.62h-5.29v-1.59h2.93c-.25-1.46-.7-3.07-1.35-4.83h-2.14v-1.58h5.85v-3.3h-5.09v-1.56h5.09v-3.61h1.61v3.61h4.84v1.56h-4.84v3.3h5.32v1.58h-1.86c-.34,1.59-.78,3.2-1.31,4.83h2.69v1.59h-4.81v3.62h5.6v1.62Zm-3.88-11.67h-5.29c.5,1.62,.91,3.23,1.22,4.83h2.86c.52-1.61,.92-3.22,1.21-4.83Zm18.47,16.64l-.92,1.28c-1.49-.95-3.02-2.29-4.59-4.03-1.09,1.41-2.5,2.74-4.24,4h-.13l-1.08-1.16c1.85-1.23,3.33-2.57,4.45-4.03-1.89-2.69-3.24-6.2-4.04-10.53h-1.31v15.67h-1.6v-27.12h11.93c.04,2.55-.03,4.32-.22,5.3-.19,.98-.6,1.64-1.23,1.98-.63,.33-2.06,.46-4.3,.39l-.49-1.5c2.3,0,3.58-.05,3.84-.16s.47-.52,.61-1.23c.14-.71,.2-1.78,.16-3.21h-8.72v8.27h10.36c-.31,4.93-1.33,8.94-3.05,12.03,1.26,1.6,2.78,2.96,4.56,4.06Zm-3.27-14.47h-5.7c.87,4.08,2,7.09,3.4,9.03,1.25-2.44,2.02-5.45,2.3-9.03Z"/>
      <path class="cls-3" d="M313.05,268.42l-1.85,5.64v21.75h-1.64v-17.62c-.75,1.76-1.54,3.32-2.36,4.67l-1.06-1.56c1.95-3.31,3.73-7.8,5.32-13.45l1.6,.58Zm2.38,24.88h-1.57v-20.52h1.57v20.52Zm19-12.67l-.92,1.56c-3.58-1.05-6.18-2.13-7.8-3.23-2.66,1.49-5.46,2.57-8.39,3.23l-.85-1.5c3.63-.92,6.22-1.85,7.76-2.8-1.47-1.26-2.54-2.39-3.21-3.39l1.49-.7c1,1.38,2.06,2.44,3.16,3.2,1.68-1.15,3.12-2.78,4.3-4.89h-8.69c-.99,1.39-2.15,2.61-3.48,3.67l-1.44-1.02c2.31-1.8,4.24-4.16,5.81-7.08l1.74,.42c-.56,.97-1.05,1.76-1.46,2.36h11.65v1.64h-2.32c-1.37,2.6-2.93,4.54-4.68,5.81,1.76,1.11,4.2,2.02,7.31,2.7Zm-7.01,1.66c-2.34,2.03-5.57,3.52-9.69,4.45l-.89-1.44c3.94-.81,7.02-2.17,9.24-4.08l1.35,1.06Zm3.55,2.38c-3.18,3.16-7.43,5.29-12.73,6.39l-.92-1.56c5.34-1,9.43-2.95,12.27-5.86l1.38,1.03Zm3.11,2.66c-3.8,4.94-9.07,7.83-15.81,8.67l-.89-1.55c7-.96,12.06-3.62,15.17-8l1.53,.88Z"/>
      <path class="cls-3" d="M352.68,295.26h-1.61v-2.75h-6.92v3.39h-1.63v-22.69h2.97c.8-1.43,1.56-3.26,2.29-5.5l1.6,.33c-.38,1.12-1.1,2.85-2.18,5.17h5.48v22.05Zm-1.61-13.56v-6.88h-6.92v6.88h6.92Zm0,9.19v-7.58h-6.92v7.58h6.92Zm17.67-17.64c-.12,4.79-.36,9.25-.7,13.36-.34,4.11-.68,6.54-1.03,7.27-.34,.73-.79,1.25-1.32,1.55-.54,.31-1.56,.46-3.06,.46-.66,0-1.52-.02-2.58-.05l-.52-1.62c.88,.03,1.82,.05,2.83,.05,.95,0,1.56-.01,1.82-.03,.27-.02,.55-.15,.84-.4,.29-.24,.5-.53,.63-.86,.12-.33,.29-1.55,.5-3.68,.21-2.12,.38-4.47,.52-7.02,.14-2.56,.23-5.04,.3-7.45h-8.36c-1.12,2.22-2.41,4.33-3.88,6.33l-1.31-.92c2.81-3.68,4.79-7.78,5.96-12.3l1.63,.42c-.52,1.71-1.11,3.34-1.75,4.89h9.49Zm-5.9,14.34l-1.35,.95c-1.03-2.38-2.58-4.86-4.65-7.45l1.38-.89c1.92,2.31,3.46,4.78,4.62,7.39Z"/>
      <path class="cls-3" d="M387.62,293.6c0,.61-.18,1.15-.53,1.59-.35,.45-1.16,.67-2.43,.67-.64,0-1.36-.04-2.16-.12l-.55-1.66c.9,.09,1.75,.14,2.55,.14,.67,0,1.1-.06,1.29-.2,.19-.13,.29-.39,.29-.79v-8.31h-5.51c-.38,4.59-1.16,8.26-2.35,11l-1.44-1.08c1.61-3.62,2.41-8.37,2.41-14.23v-11.91h8.42v24.89Zm-1.53-10.23v-5.89h-5.26l-.09,5.89h5.35Zm0-7.5v-5.56h-5.26v5.56h5.26Zm18.88,18.8l-.99,1.44c-2.26-1.24-4.09-2.54-5.48-3.91-1.15,1.17-2.72,2.41-4.71,3.73l-1.25-1.17c2.11-1.3,3.72-2.54,4.84-3.72-1.99-2.44-3.49-5.79-4.49-10.05h-.89v14.94h-1.6v-27.19h13.74c-.24,3.34-.52,5.52-.84,6.52s-.88,1.63-1.7,1.9-2.31,.36-4.48,.29l-.55-1.67c.61,.05,1.22,.08,1.83,.08,1.28,0,2.14-.07,2.58-.21,.43-.14,.73-.49,.88-1.06,.15-.57,.31-1.99,.48-4.27h-10.35v9.09h11.63c-.46,4.91-1.79,8.76-4.01,11.55,1.36,1.35,3.14,2.59,5.35,3.72Zm-3.19-13.67h-7.25c.89,3.69,2.2,6.59,3.94,8.7,1.74-2.27,2.84-5.17,3.3-8.7Z"/>
      <path class="cls-3" d="M424.34,278.28c-.15,2.73-.98,5.18-2.5,7.36l-1.22-1.16c.92-1.39,1.56-2.92,1.93-4.61h-2.99v14.05c0,.42-.17,.85-.51,1.3-.34,.45-1.2,.68-2.59,.68-.53,0-1.02-.03-1.47-.09l-.94-1.72c1.36,.1,2.42,.16,3.18,.16,.16,0,.32-.08,.5-.23,.18-.16,.27-.31,.27-.47v-11.55c-1.56,3.92-3.18,6.97-4.87,9.17l-1.1-1.28c1.88-2.44,3.58-5.78,5.1-10.02h-4.98v-1.59h7.09c-1.34-1.53-2.98-2.97-4.93-4.31l1.17-1.06c.76,.52,1.73,1.27,2.9,2.23,1.48-1.69,2.66-3.3,3.52-4.83h-8.62v-1.59h10.46v1.59c-1.05,1.94-2.43,3.9-4.12,5.89l1.1,1.22-.99,.86h4.62Zm13.77,7.33c-.06,2.18-.23,4.14-.52,5.89s-.57,2.81-.85,3.17c-.29,.36-.65,.68-1.08,.95-.43,.27-1.81,.36-4.12,.29l-.77-1.72c.66,.05,1.37,.08,2.14,.08,1.17,0,1.87-.06,2.09-.17,.22-.11,.4-.28,.52-.51,.13-.22,.27-.93,.44-2.12,.17-1.19,.32-2.61,.45-4.27h-5.35c-.9,4.11-3.55,7.05-7.95,8.81l-1.22-1.31c1.76-.54,3.36-1.51,4.79-2.91,1.43-1.4,2.34-2.93,2.74-4.59h-5.09v-1.59h5.48c.16-.84,.25-1.91,.28-3.2l1.61,.06c0,.78-.09,1.83-.27,3.14h6.67Zm1.89-3.88l-.92,1.44c-2.46-.73-4.76-1.87-6.9-3.42-2,1.48-4.05,2.6-6.15,3.36l-1.13-1.38c2.01-.6,4-1.61,5.96-3.03-1.31-1.31-2.28-2.5-2.88-3.56l1.41-.8c.73,1.26,1.64,2.37,2.72,3.33,1.46-1.25,2.59-2.97,3.4-5.16h-6.86c-1.37,1.73-2.62,3.04-3.76,3.94l-1.24-1.14c2.38-1.88,4.39-4.39,6.03-7.53l1.6,.61c-.39,.79-.89,1.64-1.5,2.53h9.74v1.59h-2.27c-.83,2.48-2.1,4.53-3.79,6.16,1.97,1.39,4.15,2.41,6.54,3.06Z"/>
      <path class="cls-3" d="M453.57,285.63c-1.18,3.41-2.82,6.88-4.92,10.41l-1.41-1.16c1.83-2.89,3.42-6.27,4.77-10.14l1.55,.89Zm-.08-4.86l-1.17,1.25c-1.45-1.54-3.13-2.95-5.04-4.23l1.03-1.31c2.14,1.49,3.87,2.92,5.18,4.3Zm.58-8.58l-1.11,1.34c-1.93-2.09-3.51-3.57-4.74-4.42l1.11-1.31c1.9,1.52,3.48,2.98,4.74,4.39Zm4.92,10.27c0,3.8-.32,6.62-.95,8.47-.64,1.84-2,3.51-4.09,5l-1.31-1.23c1.21-.7,2.31-1.84,3.29-3.44s1.43-4.53,1.36-8.8h1.71Zm16.37-1.31l-1.41,1.09c-.51-.81-1.15-1.68-1.93-2.59-6.3,.73-11.77,1.26-16.4,1.59l-.42-1.66c2.47-1.34,4.63-3.58,6.48-6.72h-6.7v-1.67h7.65c.41-.77,.91-1.91,1.5-3.42l1.74,.45c-.2,.53-.64,1.52-1.31,2.97h10.28v1.67h-11.15c-1.59,2.81-3.37,4.98-5.35,6.5,4.1-.26,8.23-.64,12.4-1.12-.87-.99-1.82-1.91-2.85-2.75l1.31-1.12c2.43,2.14,4.48,4.4,6.15,6.78Zm-10.96,14.78h-1.67v-13.47h1.67v13.47Zm10.83-.38h-4.26c-1.61,0-2.41-.76-2.41-2.27v-10.83h1.63v10.59c0,.57,.32,.86,.97,.86h4.07v1.64Z"/>
      <path class="cls-3" d="M493.55,283.81l-1.16,1.28c-.77-1.44-1.69-2.77-2.75-4v14.81h-1.67v-14.88c-1.51,3.4-2.95,6.03-4.32,7.91l-1.13-1.31c2.1-2.91,3.88-6.32,5.35-10.23h-5.2v-1.61h5.29v-4.73l-3.91,.73-.86-1.59c3.74-.44,6.83-1.17,9.27-2.2l.99,1.47c-1.57,.53-2.83,.94-3.8,1.22v5.11h3.8v1.61h-3.8v1.31c1.95,2.17,3.26,3.87,3.91,5.11Zm16.98,11.33h-18.05v-1.56h8.23v-4.89h-7.11v-1.61h7.11v-4.64c-3.42,.22-5.54,.34-6.34,.36l-.77-1.64c5.9-.1,10.98-.67,15.26-1.69l1.08,1.44c-2.15,.5-4.66,.95-7.53,1.34v4.83h6.89v1.61h-6.89v4.89h8.11v1.56Zm-2.05-17.53h-13.76v-8.73h13.76v8.73Zm-1.71-1.62v-5.52h-10.35v5.52h10.35Z"/>
    </g>
    <g>
      <g>
        <path class="cls-1" d="M251.8,110.97c-.68-.3-1.42-.51-2.03-.93-1.26-.86-1.88-2.13-1.91-3.66-.03-1.82,0-3.64,0-5.45,0-14.56,.04-29.13-.03-43.69-.02-3.01,1.26-5.11,4.09-5.7h28.61c.2,.17,.43,.32,.61,.51,3.58,3.58,7.16,7.16,10.71,10.75,.24,.24,.42,.66,.44,1,.06,1.37,.05,2.75,.05,4.12,0,12.64,0,25.29,0,37.93,0,2.74-1.2,4.31-3.84,5.04-.03,0-.06,.05-.09,.07h-36.6Zm27.56-57.56h-26.59c-1.92,0-3.05,1.14-3.05,3.07v49.55c0,1.96,1.13,3.08,3.1,3.08h34.51c2.05,0,3.15-1.11,3.15-3.15v-41.41h-9.83c-1.02,0-1.28-.27-1.28-1.31v-9.82h0Zm9.46,9.25c-2.51-2.52-5.09-5.1-7.57-7.59v7.59h7.57Z"/>
        <path class="cls-1" d="M270.2,77.55h-13.43c-.17,0-.35,.01-.52,0-.51-.06-.8-.36-.85-.87-.04-.48,.31-.89,.81-.97,.17-.02,.35-.02,.52-.02h26.98c.19,0,.39-.02,.58,.03,.46,.11,.75,.43,.74,.91-.01,.5-.31,.82-.81,.9-.19,.03-.38,.01-.58,.01h-13.43Z"/>
        <path class="cls-1" d="M270.22,84.97h-13.43c-.19,0-.39,.02-.58-.01-.5-.08-.8-.39-.81-.9,0-.52,.29-.82,.79-.92,.17-.03,.35-.02,.52-.02h26.98c.17,0,.35-.02,.52,.01,.5,.09,.79,.4,.82,.91,.02,.47-.35,.87-.85,.93-.17,.02-.35,0-.52,0h-13.43Z"/>
        <path class="cls-1" d="M270.16,90.54h13.49c.19,0,.39-.02,.58,.02,.5,.1,.8,.41,.8,.92s-.31,.82-.81,.91c-.17,.03-.35,.02-.52,.02h-26.98c-.15,0-.31,0-.46,0-.51-.06-.86-.44-.86-.93,0-.49,.36-.86,.87-.91,.17-.02,.35,0,.52,0h13.38Z"/>
        <path class="cls-1" d="M270.2,70.12h-13.43c-.17,0-.35,.01-.52,0-.51-.06-.82-.36-.85-.87-.03-.52,.26-.84,.75-.96,.18-.05,.38-.03,.58-.03h26.98c.17,0,.35-.02,.52,.02,.5,.1,.78,.41,.8,.92,.02,.48-.37,.86-.87,.91-.17,.02-.35,0-.52,0h-13.43Z"/>
        <path class="cls-1" d="M266.45,99.83h-9.73c-.15,0-.31,0-.46,0-.51-.05-.86-.43-.87-.92,0-.49,.34-.87,.86-.93,.15-.02,.31,0,.46,0h19.57c.19,0,.39-.02,.58,.02,.47,.11,.75,.42,.75,.9,0,.51-.3,.82-.8,.92-.17,.03-.35,.01-.52,.01h-9.84Z"/>
      </g>
      <circle class="cls-4" cx="270.08" cy="81.26" r="80.76"/>
    </g>
    <g>
      <path class="cls-3" d="M104.53,598.28h-14.51v-2.36l7.06-7.09c2.34-2.35,3.77-4.06,4.31-5.12,.54-1.06,.81-2.18,.81-3.37,0-1.43-.4-2.53-1.21-3.3-.81-.77-1.97-1.16-3.48-1.16-2.16,0-4.24,.93-6.23,2.8v-2.78c1.87-1.49,4.06-2.23,6.57-2.23,2.09,0,3.76,.58,5.02,1.73,1.26,1.16,1.89,2.72,1.89,4.7,0,1.52-.42,3.02-1.24,4.49-.83,1.47-2.4,3.36-4.7,5.66l-5.65,5.58v.06h11.38v2.38Z"/>
      <path class="cls-3" d="M127.58,591.78h-3.13v6.5h-2.6v-6.5h-11.46v-1.72l10.83-15.98h3.22v15.55h3.13v2.16Zm-5.73-2.16v-10.66c0-.74,.02-1.58,.06-2.52h-.06c-.08,.23-.39,.85-.92,1.86l-7.62,11.31h8.55Z"/>
      <path class="cls-3" d="M141.59,578.67c-1.68,7.23-3.76,12.29-6.25,15.19l-1.38-1.02c2.42-2.99,4.41-7.86,5.96-14.62l1.66,.45Zm7.76,18.94c0,.54-.18,1.02-.53,1.42-.35,.41-.75,.67-1.17,.79-.43,.12-1.22,.18-2.38,.18-.93,0-1.67-.02-2.22-.06l-.67-1.69c2.81,.07,4.39,.03,4.74-.14,.35-.17,.53-.49,.53-.98v-25.19h1.71v25.67Zm12.73-4.55l-1.63,.7c-1.48-5.14-3.3-10.09-5.46-14.88l1.64-.67c1.94,4.33,3.76,9.28,5.45,14.84Z"/>
      <path class="cls-3" d="M178.28,598.34h-1.67v-2.53h-4.46v3.23h-1.66v-25.19h7.8v24.48Zm-1.67-14.41v-8.41h-4.46v8.41h4.46Zm0,10.22v-8.61h-4.46v8.61h4.46Zm20.07-17.09h-7.47v4.64h6.61v1.61h-15.01v-1.61h6.73v-4.64h-7.84v-1.69h7.84v-3.5h1.68v3.5h7.47v1.69Zm.74,11.81h-3.55v8.28c0,1.07-.29,1.78-.88,2.13-.58,.35-1.72,.52-3.4,.52-.5,0-1.12-.01-1.85-.03l-.67-1.72c1.03,.07,1.94,.11,2.72,.11,1.05,0,1.72-.08,2-.24,.28-.16,.42-.44,.42-.84v-8.22h-12.52v-1.64h12.52v-2.97h1.64v2.97h3.55v1.64Zm-9.64,6.47l-1.44,.86c-1.13-1.73-2.51-3.36-4.15-4.89l1.41-.97c1.37,1.3,2.76,2.97,4.18,5Z"/>
      <path class="cls-3" d="M230.92,597.09c0,.74-.21,1.32-.63,1.75-.42,.43-.95,.67-1.6,.72-.65,.05-1.51,.08-2.56,.08-.74,0-1.45-.02-2.11-.05l-.7-1.77c1.67,.16,3.24,.23,4.71,.23,.29,0,.56-.11,.8-.34,.24-.23,.36-.52,.36-.88v-17.38h-9.2c.51,4.51,3.26,8.94,8.23,13.28l-1.21,1.17c-4.47-4.03-7.19-7.97-8.16-11.83-1.57,4.17-4.32,8.07-8.27,11.7l-1.19-1.22c3.98-3.26,6.84-7.63,8.59-13.11h-9.97v20.44h-1.72v-22.17h11.82c-.1-.99-.2-2.38-.28-4.16h-3.02v-1.67h4.68c-.03,.5-.05,1.02-.05,1.56,0,1.25,.09,2.67,.28,4.27h11.19v19.36Z"/>
      <path class="cls-3" d="M267.87,594.12h-6.76v3.12c0,1.79-1,2.69-2.99,2.69-.78,0-1.77-.02-2.97-.06l-.77-1.59c.68,.03,1.52,.05,2.52,.05,1.25,0,1.98-.06,2.19-.17,.21-.11,.31-.33,.31-.64v-3.39h-19.39v-1.5h19.39v-1.61h1.71v1.61h6.76v1.5Zm-.42-18.69h-12.62v2.2h10.13v8.7h-1.67c1.52,1.32,2.83,2.76,3.91,4.3l-1.35,.92c-.58-.85-1.1-1.49-1.53-1.92-8.62,.66-16.37,1-23.25,1.03l-.42-1.48c3.89,.03,8.06-.05,12.51-.25v-2.59h-10.19v-8.7h10.19v-2.2h-12.73v-1.47h12.73v-1.98h1.67v1.98h12.62v1.47Zm-14.29,5.78v-2.14h-8.53v2.14h8.53Zm0,3.69v-2.27h-8.53v2.27h8.53Zm-2.08,12.86l-1.06,1.28c-1.51-1.29-3.08-2.35-4.71-3.17l1.06-1.23c1.49,.71,3.06,1.75,4.71,3.12Zm12.24-16.55v-2.14h-8.48v2.14h8.48Zm0,3.69v-2.27h-8.48v2.27h8.48Zm-.38,3.36c-.6-.59-.99-.97-1.19-1.12l1.05-.8h-7.97v2.5c3.36-.18,6.06-.37,8.11-.58Z"/>
      <path class="cls-3" d="M303.23,598.63l-1.25,1.27c-6.67-4.69-10.95-11.13-12.85-19.33-1.36,7.48-5.61,13.9-12.76,19.27l-1.16-1.38c2.43-1.66,4.65-3.73,6.67-6.22,2.01-2.49,3.55-5.23,4.6-8.23,1.05-2.99,1.62-7.04,1.69-12.15h1.78c-.06,5.91,1.12,11.14,3.54,15.7,2.42,4.56,5.67,8.25,9.74,11.07Z"/>
      <path class="cls-3" d="M336.99,599.9h-1.8v-2.75h-21.57v2.75h-1.74v-27.33h25.11v27.33Zm-1.8-4.47v-21.16h-21.57v21.16h21.57Zm-4.74-4.97h-12.18v-11.48h12.18v11.48Zm-1.69-1.69v-8.12h-8.8v8.12h8.8Z"/>
      <path class="cls-3" d="M353.6,588.32c-.86,1.03-1.71,1.9-2.57,2.59v8.92h-1.6v-7.61c-.65,.5-1.52,1.12-2.63,1.86l-1.16-1.19c2.83-1.67,5.08-3.52,6.76-5.56l1.19,.98Zm-.06-5.56c-1.83,1.85-4.11,3.42-6.86,4.7l-.97-1.28c2.69-1.24,4.88-2.66,6.57-4.27l1.25,.84Zm19.97,15.67l-.64,1.38c-3.11-.25-6.17-.83-9.17-1.75-2.84,.88-6.08,1.53-9.74,1.95l-.78-1.38c3.1-.29,5.88-.75,8.34-1.39-1.26-.55-2.63-1.23-4.1-2.05-1.16,.53-2.27,.96-3.33,1.28l-.94-1.25c.87-.24,1.84-.58,2.93-1.02-.65-.49-1.13-.93-1.44-1.31l1.05-.8c.62,.59,1.24,1.09,1.86,1.5,1.29-.71,2.3-1.34,3.01-1.89h-3.83v-6.23c-.58,.44-1.39,.98-2.41,1.62l-1.22-1.22c2.25-1.19,4.11-2.87,5.56-5.05h-10.75v-4.8h7.42v-1.98h-9.11v-1.41h26.92v1.41h-9.06v1.98h7.4v4.8h-11c-.35,.89-.63,1.46-.83,1.72h13.49v1.42h-14.71c-.82,.82-1.33,1.3-1.5,1.44h14.5v6.3h-8.5c-.77,.67-1.27,1.09-1.5,1.28h9.61v1.31c-1.54,1.17-3.23,2.15-5.06,2.94,2.56,.61,5.08,1.01,7.56,1.19Zm-18.2-18.94v-2.11h-5.75v2.11h5.75Zm7.17-3.45v-1.98h-5.57v1.98h5.57Zm0,3.45v-2.11h-5.57v2.11h5.57Zm7.28,8.41v-1.23h-11.38v1.23h11.38Zm0,2.47v-1.19h-11.38v1.19h11.38Zm-1.35,3.94h-9.03l-.39,.19c1.34,.79,2.92,1.51,4.74,2.16,1.68-.66,3.24-1.44,4.68-2.34Zm1.38-14.81v-2.11h-5.67v2.11h5.67Z"/>
      <path class="cls-3" d="M391.24,574.98h-4.15c-.47,3.16-1.13,5.79-1.99,7.91h5.56v14.36h-1.58v-1.38h-3.49v2.02h-1.6v-12.41c-.47,.94-1.07,1.95-1.8,3.03l-1.31-1.08c2.4-3.23,3.97-7.38,4.71-12.45h-4.07v-1.66h9.72v1.66Zm-2.22,19.33v-9.8h-3.43v9.8h3.43Zm19.88,3.72h-12.82v1.81h-1.67v-15.45c-.97,.89-1.69,1.53-2.14,1.92l-1.05-1.16c3.57-3.07,5.88-6,6.92-8.8h-4.23v3.69h-1.64v-5.28h6.54c.47-1.27,.79-2.24,.96-2.92l1.52,.36c-.19,.84-.45,1.7-.78,2.56h7.7v5.28h-1.63v-3.69h-6.67c-.83,2.05-2.11,4.12-3.82,6.2h5.67c-.43-1.26-.8-2.17-1.11-2.72l1.47-.53c.5,1.16,.88,2.24,1.13,3.25h5.21v1.55h-5.51v2.97h5.04v1.5h-5.04v3.14h5.04v1.44h-5.04v3.33h5.96v1.55Zm-7.59-10.95v-2.97h-5.23v2.97h5.23Zm0,4.64v-3.14h-5.23v3.14h5.23Zm0,4.77v-3.33h-5.23v3.33h5.23Z"/>
      <path class="cls-3" d="M426.21,576.78h-9.91v-1.64h4.3c-.39-1.1-.81-2.08-1.28-2.94l1.44-.55c.71,1.27,1.22,2.43,1.53,3.48h3.91v1.64Zm-.61,4.64h-8.59v-1.61h8.59v1.61Zm0,4.55h-8.59v-1.61h8.59v1.61Zm-.61,13.08h-1.6v-1.72h-4.23v2.48h-1.61v-10.75h7.44v9.98Zm-1.6-3.33v-5.02h-4.23v5.02h4.23Zm6.34-6.2c-.72,3.43-1.54,6.02-2.46,7.78l-1.47-.64c1.03-2.19,1.81-4.7,2.33-7.53l1.6,.39Zm13.24-16.86c-.08,2.35-.22,4.64-.41,6.86-.19,2.22-.36,3.53-.49,3.95-.14,.41-.38,.78-.73,1.12-.35,.33-.83,.58-1.45,.74-.62,.16-1.69,.21-3.22,.13l-.49-1.7c1.02,.05,1.76,.08,2.21,.08,1.09,0,1.8-.31,2.14-.92,.34-.61,.6-3.49,.79-8.62h-4.34c-.41,6.49-3.45,10.62-9.13,12.39l-.97-1.31c2.47-.84,4.44-2.08,5.9-3.72-1.04-1.21-2.38-2.35-4.01-3.42l1.06-1.12c1.38,.86,2.67,1.93,3.87,3.2,.94-1.68,1.48-3.68,1.61-6.02h-7.95v-1.62h15.61Zm-3.18,20.92c-.12,2.24-.32,3.69-.63,4.34s-.69,1.07-1.17,1.27c-.48,.19-1.47,.29-2.97,.29-1.39,0-2.34-.2-2.86-.59s-.78-1.1-.78-2.13v-7.66h1.6v7.81c0,.3,.14,.54,.42,.73,.28,.18,1.06,.27,2.36,.27,.97,0,1.59-.18,1.87-.55,.28-.36,.5-1.77,.68-4.2l1.5,.42Zm-1.97-3.61l-1.16,1.11c-1.11-1.6-2.33-3.04-3.66-4.31l1.06-1.16c1.66,1.54,2.91,3,3.76,4.36Zm6.34,6.23l-1.53,.7c-.45-2.28-1.26-4.75-2.44-7.42l1.38-.61c1.27,2.83,2.14,5.28,2.6,7.33Z"/>
    </g>
    <g>
      <circle class="cls-4" cx="270.08" cy="445.26" r="80.76"/>
      <path class="cls-1" d="M292.34,457.69v4.32c0,3.88-3.12,6.5-6.95,5.97-7.22-.98-13.81-3.52-19.73-7.84-9.35-6.81-15.14-15.9-17.46-27.26-.22-1.02-.36-2.09-.49-3.12-.45-3.43,2.27-6.59,5.75-6.64h9.26c1.92,0,3.39,1.38,3.56,3.25,.27,2.81,.94,5.52,2.09,8.11,.4,.85,.58,1.74,.31,2.63-.22,.89-.76,1.6-1.56,2.09-.67,.4-1.34,.8-2,1.2-.85,.49-.98,1.25-.45,2.05,2.23,3.16,4.94,5.88,8.15,8.15,.89,.62,1.6,.49,2.18-.45,.36-.58,.67-1.16,1.02-1.74,.98-1.6,2.76-2.23,4.45-1.47,2.76,1.25,5.66,2,8.69,2.32,1.78,.18,3.03,1.6,3.07,3.43v4.85l.09,.13Zm-2.32-.04v-4.63c0-.89-.45-1.29-1.34-1.38-.71-.09-1.43-.18-2.14-.27-2.27-.4-4.5-1.11-6.59-2.05-.98-.45-1.47-.27-2,.67-.36,.58-.67,1.2-1.07,1.78-1.2,1.83-3.34,2.23-5.12,.98-3.52-2.41-6.46-5.43-9-8.91-1.2-1.69-.89-4.19,1.16-5.34,.62-.36,1.25-.71,1.87-1.11,.67-.4,.85-.94,.53-1.65-1.34-2.9-2.09-5.97-2.45-9.13-.09-.71-.53-1.11-1.2-1.11-3.16,0-6.32,0-9.49,.13-1.47,0-2.81,1.16-3.07,2.63-.13,.89-.04,1.83,.09,2.76,1.25,8.11,4.63,15.28,10.11,21.38,6.77,7.48,15.19,11.98,25.17,13.45,2.63,.4,4.5-1.2,4.5-3.88v-4.19l.04-.13Z"/>
    </g>
    <g>
      <path class="cls-3" d="M35.5,888.85h-7.59c-1.11,3.1-2.61,5.71-4.52,7.81,6.48,2.59,10.33,4.26,11.54,5l-1.02,1.44c-1.6-.93-5.56-2.65-11.9-5.16-3.5,2.51-7.91,4.21-13.24,5.09l-.92-1.64c4.72-.67,8.78-2.05,12.18-4.16-2.46-.99-5.49-2.03-9.08-3.11,1.64-1.71,3.04-3.47,4.21-5.28H7.54v-1.66h8.66c1.06-1.68,2.15-3.66,3.27-5.95l1.64,.61c-.77,1.59-1.74,3.38-2.9,5.34h8.41c.37-.99,.63-1.89,.8-2.69l1.63,.52-.59,2.17h7.04v1.66Zm-1.16-4.53h-1.69v-4.36H10.44v4.36h-1.77v-6.02h12.15c-.45-.97-.96-1.9-1.53-2.8l1.53-.73c.58,.92,1.18,2.09,1.8,3.53h11.72v6.02Zm-8.36,4.53h-8.75c-1.04,1.61-2.12,3.1-3.24,4.45,1.98,.57,4.52,1.45,7.62,2.62,1.82-1.74,3.27-4.1,4.37-7.08Z"/>
      <path class="cls-3" d="M51.4,889.06c-.96,.54-1.99,1.04-3.08,1.5v9.47c0,1.97-.85,2.95-2.55,2.95-.59,0-1.15-.04-1.67-.11l-.74-1.53,2.66,.03c.16,0,.31-.09,.45-.27,.15-.18,.22-.35,.22-.53v-9.25c-1.36,.52-2.48,.92-3.37,1.19l-.55-1.47c1.27-.41,2.58-.91,3.91-1.52v-7.3h-3.85v-1.56h3.85v-5.8h1.63v5.8h2.54v1.56h-2.54v6.56c.76-.33,1.61-.76,2.54-1.28l.55,1.55Zm7.98-.2c0,3.69-.47,6.52-1.4,8.48s-2.36,3.83-4.27,5.59l-1.31-1.17c2.75-2.29,4.4-4.96,4.93-8-1.9,.81-4,1.57-6.31,2.27l-.64-1.41c2.55-.8,4.95-1.7,7.2-2.69,.17-1.34,.23-2.72,.2-4.12h-5.9v-1.64h5.9v-4.89h-5.9v-1.59h5.9v-4.78h1.6v13.95Zm11.29,6.59h-6.12v7.56h-1.64v-28.11h1.64v4.78h5.79v1.59h-5.79v4.89h5.26v1.64h-5.26v6.08h6.12v1.56Z"/>
      <path class="cls-3" d="M106.03,897.12h-6.76v3.12c0,1.79-1,2.69-2.99,2.69-.78,0-1.77-.02-2.97-.06l-.77-1.59c.68,.03,1.52,.05,2.52,.05,1.25,0,1.98-.06,2.19-.17,.21-.11,.31-.33,.31-.64v-3.39h-19.39v-1.5h19.39v-1.61h1.71v1.61h6.76v1.5Zm-.42-18.69h-12.62v2.2h10.13v8.7h-1.67c1.52,1.32,2.83,2.76,3.91,4.3l-1.35,.92c-.58-.85-1.1-1.49-1.53-1.92-8.62,.66-16.37,1-23.25,1.03l-.42-1.48c3.89,.03,8.06-.05,12.51-.25v-2.59h-10.19v-8.7h10.19v-2.2h-12.73v-1.47h12.73v-1.98h1.67v1.98h12.62v1.47Zm-14.29,5.78v-2.14h-8.53v2.14h8.53Zm0,3.69v-2.27h-8.53v2.27h8.53Zm-2.08,12.86l-1.06,1.28c-1.51-1.29-3.08-2.35-4.71-3.17l1.06-1.23c1.49,.71,3.06,1.75,4.71,3.12Zm12.24-16.55v-2.14h-8.48v2.14h8.48Zm0,3.69v-2.27h-8.48v2.27h8.48Zm-.38,3.36c-.6-.59-.99-.97-1.19-1.12l1.05-.8h-7.97v2.5c3.36-.18,6.06-.37,8.11-.58Z"/>
      <path class="cls-3" d="M141.29,894.87h-13.01v8.14h-1.71v-8.14h-13.18v-1.59h13.18v-2.62h-11.77v-1.5h11.77v-2.5h-12.44v-1.56h8.37c-.52-.93-1.12-1.76-1.8-2.5l1.22-.77h-8.53v-1.61h10.58v-5.17h1.64v5.17h3.62v-5.17h1.6v5.17h10.39v1.61h-8.34l1.16,.8c-.37,.8-.9,1.62-1.6,2.47h8.11v1.56h-12.27v2.5h11.5v1.5h-11.5v2.62h13.01v1.59Zm-17.56,2.44c-2.36,1.85-5.42,3.48-9.17,4.89l-1.06-1.41c4.04-1.44,7.04-2.96,9.02-4.58l1.22,1.09Zm-3.02-18.62l-1.41,.83c-.78-1.03-1.83-2.1-3.15-3.22l1.46-1c1.25,1.16,2.29,2.29,3.1,3.39Zm11.77,3.14h-10.16c.98,1.34,1.69,2.43,2.11,3.27h6.03c1.02-1.32,1.7-2.41,2.02-3.27Zm8.84,19.36l-.95,1.31c-3.28-2.12-6.4-3.81-9.36-5.06l.95-1.28c3.61,1.56,6.73,3.24,9.36,5.03Zm-2.6-25.09c-.89,1.25-1.97,2.36-3.24,3.33l-1.47-.83c1.43-1.22,2.5-2.3,3.21-3.23l1.5,.73Z"/>
      <path class="cls-3" d="M158.99,888.79c-1.23,.55-2.58,1.11-4.04,1.67v10.3c0,.6-.24,1.13-.72,1.57-.48,.44-1.83,.63-4.05,.57l-.67-1.78c.65,.03,1.26,.05,1.83,.05,.9,0,1.45-.06,1.66-.2,.21-.13,.31-.36,.31-.68v-9.22c-1.16,.4-2.58,.83-4.26,1.31l-.58-1.52c1.78-.53,3.4-1.04,4.84-1.53v-7.2h-4.59v-1.66h4.59v-5.64h1.64v5.64h3.62v1.66h-3.62v6.53c.9-.27,2.08-.74,3.55-1.41l.49,1.53Zm17.72,12.8l-.96,1.45c-3.39-1.49-6.06-3.11-8.01-4.88-2.72,1.91-5.9,3.52-9.52,4.84-.01,.01-.02,.01-.02,0,0-.01-.02-.03-.05-.06-.03-.03-.12-.14-.25-.34-.14-.19-.37-.55-.7-1.09,3.34-1.03,6.46-2.53,9.36-4.5-2.14-2.43-3.73-5.41-4.77-8.94h-1.47v-1.62h6.64v-5.22h-7.09v-1.62h7.09v-4.78h1.72v4.78h7.47v1.62h-7.47v5.22h6v1.62c-.64,2.34-1.43,4.2-2.39,5.55-.95,1.36-2.03,2.53-3.22,3.51,1.79,1.67,4.35,3.15,7.65,4.44Zm-3.71-13.5h-9.45c.93,3.1,2.36,5.74,4.29,7.91,2.58-2.06,4.3-4.7,5.17-7.91Z"/>
      <path class="cls-3" d="M195.12,900.96h-8.23v2.02h-1.67v-24.33h3.27c.77-1.39,1.35-2.65,1.74-3.78l1.6,.48c-.34,.99-.87,2.09-1.57,3.3h4.1v8.61h-7.47v4.16h8.23v9.55Zm-2.47-15.23v-5.48h-5.76v5.48h5.76Zm.78,13.62v-6.36h-6.54v6.36h6.54Zm18.49-21.95h-6.86v4.52h5.51v16.48c0,1.72-1.23,2.47-3.68,2.27l-.52-1.66c.52,.03,.93,.05,1.24,.05,.89,0,1.33-.3,1.33-.89v-14.69h-3.88v19.5h-1.64v-19.5h-3.96v17.19h-1.67v-18.75h5.64v-4.52h-7.08v-1.66h15.58v1.66Z"/>
      <path class="cls-3" d="M246.96,895.57h-27.83v-1.62h2.41l-.13-16.64c1.69-.33,3.81-1.11,6.37-2.33l.8,1.44c-1.71,.82-3.56,1.54-5.54,2.14-.04,1.4-.04,2.62,0,3.67h4.87v1.58h-4.84c.04,1.43,.04,2.82,0,4.19h4.62v1.64h-4.56v4.31h19.82c.06-2.49,.09-3.94,.09-4.36h-4.4v-1.59h4.43c.02-.68,.03-2.07,.03-4.19h-4.43v-1.61h4.43c.06-.88,.09-1.79,.09-2.75,0-.53-.01-1.02-.03-1.47h-4.35v-1.56h6.06c-.13,8.43-.23,14.27-.33,17.53h2.41v1.62Zm-17.12,2.53c-2.75,2.05-5.79,3.66-9.09,4.83l-1.19-1.41c3.57-1.12,6.55-2.6,8.94-4.44l1.35,1.02Zm1.77-12.55c-.48,3.23-1.4,5.78-2.75,7.66l-1.38-1.06c1.35-1.66,2.21-3.98,2.6-6.97l1.53,.38Zm5.67-6.94h-5.51c-.18,1.27-.35,2.4-.52,3.39h5.84c-.15,5.7-.47,8.98-.96,9.84-.5,.86-1.37,1.3-2.62,1.3-.67,0-1.12-.01-1.35-.03l-.55-1.64c.75,.04,1.34,.06,1.77,.06,.86,0,1.39-.33,1.59-1,.2-.67,.38-2.99,.52-6.97h-6.2c.35-1.83,.81-4.78,1.38-8.83l1.55,.16c-.07,.69-.16,1.42-.27,2.19h5.32v1.53Zm9.33,22.91l-1.21,1.16c-2.63-1.72-5.56-3.22-8.8-4.52l1.16-1.2c3.82,1.62,6.77,3.15,8.84,4.56Z"/>
      <path class="cls-3" d="M282.47,901.43h-28.02v-1.66h13.12v-21.8h-11.77v-1.77h25.2v1.77h-11.69v21.8h13.16v1.66Z"/>
      <path class="cls-3" d="M298.61,875.23c-.68,1.53-1.31,2.92-1.91,4.16l-.89,1.77v21.78h-1.72v-18.72c-1.83,2.57-3.07,4.21-3.73,4.91l-.92-1.61c3.05-3.55,5.57-7.83,7.56-12.83l1.61,.55Zm18.97,5.66h-10.16v5.58h8.75v1.62h-8.75v5.98h9.36v1.67h-9.36v7.19h-1.71v-22.05h-2.97c-1.04,2.42-2.56,4.92-4.56,7.5l-1.13-1.38c2.64-3.25,4.72-7.39,6.23-12.42l1.5,.64c-.19,.71-.64,2.04-1.35,4h14.14v1.66Z"/>
      <path class="cls-3" d="M352.97,901.63l-1.25,1.27c-6.67-4.69-10.95-11.13-12.85-19.33-1.36,7.48-5.61,13.9-12.76,19.27l-1.16-1.38c2.43-1.66,4.65-3.73,6.67-6.22,2.01-2.49,3.55-5.23,4.6-8.23,1.05-2.99,1.62-7.04,1.69-12.15h1.78c-.06,5.91,1.12,11.14,3.54,15.7,2.42,4.56,5.67,8.25,9.74,11.07Z"/>
      <path class="cls-3" d="M385.29,897.31h-15.23l.89,1.16c-2.89,2-6.23,3.52-10,4.55l-.92-1.52c3.39-.75,6.6-2.15,9.61-4.19h-6.7v-13.38h22.35v13.38Zm-.86-15.42h-20.52v-6.2h20.52v6.2Zm-.85,5.92v-2.34h-18.97v2.34h18.97Zm0,3.88v-2.38h-18.97v2.38h18.97Zm0,4.12v-2.59h-18.97v2.59h18.97Zm-.83-15.45v-3.17h-17.16v3.17h17.16Zm5.35,21.23l-.96,1.39c-2.89-1.4-6.24-2.47-10.03-3.23l.89-1.48c3.84,.8,7.21,1.91,10.1,3.33Z"/>
      <path class="cls-3" d="M412.6,887.35l-1.41,.89c-.62-1.3-1.2-2.38-1.74-3.22-1.34,.23-2.8,.46-4.38,.7v5.02h6.21v1.64h-6.21v6.55c2.49-.35,4.86-.78,7.11-1.27v1.66c-5.49,1.14-11.01,2.01-16.58,2.62l-.38-1.62c3.62-.45,6.36-.8,8.2-1.06v-6.88h-7.31v-1.64h7.31v-4.8c-2.59,.32-4.99,.54-7.22,.64l-.28-1.38c2.72-2.1,4.79-4.73,6.21-7.88h-6.43v-1.69h16.44v1.69h-7.98c-1.47,2.81-3.19,5.29-5.15,7.42,4.13-.36,7.32-.78,9.55-1.25-.57-.89-1.3-1.92-2.18-3.09l1.44-.84c2.15,2.85,3.74,5.45,4.77,7.78Zm3.52,9.5h-1.69v-19.83h1.69v19.83Zm6.42,3.02c0,1.9-.91,2.84-2.72,2.84-2.2,0-3.65-.01-4.34-.03l-.67-1.69c1.59,.08,3.15,.12,4.68,.12,.92,0,1.38-.48,1.38-1.44v-24.91h1.67v25.09Z"/>
      <path class="cls-3" d="M458.7,879.48h-23.31v10.08c0,5.53-1.06,9.94-3.18,13.22l-1.41-1.11c1.99-3.1,2.99-7.64,2.99-13.61v-10.23h11.54c-.2-.71-.54-1.55-1.02-2.53l1.6-.48c.58,1.31,.99,2.32,1.22,3.02h11.57v1.66Zm-14.17,1.7c-.66,1.49-1.27,2.8-1.85,3.92l-.85,1.58v16.22h-1.64v-13.41c-.77,1.12-1.76,2.38-2.97,3.75l-.95-1.47c2.55-2.9,4.77-6.58,6.67-11.05l1.6,.45Zm14.17,6.33h-3.37v12.88c0,1.68-.78,2.52-2.33,2.52-2.23,0-3.75-.03-4.56-.09l-.61-1.69c1.87,.1,3.59,.16,5.17,.16,.47,0,.7-.22,.7-.67v-13.09h-9.81v-1.66h9.81v-4.86h1.63v4.86h3.37v1.66Zm-8.17,8.64l-1.41,.91c-.97-2.17-2.3-4.18-3.98-6.05l1.38-.97c1.79,2.15,3.13,4.18,4.01,6.11Z"/>
      <path class="cls-3" d="M494.18,881.18l-.7,1.53c-3.46-.83-6.25-1.78-8.36-2.84v1.25h-10.36v-1.22c-2.26,1.18-4.96,2.21-8.08,3.11l-.86-1.45c5.74-1.48,10.35-3.77,13.82-6.88l1.85,.55c-.23,.23-.4,.39-.5,.48,3.36,2.52,7.76,4.34,13.2,5.47Zm-3.16,9.72h-22.26v-7.86h22.26v7.86Zm-1.41,11.97h-1.61v-1.34h-16.09v1.34h-1.69v-10.11h19.39v10.11Zm-10.55-13.5v-4.8h-8.66v4.8h8.66Zm8.94,7.02v-2.08h-16.09v2.08h16.09Zm0,3.61v-2.14h-16.09v2.14h16.09Zm-11.6-12.25l-1.19,.89c-.71-.95-1.51-1.85-2.41-2.72l1.22-.8c.89,.71,1.68,1.58,2.38,2.62Zm7.95-8.17c-1.63-.84-3.16-1.79-4.59-2.84-1.4,1.07-2.83,2.02-4.3,2.84h8.89Zm5.02,9.8v-4.8h-8.62v4.8h8.62Zm-2.43-3.58c-.74,1.09-1.54,2.03-2.41,2.81l-1.25-.89c.87-.68,1.64-1.5,2.32-2.47l1.35,.55Z"/>
      <path class="cls-3" d="M517.97,879.32h-2.57v10.14h2.57v1.61h-4.62v4.09c0,.29,.12,.5,.37,.62s1.23,.15,2.97,.08v1.47c-1.63,.05-2.71,.05-3.24,0-.53-.05-.95-.27-1.24-.66-.3-.39-.45-.78-.45-1.17v-4.44h-2.3c-.06,3.03-1.02,5.44-2.86,7.23l-1.25-1.09c1.63-1.52,2.47-3.57,2.54-6.14h-3.27v7.8c0,.29,.09,.53,.26,.7,.17,.18,.39,.27,.65,.27h9.97v1.56h-10.24c-.59,0-1.12-.23-1.57-.68s-.67-1.03-.67-1.74v-7.91h-1.74v-1.61h3.18v-10.14h-2.79v-1.53h2.79v-2.86h1.71v2.86h7.59v-2.86h1.66v2.86h2.57v1.53Zm-4.23,2.2v-2.2h-7.59v2.2h7.59Zm0,3.84v-2.36h-7.59v2.36h7.59Zm0,4.09v-2.59h-7.59v2.59h7.59Zm14.65-8.19c0,3.36-.05,7.33-.14,11.89-.09,4.56-.28,7.14-.55,7.73s-.63,1.09-1.08,1.48c-.45,.4-1.45,.59-2.99,.59-.49,0-.99-.03-1.49-.08l-.58-1.62c.55,.05,1.12,.08,1.71,.08,1.29,0,2.09-.13,2.38-.38,.29-.25,.49-.56,.59-.92,.1-.36,.23-2.52,.37-6.48,.14-3.96,.21-7.52,.21-10.67h-4.21c0,5.29-.43,9.35-1.29,12.18s-2.12,5.49-3.76,7.99l-1.49-.94c1.53-2.25,2.72-4.66,3.57-7.22,.85-2.56,1.3-6.57,1.38-12.02h-3.4v-1.62h3.43c.03-1.71,.03-3.81,0-6.3h1.66c0,2.04-.02,4.14-.06,6.3h5.74Z"/>
    </g>
    <g>
      <path class="cls-3" d="M25.33,1270.85c0,5.13-.1,9.48-.31,13.04-.2,3.56-.47,5.79-.8,6.71-.33,.92-.81,1.54-1.44,1.88-.63,.33-1.95,.5-3.95,.5-.88,0-1.95-.03-3.21-.08l-.61-1.78c1.47,.07,2.73,.11,3.79,.11,1.68,0,2.69-.12,3.03-.36,.34-.24,.59-.63,.77-1.18s.38-2.63,.63-6.25c.25-3.62,.39-7.24,.41-10.85H13.82c-.38,5.69-1.56,9.98-3.54,12.88-1.98,2.9-5,5.42-9.06,7.57l-1.22-1.55c2.21-.9,4.18-2.1,5.91-3.6,1.73-1.51,3.11-3.34,4.14-5.52s1.7-5.44,2-9.79H.85v-1.73H12.16c.13-1.93,.19-3.91,.19-5.95h1.72c0,1.68-.06,3.66-.19,5.95h11.44Z"/>
      <path class="cls-3" d="M45.69,1282.51c-3.89,3.63-7.32,6.27-10.28,7.91l-.97-1.44c3.17-1.79,6.59-4.45,10.25-7.97l1,1.5Zm16.67,6.42l-1,1.45c-5.66-2.43-9.63-5.75-11.91-9.95v9.98c0,.91-.32,1.53-.95,1.88-.63,.35-1.84,.52-3.62,.52-.58,0-1.17-.02-1.75-.05l-.74-1.72c.9,.04,2.37,.06,4.43,.06,.25,0,.47-.1,.65-.31,.18-.21,.27-.42,.27-.62v-18.23h-13.04v-1.66h13.04v-5.36h1.71v5.36h12.79v1.66h-12.79v4.67c.31,.91,.89,2.03,1.72,3.36,3.02-1.72,5.61-3.69,7.8-5.92l1.35,1.16c-1.96,2.02-4.7,4.07-8.2,6.14,1.74,2.8,5.16,5.33,10.25,7.58Zm-19.14-9.69l-1.19,1.28c-1.5-1.83-3.4-3.57-5.7-5.22l1.16-1.25c2.39,1.74,4.3,3.47,5.73,5.19Zm15.53-11.02l-1.16,1.28c-1.09-1.03-2.52-2.08-4.3-3.16l1.03-1.28c1.92,1.15,3.4,2.2,4.43,3.16Z"/>
      <path class="cls-3" d="M97.75,1292.04h-27.89v-1.56h8.86c-.6-5.69-2.05-11.26-4.34-16.7l1-.7h-4.43v-1.61h12.76c-.65-1.96-1.58-4-2.79-6.11l1.66-.52c1.16,2.11,2.12,4.32,2.9,6.62h11.15v1.61h-4.16l.97,.77c-1.47,6.62-3.05,12.17-4.74,16.64h9.06v1.56Zm-5.93-18.97h-15.7c2.32,7.02,3.75,12.82,4.29,17.41h6.45c1.83-4.6,3.48-10.41,4.96-17.41Z"/>
      <path class="cls-3" d="M118.63,1290.35l-1.55,.64c-.35-1.26-.74-2.34-1.14-3.23-3.16,1.28-6.31,2.47-9.44,3.58l-.77-1.72c.26-.29,.39-.65,.39-1.06v-22.88h11.38v14.11h-9.72v9.19c3.12-.98,5.64-1.9,7.54-2.77-.67-1.47-1.28-2.71-1.83-3.73l1.47-.67c1.64,3.02,2.86,5.87,3.66,8.55Zm-2.8-18.62v-4.39h-8.05v4.39h8.05Zm0,6.39v-4.73h-8.05v4.73h8.05Zm15.97,9.31c0,.9-.26,1.5-.78,1.8-.52,.31-1.62,.46-3.3,.46-.66,0-1.39-.02-2.19-.05l-.52-1.73c1.76,.1,3.16,.16,4.2,.16,.65,0,.97-.31,.97-.92v-19.81h-7.31v25.67h-1.67v-27.33h10.61v21.75Z"/>
      <path class="cls-3" d="M168.28,1281.29h-10.55v8.7c0,.27,.12,.47,.36,.6,.24,.13,1.46,.2,3.66,.2,1.96,0,3.13-.08,3.51-.23,.38-.15,.62-1.73,.71-4.73l1.72,.64c-.06,2.77-.4,4.46-1,5.08-.61,.61-2.13,.92-4.59,.92-2.78,0-4.35-.07-4.72-.2-.37-.14-.68-.4-.94-.8-.26-.4-.38-.89-.38-1.48v-8.7h-5.2c.02,6.15-3.13,10.02-9.45,11.61l-1.13-1.5c6.06-1.33,8.98-4.7,8.75-10.11h-8.72v-1.62h27.96v1.62Zm-1.16-5.62h-1.75v-5.7h-22.15v5.7h-1.8v-7.36h11.9c-.83-1.67-1.37-2.71-1.61-3.14l1.77-.58c.79,1.38,1.4,2.61,1.83,3.72h11.82v7.36Zm-4.01-.67h-17.66v-1.58h17.66v1.58Z"/>
      <path class="cls-3" d="M203.45,1286.64c-.16,1.83-.5,3.37-1.03,4.6s-1.18,1.85-1.94,1.85c-.81,0-1.78-.69-2.91-2.06s-1.95-2.8-2.46-4.27c-2.42,2.45-4.96,4.53-7.62,6.25l-1.25-1.31c3.55-2.29,6.27-4.56,8.17-6.8-1.03-3.76-1.7-8.1-1.99-13.02h-11.85v4.34h8.56c-.03,2.65-.16,5-.38,7.07-.22,2.07-.48,3.34-.75,3.82-.28,.48-.67,.86-1.17,1.13-.5,.28-1.45,.41-2.83,.41-.43,0-.95-.02-1.58-.05l-.53-1.73c.74,.11,1.47,.17,2.18,.17,.91,0,1.51-.07,1.8-.21s.53-.32,.7-.53c.18-.21,.38-1.22,.61-3.02s.34-3.6,.34-5.4h-6.92c-.2,5.86-1.45,10.94-3.76,15.23l-1.31-1.19c2.29-4.12,3.43-9.37,3.43-15.75v-5.95h13.34c-.08-2.33-.12-4.12-.12-5.38h1.67c0,1.63,.05,3.43,.16,5.38h8.84v1.64h-8.78c.17,4.11,.7,7.94,1.6,11.48,1.79-2.45,3.24-5.4,4.34-8.86l1.69,.55c-1.5,4.09-3.31,7.54-5.42,10.33,.58,1.66,1.33,3.03,2.22,4.13,.9,1.1,1.49,1.65,1.78,1.65,.32,0,.65-.6,.98-1.81,.33-1.21,.49-2.4,.49-3.58l1.71,.86Zm-1.74-17.86l-1.44,1.03c-.93-1.12-2.16-2.25-3.68-3.36l1.35-1.09c1.47,.98,2.73,2.12,3.77,3.42Z"/>
    </g>
    <g>
      <path class="cls-3" d="M369.19,1278.85h-7.59c-1.11,3.1-2.61,5.71-4.52,7.81,6.48,2.59,10.33,4.26,11.54,5l-1.02,1.44c-1.6-.93-5.56-2.65-11.9-5.16-3.5,2.51-7.91,4.21-13.24,5.09l-.92-1.64c4.72-.67,8.78-2.05,12.18-4.16-2.46-.99-5.49-2.03-9.08-3.11,1.64-1.71,3.04-3.47,4.21-5.28h-7.61v-1.66h8.66c1.06-1.68,2.15-3.66,3.27-5.95l1.64,.61c-.77,1.59-1.74,3.38-2.9,5.34h8.41c.37-.99,.63-1.89,.8-2.69l1.63,.52-.59,2.17h7.04v1.66Zm-1.16-4.53h-1.69v-4.36h-22.21v4.36h-1.77v-6.02h12.15c-.45-.97-.96-1.9-1.53-2.8l1.53-.73c.58,.92,1.18,2.09,1.8,3.53h11.72v6.02Zm-8.36,4.53h-8.75c-1.04,1.61-2.12,3.1-3.24,4.45,1.98,.57,4.52,1.45,7.62,2.62,1.82-1.74,3.27-4.1,4.37-7.08Z"/>
      <path class="cls-3" d="M385.09,1279.06c-.96,.54-1.99,1.04-3.08,1.5v9.47c0,1.97-.85,2.95-2.55,2.95-.59,0-1.15-.04-1.67-.11l-.74-1.53,2.66,.03c.16,0,.31-.09,.45-.27,.15-.18,.22-.35,.22-.53v-9.25c-1.36,.52-2.48,.92-3.37,1.19l-.55-1.47c1.27-.41,2.58-.91,3.91-1.52v-7.3h-3.85v-1.56h3.85v-5.8h1.63v5.8h2.54v1.56h-2.54v6.56c.76-.33,1.61-.76,2.54-1.28l.55,1.55Zm7.98-.2c0,3.69-.47,6.52-1.4,8.48s-2.36,3.83-4.27,5.59l-1.31-1.17c2.75-2.29,4.4-4.96,4.93-8-1.9,.81-4,1.57-6.31,2.27l-.64-1.41c2.55-.8,4.95-1.7,7.2-2.69,.17-1.34,.23-2.72,.2-4.12h-5.9v-1.64h5.9v-4.89h-5.9v-1.59h5.9v-4.78h1.6v13.95Zm11.29,6.59h-6.12v7.56h-1.64v-28.11h1.64v4.78h5.79v1.59h-5.79v4.89h5.26v1.64h-5.26v6.08h6.12v1.56Z"/>
      <path class="cls-3" d="M439.4,1268.93h-23.86v9.25c0,5.96-.75,10.86-2.24,14.72l-1.49-.92c1.41-3.24,2.11-8.35,2.11-15.33v-9.28h11.74c-.28-.73-.64-1.42-1.06-2.08l1.58-.64c.43,.73,.88,1.63,1.35,2.72h11.87v1.56Zm-18.69,6.73l-1.42,.8c-.44-1.21-1.22-2.77-2.33-4.67l1.31-.77c1.05,1.67,1.87,3.21,2.44,4.64Zm7.91,14.91c0,1.52-1,2.28-2.99,2.28-.34,0-.8-.02-1.36-.05l-.61-1.56c.35,.04,.78,.06,1.27,.06,.99,0,1.6-.07,1.82-.2,.22-.13,.34-.36,.34-.7v-11.5h-8.27v14.02h-1.61v-15.58h5.26v-7.33h1.64v7.33h4.51v13.22Zm-3.22-1.95h-4.95v-7.52h4.95v7.52Zm-1.52-1.47v-4.58h-1.96v4.58h1.96Zm5.93-15.39c-.91,2.03-1.83,3.6-2.75,4.7l-1.35-.83c.83-1.07,1.72-2.61,2.66-4.61l1.44,.73Zm10.3,19.91l-1.1,1.2c-1.74-1.24-3.14-2.64-4.19-4.19-1.08,1.43-2.5,2.8-4.27,4.12l-1.08-1.14c1.89-1.35,3.38-2.85,4.48-4.48-1-2.34-1.63-4.38-1.88-6.11l1.5-.45c.26,1.84,.71,3.46,1.35,4.86,1.06-2.44,1.65-5.58,1.77-9.44h-3.27c-.82,2.16-1.66,3.84-2.5,5.06l-1.31-1c1.76-2.77,3.05-6.11,3.85-10.02l1.53,.39c-.25,1.35-.6,2.68-1.06,3.97h5.78l.03,1.59h-1.44c-.23,4.69-1.06,8.4-2.5,11.14,.81,1.51,2.26,3,4.34,4.48Z"/>
      <path class="cls-3" d="M474.89,1268.84h-8.59l1.25,1.03c-.43,1.2-1.02,2.49-1.77,3.88h7.15v16.8c0,.68-.23,1.24-.69,1.7-.46,.46-1.45,.69-2.97,.69-.41,0-.87-.02-1.38-.06l-.56-1.66,3.22-.06c.5,0,.75-.26,.75-.77v-15.11h-6.45v2.81c0,.53,.29,.8,.86,.8h4.13v1.52h-4.74c-.45,0-.88-.17-1.3-.51-.42-.34-.63-.72-.63-1.13v-3.48h-4.32c-.1,1.58-.7,2.97-1.79,4.15-1.09,1.18-2.5,1.99-4.23,2.41l-.8-1.53c3.2-.77,4.91-2.45,5.12-5.03h-6.37v17.62h-1.67v-19.16h6.97c-.53-1.54-1.11-2.84-1.74-3.91l1.03-1h-8.25v-1.56h13.06c-.26-.7-.62-1.44-1.06-2.23l1.71-.48c.5,.91,.88,1.81,1.13,2.72h12.95v1.56Zm-7.4,20.39h-12.85v-6.69h12.85v6.69Zm-1.47-20.39h-10.14c.87,1.97,1.53,3.6,1.99,4.91h6.17c.73-1.47,1.39-3.1,1.99-4.91Zm-.27,18.83v-3.59h-9.46v3.59h9.46Z"/>
      <path class="cls-3" d="M510.43,1290.76l-.38,1.64c-4.18,.03-7.98,0-11.37-.09-3.4-.09-5.95-.45-7.65-1.08-1.71-.63-3.11-1.52-4.22-2.68-.89,1.47-2.08,2.92-3.58,4.34l-1.25-1.05c3.12-3,5.15-6.4,6.09-10.2h-4.98v-1.58c1.4-1.68,3-3.9,4.79-6.66h-5.49v-1.56h7.48v1.56c-1.2,1.85-2.74,4.07-4.62,6.66h4.51v1.58c-.43,1.9-1.15,3.75-2.18,5.56,.73,.76,1.58,1.39,2.56,1.88,.98,.49,1.93,.85,2.86,1.07,.93,.22,2.54,.38,4.82,.49,2.29,.11,4.99,.16,8.11,.16,1.58,0,3.08-.02,4.51-.06Zm-21.57-21.44l-1.16,1.16c-1.22-1.58-2.7-3.08-4.45-4.48l1.05-1.19c1.95,1.53,3.47,3.04,4.56,4.52Zm20.87,18.14h-16.67v-13.66c-.91,1.29-1.61,2.19-2.11,2.69l-1.08-1.31c2.57-3.06,4.47-6.57,5.7-10.53l1.6,.42c-.53,1.56-1.13,3.08-1.78,4.55h5.67c-.31-1.24-.79-2.57-1.44-4l1.61-.52c.73,1.86,1.27,3.37,1.63,4.52h6.61v1.56h-7.22v3.58h6.51v1.55h-6.51v3.8h6.51v1.58h-6.51v4.25h7.5v1.53Zm-9.16-12.7v-3.58h-5.84v3.58h5.84Zm0,5.34v-3.8h-5.84v3.8h5.84Zm0,5.83v-4.25h-5.84v4.25h5.84Z"/>
      <path class="cls-3" d="M527.43,1272.26c-.88,1.49-1.92,2.95-3.12,4.39v16.36h-1.66v-14.41c-1.16,1.23-2.55,2.51-4.16,3.84l-.88-1.31c3.99-3.5,6.79-6.77,8.41-9.8l1.41,.92Zm-.74-6.36c-1.92,2.38-4.6,4.6-8.05,6.66l-.97-1.31c3.51-2.16,6.05-4.28,7.64-6.38l1.38,1.03Zm18.88,10.23h-5.06v14.22c0,.7-.18,1.25-.54,1.65-.36,.4-.77,.64-1.23,.73-.46,.09-1.38,.13-2.77,.13-1.19,0-2.15-.02-2.88-.06l-.67-1.72c.91,.04,1.86,.06,2.86,.06,1.87,0,2.91-.04,3.12-.12,.21-.08,.31-.26,.31-.55v-14.34h-11.29v-1.69h18.14v1.69Zm-1.57-8.09h-15.23v-1.69h15.23v1.69Z"/>
      <path class="cls-3" d="M389.83,1346.76h-5.6v6.17h-1.64v-6.17h-6.06v-1.62h6.06v-3.62h-5.29v-1.59h2.93c-.25-1.46-.7-3.07-1.35-4.83h-2.14v-1.58h5.85v-3.3h-5.09v-1.56h5.09v-3.61h1.61v3.61h4.84v1.56h-4.84v3.3h5.32v1.58h-1.86c-.34,1.59-.78,3.2-1.31,4.83h2.69v1.59h-4.81v3.62h5.6v1.62Zm-3.88-11.67h-5.29c.5,1.62,.91,3.23,1.22,4.83h2.86c.52-1.62,.92-3.22,1.21-4.83Zm18.47,16.64l-.92,1.28c-1.49-.95-3.02-2.29-4.59-4.03-1.09,1.41-2.5,2.74-4.24,4h-.13l-1.08-1.16c1.85-1.23,3.33-2.57,4.45-4.03-1.89-2.69-3.24-6.2-4.04-10.53h-1.31v15.67h-1.6v-27.12h11.93c.04,2.55-.03,4.32-.22,5.3-.19,.98-.6,1.64-1.23,1.98-.63,.33-2.06,.46-4.3,.39l-.49-1.5c2.3,0,3.58-.05,3.84-.16s.47-.52,.61-1.23c.14-.71,.2-1.78,.16-3.21h-8.72v8.27h10.36c-.31,4.93-1.33,8.94-3.05,12.03,1.26,1.6,2.78,2.96,4.56,4.06Zm-3.27-14.47h-5.7c.87,4.08,2,7.09,3.4,9.03,1.25-2.44,2.02-5.45,2.3-9.03Z"/>
      <path class="cls-3" d="M418.98,1325.2c-.29,1-.71,2.25-1.25,3.77l-.8,2.22v21.72h-1.6v-18.36c-.95,1.78-1.84,3.21-2.66,4.28l-1-1.66c2.5-3.35,4.4-7.51,5.68-12.45l1.63,.48Zm18.72,22.84h-11.25l.94,1c-1.7,1.57-4.13,2.91-7.28,4l-.97-1.38c3.05-1.17,5.34-2.38,6.87-3.62h-4.68v-11.36h16.37v11.36Zm2.05-20.86h-6.76v2.11h5.57v5.73h-18.27v-5.73h5.64v-2.11h-6.25v-1.44h20.07v1.44Zm-13.82,6.44v-2.95h-4.07v2.95h4.07Zm10.17,6.39v-1.95h-13.18v1.95h13.18Zm0,3.36v-2.05h-13.18v2.05h13.18Zm0,3.33v-2.05h-13.18v2.05h13.18Zm-4.65-17.41v-2.11h-3.98v2.11h3.98Zm0,4.33v-2.95h-3.98v2.95h3.98Zm8.42,17.88l-.96,1.41c-2.01-1.11-4.44-2.03-7.28-2.78l.86-1.41c3.2,.92,5.66,1.84,7.37,2.78Zm-2.88-17.88v-2.95h-4.01v2.95h4.01Z"/>
      <path class="cls-3" d="M450.39,1345.48c-.23,2.77-.85,5.3-1.86,7.59l-1.5-.67c.93-2.16,1.53-4.54,1.8-7.14l1.56,.22Zm8.17-2.11l-1.6,.58c-.1-.46-.27-1.1-.49-1.92-3.26,1-6.19,1.74-8.81,2.23l-.44-1.44c2.4-2.44,4.46-5.03,6.18-7.77-1.82,.48-3.73,.84-5.75,1.08l-.55-1.53c1.6-2.12,3.55-5.37,5.87-9.77l1.53,.67c-1.53,3.01-3.29,5.92-5.28,8.73,1.39-.17,3.17-.55,5.35-1.14,.66-1.01,1.4-2.27,2.24-3.78l1.47,.83c-2.75,4.79-5.57,8.8-8.44,12.03,2.93-.67,4.99-1.22,6.17-1.66l-.85-1.92,1.46-.58c.66,1.24,1.29,3.02,1.91,5.34Zm-4.04,8.55l-1.57,.28c.07-1.66-.19-3.83-.8-6.52l1.53-.3c.64,2.54,.91,4.72,.83,6.53Zm4.4-1.5l-1.47,.55c-.4-2.19-.97-4.05-1.71-5.58l1.52-.45c.78,1.88,1.34,3.7,1.66,5.48Zm16.03,.64h-12.69v1.81h-1.66v-18.05c-.21,.33-.82,1.19-1.83,2.56l-1.38-.92c2.41-3.19,4.37-7.05,5.87-11.59l1.5,.45c-.61,1.92-1.32,3.76-2.14,5.53h5.7c-.41-1.6-1.04-3.31-1.89-5.11l1.44-.52c.77,1.5,1.46,3.38,2.05,5.62h4.68v1.58h-5.48v4.22h4.81v1.59h-4.81v4.64h4.81v1.61h-4.81v4.98h5.84v1.58Zm-7.5-14.41v-4.22h-5.2v4.22h5.2Zm0,6.23v-4.64h-5.2v4.64h5.2Zm0,6.59v-4.98h-5.2v4.98h5.2Z"/>
      <path class="cls-3" d="M489.05,1325.42l-1.85,5.64v21.75h-1.64v-17.62c-.75,1.76-1.54,3.32-2.36,4.67l-1.06-1.56c1.95-3.31,3.73-7.8,5.32-13.45l1.6,.58Zm2.38,24.88h-1.57v-20.52h1.57v20.52Zm19-12.67l-.92,1.56c-3.58-1.05-6.18-2.13-7.8-3.23-2.66,1.49-5.46,2.57-8.39,3.23l-.85-1.5c3.63-.92,6.22-1.85,7.76-2.8-1.47-1.26-2.54-2.39-3.21-3.39l1.49-.7c1,1.38,2.06,2.44,3.16,3.2,1.68-1.15,3.12-2.78,4.3-4.89h-8.69c-.99,1.38-2.15,2.61-3.48,3.67l-1.44-1.02c2.31-1.8,4.24-4.16,5.81-7.08l1.74,.42c-.56,.97-1.05,1.75-1.46,2.36h11.65v1.64h-2.32c-1.37,2.6-2.93,4.54-4.68,5.81,1.76,1.11,4.2,2.02,7.31,2.7Zm-7.01,1.66c-2.34,2.03-5.57,3.52-9.69,4.45l-.89-1.44c3.94-.81,7.02-2.17,9.24-4.08l1.35,1.06Zm3.55,2.38c-3.18,3.16-7.43,5.29-12.73,6.39l-.92-1.56c5.34-1,9.43-2.95,12.27-5.86l1.38,1.03Zm3.11,2.66c-3.8,4.94-9.07,7.83-15.81,8.67l-.89-1.55c7-.96,12.06-3.62,15.17-8l1.53,.88Z"/>
    </g>
    <g>
      <circle class="cls-4" cx="271.08" cy="748.26" r="80.76"/>
      <path class="cls-1" d="M275.86,744.29c.84,.79,1.62,1.65,2.47,2.44,.13,.13,.45,.13,.71,.07,6.29-.79,11.74,3.03,13.04,9.23,.13,.73,.19,1.52,.26,2.31,0,1.12-.52,1.98-1.56,2.44-1.04,.46-2.01,.26-2.79-.53-.91-.92-1.82-1.85-2.72-2.77-.26-.2-.65-.33-.97-.33-1.17,.13-2.4,.33-3.57,.46-.45,0-.65,.2-.71,.66-.13,1.25-.39,2.51-.45,3.69,0,.33,.13,.73,.32,.99,.78,.86,1.69,1.71,2.47,2.57,.91,.99,1.17,1.98,.65,3.1-.45,1.06-1.43,1.58-2.72,1.58-6.81-.26-12.07-6.66-10.96-13.52,.13-.79-.06-.99-.84-.73-.45,.13-.91,.33-1.36,.46-1.1,.33-1.82,.99-2.21,2.11-.32,.73-.71,1.38-1.23,1.98-2.47,2.57-4.93,5.08-7.46,7.58-2.72,2.77-6.94,2.84-9.54,.26-2.47-2.44-2.79-6.46-.39-9.1,2.72-2.97,5.58-5.74,8.43-8.57,.39-.4,.91-.73,1.43-.86,1.3-.46,2.08-1.32,2.34-2.64,.06-.4,.26-.73,.39-1.19-1.1,0-2.21,.07-3.24,0-5.51-.59-9.93-5.6-10.06-11.28,0-1.25,.45-2.11,1.56-2.64,1.04-.53,2.08-.26,3.05,.73,.84,.86,1.62,1.71,2.53,2.51,.26,.2,.65,.4,.97,.33,1.36-.13,2.72-.4,4.22-.59,.19-1.52,.45-3.1,.65-4.68,0-.2-.19-.46-.39-.59-.84-.86-1.69-1.71-2.53-2.64-.84-.86-1.1-1.85-.65-2.97,.39-.99,1.43-1.65,2.59-1.65,6.68,0,12.2,6.59,11.16,13.25-.06,.59,0,.99,.45,1.32,.45,.4,.84,.92,1.3,1.45,1.1-1.12,2.21-2.18,3.18-3.23,.32-.33,.32-.92,.39-1.45,.71-3.82,.39-3.3,3.7-5.14,1.56-.86,3.05-1.71,4.61-2.57,1.36-.73,2.4-.59,3.5,.46,.71,.66,1.36,1.38,2.01,2.04,.91,.99,1.1,2.04,.45,3.23-1.23,2.31-2.47,4.55-3.7,6.86-.39,.73-1.04,1.19-1.82,1.38-.19,0-.45,.13-.65,.13-2.85,0-4.41,1.98-6.1,3.96l-.19,.07Zm-27.57-9.63s-.13,.07-.13,.13v.79c.71,5.41,5.64,8.97,10.9,7.78,.71-.13,1.3-.07,1.88,.46,3.5,3.63,7.07,7.19,10.64,10.81,.52,.53,.65,1.05,.52,1.78-.58,2.7-.13,5.21,1.49,7.45,1.69,2.37,4.09,3.63,7.2,3.82-1.17-1.19-2.21-2.31-3.24-3.36-.52-.46-.71-1.06-.58-1.71,.32-1.98,.58-3.96,.84-5.93,.13-.86,.58-1.25,1.36-1.38,2.01-.26,3.96-.59,5.97-.79,.45,0,1.04,.2,1.43,.46,1.04,.92,1.95,1.91,2.92,2.9,.13,.13,.26,.2,.45,.4v-.59c-.39-5.41-5.58-9.3-10.77-8.18-.97,.2-1.62,0-2.27-.73-3.37-3.49-6.81-6.99-10.25-10.42-.58-.59-.78-1.19-.58-2.04,.84-3.96-.91-7.91-4.35-9.96-1.23-.73-2.59-1.19-4.15-1.06,.97,1.12,2.01,2.18,3.11,3.23,.45,.46,.65,.99,.58,1.65-.32,1.98-.58,3.96-.84,5.93-.13,.92-.45,1.25-1.43,1.38-1.88,.26-3.76,.53-5.58,.79-.84,.13-1.43-.07-1.95-.66-.97-1.05-2.01-2.04-2.98-3.1l-.19,.13Zm12.72,13.12s-.13,.2-.13,.33c-.58,2.04-1.82,3.43-3.76,4.15-.45,.13-.84,.53-1.17,.86-1.75,1.78-3.5,3.56-5.25,5.27-.84,.86-1.69,1.65-2.47,2.51-1.04,1.19-1.36,2.64-.78,4.15,.52,1.45,1.62,2.31,3.11,2.51,1.49,.2,2.79-.4,3.89-1.45,2.34-2.37,4.67-4.75,6.94-7.12,.45-.53,.84-1.12,1.17-1.78,.65-1.38,1.62-2.44,3.05-3.03,.39-.13,.84-.33,1.23-.46-2.01-1.98-3.89-3.96-5.9-6l.06,.07Zm11.29-7.45c.65,.66,1.23,1.25,1.88,1.98,.26-.33,.58-.66,.91-1.06,3.44-3.43,1.88-2.57,6.49-3.56,.13,0,.19,0,.26-.07,.19-.13,.39-.2,.45-.33,1.17-2.11,2.34-4.15,3.44-6.26,.06-.13,0-.46,0-.59-.65-.73-1.3-1.38-1.95-2.11-1.49,.86-2.85,1.78-4.35,2.37-2.08,.86-3.05,2.24-3.11,4.42,0,.99-.58,1.85-1.3,2.51-.97,.86-1.82,1.78-2.72,2.64v.07Z"/>
    </g>
    <g>
      <path class="cls-3" d="M172,1628.42l-1.85,5.64v21.75h-1.64v-17.62c-.75,1.76-1.54,3.32-2.36,4.67l-1.06-1.56c1.95-3.31,3.73-7.8,5.32-13.45l1.6,.58Zm2.38,24.88h-1.57v-20.52h1.57v20.52Zm19-12.67l-.92,1.56c-3.58-1.05-6.18-2.13-7.8-3.23-2.66,1.49-5.46,2.57-8.39,3.23l-.85-1.5c3.63-.92,6.22-1.85,7.76-2.8-1.47-1.26-2.54-2.39-3.21-3.39l1.49-.7c1,1.38,2.06,2.44,3.16,3.2,1.68-1.15,3.12-2.78,4.3-4.89h-8.69c-.99,1.38-2.15,2.61-3.48,3.67l-1.44-1.02c2.31-1.8,4.24-4.16,5.81-7.08l1.74,.42c-.56,.97-1.05,1.75-1.46,2.36h11.65v1.64h-2.32c-1.37,2.6-2.93,4.54-4.68,5.81,1.76,1.11,4.2,2.02,7.31,2.7Zm-7.01,1.66c-2.34,2.03-5.57,3.52-9.69,4.45l-.89-1.44c3.94-.81,7.02-2.17,9.24-4.08l1.35,1.06Zm3.55,2.38c-3.18,3.16-7.43,5.29-12.73,6.39l-.92-1.56c5.34-1,9.43-2.95,12.27-5.86l1.38,1.03Zm3.11,2.66c-3.8,4.94-9.07,7.83-15.81,8.67l-.89-1.55c7-.96,12.06-3.62,15.17-8l1.53,.88Z"/>
      <path class="cls-3" d="M203.96,1648.17c-.29,2.73-.85,5.3-1.66,7.7l-1.57-.83c.75-1.84,1.3-4.29,1.66-7.33l1.57,.45Zm6.78-2.72l-1.55,.64c-.06-.32-.16-.71-.28-1.16-2.43,.63-4.96,1.21-7.58,1.73l-.53-1.55c2.16-1.73,4.09-4.05,5.79-6.97-2.44,.4-4.18,.65-5.21,.77l-.3-1.34c1.86-2.42,3.49-5.62,4.9-9.59l1.55,.5c-1.05,3.06-2.49,5.93-4.3,8.61,1.35-.18,2.79-.42,4.34-.73,.59-1.12,1.09-2.16,1.47-3.11l1.53,.55c-2.14,4.78-4.58,8.43-7.31,10.95,1.58-.29,3.3-.72,5.17-1.28-.2-.65-.46-1.28-.8-1.89l1.5-.7c.57,1.16,1.11,2.68,1.61,4.58Zm-3.12,9.08l-1.61,.33c.07-2.41-.15-4.71-.67-6.92l1.55-.34c.55,2.58,.8,4.9,.74,6.94Zm3.94-1.59l-1.61,.64c-.31-1.84-.9-3.78-1.75-5.8l1.5-.61c.8,1.85,1.42,3.78,1.86,5.77Zm16.73-11.78h-4.43l1.13,1c-.39,.81-.89,1.71-1.5,2.69h4.65v1.38h-16.51v-1.38h4.2c-.32-.84-.9-1.82-1.72-2.92l1.17-.77h-4.13v-1.47h7.89v-2.59h-6.61v-1.41h6.61v-2.62h-7.34v-1.47h15.97v1.47h-7.03v2.62h6.14v1.41h-6.14v2.59h7.67v1.47Zm-1.71,14.83h-1.63v-1.34h-10.27v1.34h-1.66v-7.41h13.56v7.41Zm-8.94-25.95l-1.38,.86c-.76-.79-1.62-1.54-2.57-2.23l1.41-.88c.95,.56,1.79,1.31,2.54,2.25Zm7.31,23.16v-3.09h-10.27v3.09h10.27Zm-1.31-12.03h-7.95c.87,1.31,1.56,2.54,2.08,3.69h3.91c.87-1.4,1.52-2.62,1.96-3.69Zm2.24-12.44c-.95,.95-1.93,1.68-2.94,2.2l-1.44-1.03c1.21-.62,2.23-1.34,3.07-2.14l1.31,.97Z"/>
      <path class="cls-3" d="M263.75,1644.29h-10.55v8.7c0,.27,.12,.47,.36,.6,.24,.13,1.46,.2,3.66,.2,1.96,0,3.13-.08,3.51-.23,.38-.15,.62-1.73,.71-4.73l1.72,.64c-.06,2.77-.4,4.46-1,5.08-.61,.61-2.13,.92-4.59,.92-2.78,0-4.35-.07-4.72-.2-.37-.14-.68-.4-.94-.8-.26-.4-.38-.89-.38-1.48v-8.7h-5.2c.02,6.15-3.13,10.02-9.45,11.61l-1.13-1.5c6.06-1.33,8.98-4.7,8.75-10.11h-8.72v-1.62h27.96v1.62Zm-1.16-5.62h-1.75v-5.7h-22.15v5.7h-1.8v-7.36h11.9c-.83-1.67-1.37-2.71-1.61-3.14l1.77-.58c.79,1.38,1.4,2.61,1.83,3.72h11.82v7.36Zm-4.01-.67h-17.66v-1.58h17.66v1.58Z"/>
      <path class="cls-3" d="M298.92,1649.64c-.16,1.83-.5,3.37-1.03,4.6s-1.18,1.85-1.94,1.85c-.81,0-1.78-.69-2.91-2.06s-1.95-2.8-2.46-4.27c-2.42,2.45-4.96,4.53-7.62,6.25l-1.25-1.31c3.55-2.29,6.27-4.56,8.17-6.8-1.03-3.76-1.7-8.1-1.99-13.02h-11.85v4.34h8.56c-.03,2.65-.16,5-.38,7.07-.22,2.07-.48,3.34-.75,3.82-.28,.48-.67,.86-1.17,1.13-.5,.28-1.45,.41-2.83,.41-.43,0-.95-.02-1.58-.05l-.53-1.73c.74,.11,1.47,.17,2.18,.17,.91,0,1.51-.07,1.8-.21s.53-.32,.7-.53c.18-.21,.38-1.22,.61-3.02s.34-3.6,.34-5.4h-6.92c-.2,5.86-1.45,10.94-3.76,15.23l-1.31-1.19c2.29-4.12,3.43-9.37,3.43-15.75v-5.95h13.34c-.08-2.33-.12-4.12-.12-5.38h1.67c0,1.63,.05,3.43,.16,5.38h8.84v1.64h-8.78c.17,4.11,.7,7.94,1.6,11.48,1.79-2.45,3.24-5.4,4.34-8.86l1.69,.55c-1.5,4.09-3.31,7.54-5.42,10.33,.58,1.66,1.33,3.03,2.22,4.13,.9,1.1,1.49,1.65,1.78,1.65,.32,0,.65-.6,.98-1.81,.33-1.21,.49-2.4,.49-3.58l1.71,.86Zm-1.74-17.86l-1.44,1.03c-.93-1.12-2.16-2.25-3.68-3.36l1.35-1.09c1.47,.98,2.73,2.12,3.77,3.42Z"/>
      <path class="cls-3" d="M309.69,1648.32c-.49,3.05-1.16,5.48-2.02,7.3l-1.57-.83c.9-1.73,1.57-4.02,2.02-6.86l1.57,.39Zm8.44-2.05l-1.47,.77c-.12-.58-.33-1.2-.64-1.86-2.88,.73-5.95,1.33-9.2,1.8l-.45-1.56c2.35-1.68,4.48-3.88,6.39-6.59-2.49,.27-4.4,.44-5.71,.52l-.31-1.45c2.35-2.58,4.29-5.85,5.84-9.81l1.47,.64c-1.27,3.34-2.86,6.27-4.77,8.77,1.9-.08,3.45-.21,4.65-.39,.73-1.16,1.37-2.29,1.91-3.39l1.49,.8c-2.5,4.6-5.09,8.08-7.76,10.44,2.2-.34,4.13-.75,5.78-1.22-.19-.54-.49-1.14-.91-1.8l1.49-.7c1.06,1.91,1.81,3.59,2.24,5.06Zm-4.3,8.45l-1.78,.25c.04-1.72-.15-3.89-.58-6.5l1.53-.38c.55,2.49,.83,4.7,.83,6.62Zm4.3-1.38l-1.57,.61c-.32-1.73-.85-3.57-1.58-5.52l1.41-.61c.87,1.95,1.44,3.79,1.74,5.52Zm15.94-19.39h-7.37v4.89h6.34v1.56h-14.1v-1.56h6.15v-4.89h-7.04v-1.55h7.04v-4.38h1.61v4.38h7.37v1.55Zm-1.86,21.91h-1.63v-1.81h-9.17v1.81h-1.64v-11.73h12.44v11.73Zm-1.63-3.45v-6.69h-9.17v6.69h9.17Z"/>
      <path class="cls-3" d="M369.51,1647.53h-13.09v8.34h-1.63v-8.34h-13.09v-1.61h13.09v-2.36h1.63v2.36h13.09v1.61Zm-17.5,2.39c-2.64,2.23-5.59,4.04-8.84,5.42l-1.16-1.31c3.36-1.38,6.22-3.07,8.59-5.09l1.41,.98Zm16.51-13.08h-7.45c-.92,1.36-1.96,2.57-3.13,3.61,3.27,.81,6.6,1.82,10,3.02l-.97,1.41c-2.65-1.02-6.17-2.1-10.55-3.23-2.83,1.79-7.32,2.73-13.46,2.81l-.83-1.56c5.54,0,9.53-.59,11.96-1.77-2.67-.66-5.18-1.21-7.53-1.66,.88-.81,1.72-1.69,2.52-2.62h-6.43v-1.53h7.8c.83-1,1.64-2.04,2.43-3.11l1.47,.64c-.6,.9-1.22,1.72-1.88,2.47h7.69c.35-.54,.65-1.09,.89-1.64l1.61,.33c-.1,.34-.3,.78-.58,1.31h6.45v1.53Zm-.3-3.02h-1.69v-2.02h-21.81v2.02h-1.71v-3.61h12.02c-.25-.54-.59-1.18-1.02-1.92l1.6-.52c.3,.49,.77,1.3,1.41,2.44h11.19v3.61Zm-9.2,3.02h-7.84c-.41,.51-.89,1.06-1.46,1.66,1.33,.27,3.43,.75,6.32,1.44,.99-.68,1.98-1.71,2.97-3.09Zm10.24,17.12l-1.22,1.23c-2.49-1.75-5.49-3.37-8.99-4.86l1.19-1.34c3.79,1.7,6.79,3.35,9.02,4.97Z"/>
    </g>
    <g>
      <circle class="cls-4" cx="270.08" cy="1501.26" r="80.76"/>
      <path class="cls-1" d="M300.14,1491.99c-.32-.45-.55-.7-.57-.73l-11.21-10.92-.09-.08c-7.35-5.63-13.54,0-13.6,.06l-4.08,3.77c-1.27-1.15-2.57-2.3-3.8-3.41-3.9-3.49-9.74-3.54-13.6-.13l-12.69,12.54c-1.59,1.62-2.63,3.79-3.01,6.3-.42,2.77-.23,6.95,6.03,11.69-.96,1.52-1.73,4.18,.51,6.38,1.15,1.13,2.37,1.58,3.55,1.58,.48,0,.95-.08,1.4-.21-.09,1.25,.27,2.69,1.6,3.96,.06,.06,.12,.11,.18,.17,1,.89,2.27,1.33,3.55,1.33,.53,0,1.06-.08,1.58-.23-.03,.75,.1,1.44,.27,2.06,.51,1.84,2.28,3.59,5.07,3.59,.39,0,.81-.04,1.24-.11,1.8-.31,3.58-1.67,4.95-3.02,.28,1.44,1.2,2.67,2.66,3.55,.97,.58,1.9,.81,2.74,.81,2.26,0,3.95-1.6,4.54-2.24,.38-.41,.72-.77,1.06-1.1l20.32-20.21c4.21-4.15,4.8-10.62,1.4-15.38h0Zm-60.65,7.69c.32-2.1,1.17-3.9,2.46-5.21l12.62-12.47c3.08-2.71,7.75-2.65,10.87,.14,7.54,6.76,12.35,11.15,12.86,11.75,.43,.51,2.45,3.14,0,5.26-2.47,2.13-5.36-.92-5.48-1.05l-8.04-7.89-19.93,19.39c-5.46-4.09-5.75-7.43-5.37-9.91h0Zm57.82,6.29l-20.32,20.21c-.36,.36-.73,.74-1.12,1.17-.86,.94-2.63,2.33-4.74,1.06-.97-.58-1.54-1.32-1.72-2.19-.21-1.05,.18-2.01,.35-2.34,.06-.08,.11-.15,.14-.2,.79-.83,6.11-6.01,9.45-9.23l-1.41-1.41c-2.16,2.09-9.26,8.97-9.68,9.49-.05,.07-.11,.15-.17,.25-1.1,1.45-3.77,4.47-5.96,4.84-3.2,.55-3.95-1.79-4.02-2.05-.33-1.18-.49-2.35,1.03-3.81l13.4-12.84-1.41-1.41-13.4,12.84-1.02,.98c-1.28,1.22-3.29,1.28-4.59,.14-.04-.04-.09-.08-.13-.13-1.71-1.62-.78-3.49-.5-3.96,1.5-1.36,13.61-12.86,14.14-13.36l-1.4-1.42c-3.75,3.56-13.62,12.91-14.19,13.41-1.12,.97-2.83,1.75-4.57,.05-1.82-1.79-.26-3.93,.04-4.3l19.28-18.76,6.57,6.45c1.49,1.61,5.12,3.91,8.28,1.19,3.2-2.76,1.65-6.33,.22-8.01-.52-.61-3.9-3.71-7.77-7.2l3.97-3.67c.2-.18,4.99-4.48,10.93,.03l11.09,10.8c.05,.06,.2,.24,.41,.53,2.83,3.98,2.34,9.38-1.18,12.86h0Z"/>
    </g>
    <g>
      <path class="cls-3" d="M214.07,1935.87h-12.54v-1.61h5.78c-.3-.77-.76-1.72-1.38-2.84l1.5-.73c.6,1.03,1.15,2.22,1.64,3.58h4.99v1.61Zm-1.1,4.73h-10.25v-1.62h10.25v1.62Zm0,4.45h-10.25v-1.58h10.25v1.58Zm-.22,13.34h-1.66v-1.92h-6.36v2.45h-1.74v-10.69h9.75v10.16Zm-1.66-3.53v-4.98h-6.36v4.98h6.36Zm18.33-3.03c-.06,2.49-.23,4.1-.5,4.83-.27,.73-.76,1.22-1.46,1.48-.7,.26-2.35,.39-4.92,.39-2.94,0-4.66-.09-5.15-.27-.49-.18-.86-.47-1.11-.89-.25-.42-.38-.85-.38-1.3v-14.08h10.61v-8.03h-11.29v-1.66h12.95v11.39h-10.61v12.19c0,.4,.16,.67,.49,.82,.32,.15,1.61,.23,3.87,.23,2.46,0,3.99-.05,4.57-.15,.58-.1,.94-.64,1.06-1.61,.12-.97,.17-2.35,.14-4.12l1.74,.77Z"/>
      <path class="cls-3" d="M248.5,1936.85l-1.22,1.12c-1.41-1.81-2.8-3.31-4.16-4.48-.95,1.55-2.21,3.28-3.79,5.19h7.34v1.61h-3.24v3.52h4.07v1.56h-4.07v10.08c.71-.12,1.87-.41,3.49-.86v1.56c-2.87,.77-6.16,1.53-9.86,2.28l-.3-1.52c1.91-.34,3.59-.69,5.04-1.05v-10.5h-4.62v-1.56h4.62v-3.52h-2.82v-1.22c-.4,.42-.88,.88-1.46,1.38l-.89-1.28c2.33-2.32,4.4-5.11,6.21-8.36l1.44,.7c-.02,.07-.08,.2-.16,.37-.09,.17-.14,.27-.15,.3,1.83,1.65,3.33,3.2,4.52,4.67Zm-7.92,17.12l-1.44,.39c-.32-2.03-.85-4.19-1.58-6.47l1.52-.55c.72,2.17,1.22,4.38,1.5,6.62Zm6.86-6.23c-.19,1.76-.6,3.61-1.22,5.56l-1.47-.45c.59-1.84,1-3.7,1.22-5.56l1.47,.45Zm7.03,3.97c-1.53,1.65-3.42,3.27-5.65,4.86l-1.02-1.28c1.62-1.07,3.5-2.66,5.64-4.77l1.03,1.19Zm10.22-7.88h-7.47v13.12c0,.5-.2,.95-.59,1.34-.39,.39-1.34,.59-2.84,.59-.41,0-.81-.02-1.22-.06l-.58-1.62,3.05-.03c.16,0,.3-.08,.44-.24,.14-.16,.2-.33,.2-.49v-12.61h-7.22v-1.58h9.55l1-2.91h-9.2c.9-1.97,1.96-4.76,3.18-8.38h1.69l-.8,2.3h8.66c-1.06,3.71-2.01,6.7-2.85,8.98h4.99v1.58Zm-10.77,4.22l-1.19,1.28c-1.03-1.06-2.35-2-3.94-2.81l1.1-1.34c1.29,.71,2.64,1.67,4.04,2.88Zm6.48-13.38h-7.03c-.27,.91-.65,1.94-1.13,3.11h7.22c.44-1.35,.75-2.39,.94-3.11Zm4.41,20.73l-1.16,1.22c-1.24-1.55-2.94-3.15-5.09-4.8l1.08-1.25c2.16,1.67,3.88,3.28,5.17,4.83Zm-.74-8.95c-.98,.85-2.39,1.74-4.23,2.66l-1-1.31c1.62-.75,3.01-1.59,4.18-2.53l1.05,1.19Z"/>
      <path class="cls-3" d="M299.98,1936.15h-16.64c-1.2,2.38-2.66,4.63-4.38,6.75v16.11h-1.74v-13.98c-1.59,1.62-3.11,2.9-4.59,3.83l-.58-1.62c4.01-3.08,7.12-6.78,9.33-11.08h-9.3v-1.66h10.17c.53-.94,1.11-2.16,1.72-3.66l1.68,.55c-.56,1.3-1.06,2.34-1.49,3.11h15.81v1.66Zm0,14.05h-7.95v6.34c0,.54-.14,1.01-.42,1.41-.28,.39-.67,.67-1.15,.84-.49,.16-1.44,.24-2.87,.24-.85,0-1.69-.03-2.54-.09l-.67-1.72c.77,.07,1.63,.11,2.57,.11,1.68,0,2.67-.08,2.96-.23,.29-.15,.44-.37,.44-.65v-6.25h-9.66v-1.62h9.66v-2.44c1.59-1.05,3.28-2.44,5.09-4.16h-12.54v-1.66h14.92v1.66c-2,2-3.93,3.64-5.78,4.92v1.67h7.95v1.62Z"/>
      <path class="cls-3" d="M317.32,1945.43l-1.22,1.06c-1.03-2.01-1.95-3.52-2.75-4.52v16.92h-1.5v-16.5c-1.13,3.3-2.33,5.98-3.62,8.03l-1.03-1.28c1.87-3.06,3.41-6.76,4.62-11.08h-4.07v-1.53h4.1v-5.56h1.5v5.56h2.5v1.53h-2.5v1.77c1.46,1.57,2.79,3.44,3.98,5.59Zm17.19-3.52h-1.57v-3.84h-14.21v3.81h-1.6v-5.31h7.86v-5.64h1.63v5.64h7.89v5.34Zm-.8,17.06h-1.61v-1.52h-12.66v1.52h-1.6v-11.3h15.87v11.3Zm-10.71-24.05l-1.25,.81c-1.25-1.43-2.32-2.48-3.21-3.17l1.19-1c1.25,1,2.34,2.12,3.27,3.36Zm1.99,16.84v-2.62h-5.56v2.62h5.56Zm-.03,4.12v-2.66h-5.53v2.66h5.53Zm6.5-10.23h-11.35v-5.61h11.35v5.61Zm-1.6-1.52v-2.62h-8.17v2.62h8.17Zm2.24,7.62v-2.62h-5.48v2.62h5.48Zm0,4.12v-2.66h-5.48v2.66h5.48Zm1.06-23.55c-.69,1.22-1.67,2.43-2.94,3.64l-1.25-.92c1.26-1.19,2.19-2.35,2.79-3.5l1.41,.78Z"/>
    </g>
    <g>
      <circle class="cls-4" cx="271.08" cy="1804.26" r="80.76"/>
      <path class="cls-1" d="M269.87,1824.61c-.98-.24-1.74-.83-2.49-1.55-1.62-1.49-3.59-2.26-5.73-2.68,0,.18-.06,.36-.12,.54-.23,1.01-.98,1.73-2.03,1.73h-11c-1.16,0-2.03-1.01-2.03-2.26v-21.68c0-1.73,.81-2.62,2.49-2.62h9.78c1.79,0,2.37,.42,2.89,2.2,.58-.54,1.1-1.13,1.74-1.61,1.39-1.13,2.89-2.2,4.28-3.34,2.08-1.73,3.36-3.93,3.76-6.61,.17-1.13,.29-2.32,.23-3.51-.06-1.85,1.68-3.28,3.07-3.57,2.03-.36,3.82,.71,4.57,2.68,1.51,4.23,1.51,8.46,.06,12.75-.06,.18-.12,.42-.23,.71h12.45c2.43,0,4.11,1.19,4.63,3.34,.52,2.2-.64,4.29-2.49,5.12,0,0-.06,0-.12,.06,1.56,2.74,.46,5.06-1.56,6.55,.69,1.07,1.04,2.26,.75,3.57-.29,1.31-1.04,2.26-2.08,2.92,.29,.66,.64,1.31,.75,2.03,.46,2.32-.87,4.47-3.13,5.12-.12,0-.23,.12-.35,.12h-18.12Zm9.03-2.14h8.34c1.27,0,2.14-.95,2.26-2.14,.06-1.19-.75-2.14-1.97-2.38-.17,0-.29,0-.46-.06-.52-.12-.87-.6-.81-1.07,.06-.6,.41-.89,.98-.95,.29,0,.58,0,.81,.06,1.27,.18,2.61-.95,2.72-2.2,.12-1.19-.81-2.26-2.14-2.44-.12,0-.23,0-.41-.06-.52-.18-.75-.54-.69-1.13,0-.54,.41-.89,.93-.89,.35,0,.69,.06,1.04,.12,.23,0,.52,.06,.75,0,1.1-.24,2.03-1.55,1.97-2.62-.12-1.19-1.04-2.03-2.32-2.08-.52,0-1.04,.06-1.56,0-.29-.06-.69-.3-.81-.6-.12-.3-.06-.77,.12-1.01,.23-.24,.64-.42,.98-.42h3.42c1.27,0,2.2-1.07,2.14-2.38,0-1.25-.98-2.14-2.32-2.14h-14.13c-1.16,0-1.62-.71-1.1-1.79,.93-1.97,1.51-4.05,1.68-6.25,.17-2.38-.17-4.71-1.04-6.91-.35-.89-1.22-1.31-2.14-1.19-.87,.18-1.33,.71-1.45,1.73,0,.66-.12,1.37-.12,2.03-.17,3.81-1.74,6.97-4.57,9.41-.58,.48-1.33,.77-1.85,1.25-1.79,1.61-3.53,3.28-5.27,4.88-.17,.18-.29,.48-.29,.77v15.78c0,.42,.12,.6,.58,.71,2.66,.6,5.09,1.67,7.18,3.63,.35,.36,.98,.54,1.45,.54h8.16l-.06-.18Zm-30.34-2.02h10.88v-22.27h-10.88v22.27Z"/>
    </g>
    <g>
      <path class="cls-2" d="M29.17,1180.54c-.21,.46-.67,.84-1.64,.8-1.18,3.19-2.52,6.13-4.03,8.86l1.85,.71c-.17,.34-.55,.63-1.3,.71v24.95c-.04,.25-1.43,1.05-2.69,1.05h-.63v-23.02c-1.6,2.18-3.28,4.16-5.08,5.84l-.63-.42c3.57-5.04,7.18-13.06,9.16-21.05l5,1.55Zm-3.61,34.74c2.73-2.77,6.05-7.52,8.28-12.27l4.49,2.23c-.25,.46-.84,.76-1.72,.59-2.98,4.2-6.89,7.73-10.59,9.96l-.46-.5Zm25.2-17.9s2.48,1.89,3.99,3.32c-.13,.46-.5,.67-1.13,.67h-11.68v15.16c-.04,.25-1.13,1.13-2.81,1.13h-.55v-16.3h-12.1l-.34-1.22h12.43v-6.34h-4.96v1.72c0,.25-1.05,.92-2.69,.92h-.55v-16.13l3.7,1.55h12.85l1.64-1.93,3.4,2.65c-.29,.34-.67,.59-1.6,.71v11.76c0,.17-1.18,.8-2.77,.8h-.55v-2.06h-5.12v6.34h6.64l2.18-2.77Zm-17.14-4.79h13.44v-9.49h-13.44v9.49Zm10.04,11.26c13.44,6.05,11.43,13.53,7.69,11.13-1.43-3.28-5.38-7.86-8.19-10.8l.5-.34Z"/>
      <path class="cls-2" d="M99.9,1182.73c-.29,.29-.97,.63-1.81,.8v32.47c-.04,.29-1.64,1.18-2.81,1.18h-.46v-2.52h-27.18v1.64c0,.42-1.22,1.3-2.69,1.3h-.59v-37.47l3.57,1.64h26.46l1.72-2.02,3.78,2.98Zm-5.08,30.71v-30.5h-27.18v30.5h27.18Zm-5.29-25.37s2.23,1.85,3.65,3.15c-.13,.46-.5,.67-1.13,.67h-9.33v6.22h3.07l1.6-1.72,3.44,2.65c-.25,.29-.84,.55-1.55,.71v9.83c-.04,.25-1.64,.92-2.6,.92h-.5v-2.44h-10.08v1.85c0,.29-1.3,.97-2.6,.97h-.46v-14.2l3.28,1.43h3.19v-6.22h-9.28l-.34-1.18h9.62v-6.26l4.66,.46c-.08,.55-.46,.97-1.43,1.09v4.71h4.79l2.02-2.65Zm-13.44,11.26v7.52h10.08v-7.52h-10.08Z"/>
      <path class="cls-2" d="M146.98,1182.73c-.29,.29-.92,.67-1.76,.84v29.53c0,2.56-.55,4.03-4.79,4.45-.13-1.01-.34-1.85-.88-2.35-.63-.55-1.64-.92-3.49-1.22v-.63s4.07,.29,4.96,.29c.76,0,.97-.29,.97-.92v-10.96h-7.52c-.59,5.92-2.44,11.68-8.44,15.79l-.59-.46c3.28-3.4,4.79-7.44,5.5-11.85-.17,.29-.5,.42-.97,.42h-21.89l-.34-1.26h4.58v-17.56h-3.49l-.29-1.22h3.78v-6.13l4.58,.46c-.13,.55-.46,.92-1.43,1.09v4.58h6.93v-6.17l4.7,.5c-.13,.59-.5,.97-1.51,1.13v4.54h.42l1.64-2.35s1.89,1.72,2.9,2.9c-.08,.46-.46,.67-1.01,.67h-3.95v17.56h.46l1.76-2.52s1.93,1.76,3.19,3.02c.42-2.81,.5-5.75,.5-8.82v-15.88l3.74,1.55h6.3l1.6-1.97,3.82,2.94Zm-39.19,34.45c2.44-2.27,4.96-6.18,6.43-10.5l4.54,1.93c-.21,.42-.76,.76-1.64,.63-2.27,3.86-5.46,6.76-8.78,8.44l-.55-.5Zm7.69-30.33v4.71h6.93v-4.71h-6.93Zm0,10.96h6.93v-5.04h-6.93v5.04Zm0,6.59h6.93v-5.38h-6.93v5.38Zm5.46,2.52c9.2,2.69,6.55,9.07,3.44,6.8-.42-2.23-2.31-4.91-3.91-6.47l.46-.34Zm21.05-6.38v-8.4h-7.31v3.91c0,1.47-.04,2.98-.13,4.5h7.44Zm-7.31-17.6v8.02h7.31v-8.02h-7.31Z"/>
      <path class="cls-2" d="M191.63,1190.16c-.25,.34-.97,.71-1.81,.84v22.14c0,2.6-.59,4.16-5.25,4.62-.21-1.09-.46-1.93-1.09-2.44-.76-.59-1.93-1.09-4.12-1.34v-.63s4.87,.34,6.05,.34c.8,0,1.05-.29,1.05-.97v-22.35h-11.38c1.89,5.75,5.21,10.54,11.05,13.23l-.13,.46c-1.22,.34-2.23,1.3-2.6,2.44-4.83-3.11-7.65-7.48-9.33-13.28-1.68,4.87-4.92,9.91-11.85,13.48l-.55-.54c6.09-4.66,8.86-10.8,9.83-15.79h-10.59v26.04c0,.38-1.34,1.22-2.81,1.22h-.55v-30.12l3.7,1.64h11.85c-.42-2.14-.71-4.41-.97-6.89h-6.72l-.38-1.22h6.18l1.43-2.1,3.82,2.81c-.5,.54-1.6,.88-3.11,.97,.29,2.23,.76,4.37,1.34,6.43h11.34l1.68-2.02,3.91,3.02Z"/>
    </g>
    <g>
      <circle class="cls-4" cx="103.32" cy="1052.26" r="80.76"/>
      <path class="cls-1" d="M108.1,1048.29c.84,.79,1.62,1.65,2.47,2.44,.13,.13,.45,.13,.71,.07,6.29-.79,11.74,3.03,13.04,9.23,.13,.73,.19,1.52,.26,2.31,0,1.12-.52,1.98-1.56,2.44-1.04,.46-2.01,.26-2.79-.53-.91-.92-1.82-1.85-2.72-2.77-.26-.2-.65-.33-.97-.33-1.17,.13-2.4,.33-3.57,.46-.45,0-.65,.2-.71,.66-.13,1.25-.39,2.51-.45,3.69,0,.33,.13,.73,.32,.99,.78,.86,1.69,1.71,2.47,2.57,.91,.99,1.17,1.98,.65,3.1-.45,1.06-1.43,1.58-2.72,1.58-6.81-.26-12.07-6.66-10.96-13.52,.13-.79-.06-.99-.84-.73-.45,.13-.91,.33-1.36,.46-1.1,.33-1.82,.99-2.21,2.11-.32,.73-.71,1.38-1.23,1.98-2.47,2.57-4.93,5.08-7.46,7.58-2.72,2.77-6.94,2.84-9.54,.26-2.47-2.44-2.79-6.46-.39-9.1,2.72-2.97,5.58-5.74,8.43-8.57,.39-.4,.91-.73,1.43-.86,1.3-.46,2.08-1.32,2.34-2.64,.06-.4,.26-.73,.39-1.19-1.1,0-2.21,.07-3.24,0-5.51-.59-9.93-5.6-10.06-11.28,0-1.25,.45-2.11,1.56-2.64,1.04-.53,2.08-.26,3.05,.73,.84,.86,1.62,1.71,2.53,2.51,.26,.2,.65,.4,.97,.33,1.36-.13,2.72-.4,4.22-.59,.19-1.52,.45-3.1,.65-4.68,0-.2-.19-.46-.39-.59-.84-.86-1.69-1.71-2.53-2.64-.84-.86-1.1-1.85-.65-2.97,.39-.99,1.43-1.65,2.59-1.65,6.68,0,12.2,6.59,11.16,13.25-.06,.59,0,.99,.45,1.32,.45,.4,.84,.92,1.3,1.45,1.1-1.12,2.21-2.18,3.18-3.23,.32-.33,.32-.92,.39-1.45,.71-3.82,.39-3.3,3.7-5.14,1.56-.86,3.05-1.71,4.61-2.57,1.36-.73,2.4-.59,3.5,.46,.71,.66,1.36,1.38,2.01,2.04,.91,.99,1.1,2.04,.45,3.23-1.23,2.31-2.47,4.55-3.7,6.86-.39,.73-1.04,1.19-1.82,1.38-.19,0-.45,.13-.65,.13-2.85,0-4.41,1.98-6.1,3.96l-.19,.07Zm-27.57-9.63s-.13,.07-.13,.13v.79c.71,5.41,5.64,8.97,10.9,7.78,.71-.13,1.3-.07,1.88,.46,3.5,3.63,7.07,7.19,10.64,10.81,.52,.53,.65,1.05,.52,1.78-.58,2.7-.13,5.21,1.49,7.45,1.69,2.37,4.09,3.63,7.2,3.82-1.17-1.19-2.21-2.31-3.24-3.36-.52-.46-.71-1.06-.58-1.71,.32-1.98,.58-3.96,.84-5.93,.13-.86,.58-1.25,1.36-1.38,2.01-.26,3.96-.59,5.97-.79,.45,0,1.04,.2,1.43,.46,1.04,.92,1.95,1.91,2.92,2.9,.13,.13,.26,.2,.45,.4v-.59c-.39-5.41-5.58-9.3-10.77-8.18-.97,.2-1.62,0-2.27-.73-3.37-3.49-6.81-6.99-10.25-10.42-.58-.59-.78-1.19-.58-2.04,.84-3.96-.91-7.91-4.35-9.96-1.23-.73-2.59-1.19-4.15-1.06,.97,1.12,2.01,2.18,3.11,3.23,.45,.46,.65,.99,.58,1.65-.32,1.98-.58,3.96-.84,5.93-.13,.92-.45,1.25-1.43,1.38-1.88,.26-3.76,.53-5.58,.79-.84,.13-1.43-.07-1.95-.66-.97-1.05-2.01-2.04-2.98-3.1l-.19,.13Zm12.72,13.12s-.13,.2-.13,.33c-.58,2.04-1.82,3.43-3.76,4.15-.45,.13-.84,.53-1.17,.86-1.75,1.78-3.5,3.56-5.25,5.27-.84,.86-1.69,1.65-2.47,2.51-1.04,1.19-1.36,2.64-.78,4.15,.52,1.45,1.62,2.31,3.11,2.51,1.49,.2,2.79-.4,3.89-1.45,2.34-2.37,4.67-4.75,6.94-7.12,.45-.53,.84-1.12,1.17-1.78,.65-1.38,1.62-2.44,3.05-3.03,.39-.13,.84-.33,1.23-.46-2.01-1.98-3.89-3.96-5.9-6l.06,.07Zm11.29-7.45c.65,.66,1.23,1.25,1.88,1.98,.26-.33,.58-.66,.91-1.06,3.44-3.43,1.88-2.57,6.49-3.56,.13,0,.19,0,.26-.07,.19-.13,.39-.2,.45-.33,1.17-2.11,2.34-4.15,3.44-6.26,.06-.13,0-.46,0-.59-.65-.73-1.3-1.38-1.95-2.11-1.49,.86-2.85,1.78-4.35,2.37-2.08,.86-3.05,2.24-3.11,4.42,0,.99-.58,1.85-1.3,2.51-.97,.86-1.82,1.78-2.72,2.64v.07Z"/>
    </g>
    <g>
      <path class="cls-2" d="M367.17,1180.54c-.21,.46-.67,.84-1.64,.8-1.18,3.19-2.52,6.13-4.03,8.86l1.85,.71c-.17,.34-.55,.63-1.3,.71v24.95c-.04,.25-1.43,1.05-2.69,1.05h-.63v-23.02c-1.6,2.18-3.28,4.16-5.08,5.84l-.63-.42c3.57-5.04,7.18-13.06,9.16-21.05l5,1.55Zm-3.61,34.74c2.73-2.77,6.05-7.52,8.28-12.27l4.49,2.23c-.25,.46-.84,.76-1.72,.59-2.98,4.2-6.89,7.73-10.59,9.96l-.46-.5Zm25.2-17.9s2.48,1.89,3.99,3.32c-.13,.46-.5,.67-1.13,.67h-11.68v15.16c-.04,.25-1.13,1.13-2.81,1.13h-.55v-16.3h-12.1l-.34-1.22h12.43v-6.34h-4.96v1.72c0,.25-1.05,.92-2.69,.92h-.55v-16.13l3.7,1.55h12.85l1.64-1.93,3.4,2.65c-.29,.34-.67,.59-1.6,.71v11.76c0,.17-1.18,.8-2.77,.8h-.55v-2.06h-5.12v6.34h6.64l2.18-2.77Zm-17.14-4.79h13.44v-9.49h-13.44v9.49Zm10.04,11.26c13.44,6.05,11.43,13.53,7.69,11.13-1.43-3.28-5.38-7.86-8.19-10.8l.5-.34Z"/>
      <path class="cls-2" d="M437.9,1182.73c-.29,.29-.97,.63-1.81,.8v32.47c-.04,.29-1.64,1.18-2.81,1.18h-.46v-2.52h-27.18v1.64c0,.42-1.22,1.3-2.69,1.3h-.59v-37.47l3.57,1.64h26.46l1.72-2.02,3.78,2.98Zm-5.08,30.71v-30.5h-27.18v30.5h27.18Zm-5.29-25.37s2.23,1.85,3.65,3.15c-.13,.46-.5,.67-1.13,.67h-9.33v6.22h3.07l1.6-1.72,3.44,2.65c-.25,.29-.84,.55-1.55,.71v9.83c-.04,.25-1.64,.92-2.6,.92h-.5v-2.44h-10.08v1.85c0,.29-1.3,.97-2.6,.97h-.46v-14.2l3.28,1.43h3.19v-6.22h-9.28l-.34-1.18h9.62v-6.26l4.66,.46c-.08,.55-.46,.97-1.43,1.09v4.71h4.79l2.02-2.65Zm-13.44,11.26v7.52h10.08v-7.52h-10.08Z"/>
      <path class="cls-2" d="M484.98,1182.73c-.29,.29-.92,.67-1.76,.84v29.53c0,2.56-.55,4.03-4.79,4.45-.13-1.01-.34-1.85-.88-2.35-.63-.55-1.64-.92-3.49-1.22v-.63s4.07,.29,4.96,.29c.76,0,.97-.29,.97-.92v-10.96h-7.52c-.59,5.92-2.44,11.68-8.44,15.79l-.59-.46c3.28-3.4,4.79-7.44,5.5-11.85-.17,.29-.5,.42-.97,.42h-21.89l-.34-1.26h4.58v-17.56h-3.49l-.29-1.22h3.78v-6.13l4.58,.46c-.13,.55-.46,.92-1.43,1.09v4.58h6.93v-6.17l4.7,.5c-.13,.59-.5,.97-1.51,1.13v4.54h.42l1.64-2.35s1.89,1.72,2.9,2.9c-.08,.46-.46,.67-1.01,.67h-3.95v17.56h.46l1.76-2.52s1.93,1.76,3.19,3.02c.42-2.81,.5-5.75,.5-8.82v-15.88l3.74,1.55h6.3l1.6-1.97,3.82,2.94Zm-39.19,34.45c2.44-2.27,4.96-6.18,6.43-10.5l4.54,1.93c-.21,.42-.76,.76-1.64,.63-2.27,3.86-5.46,6.76-8.78,8.44l-.55-.5Zm7.69-30.33v4.71h6.93v-4.71h-6.93Zm0,10.96h6.93v-5.04h-6.93v5.04Zm0,6.59h6.93v-5.38h-6.93v5.38Zm5.46,2.52c9.2,2.69,6.55,9.07,3.44,6.8-.42-2.23-2.31-4.91-3.91-6.47l.46-.34Zm21.05-6.38v-8.4h-7.31v3.91c0,1.47-.04,2.98-.13,4.5h7.44Zm-7.31-17.6v8.02h7.31v-8.02h-7.31Z"/>
      <path class="cls-2" d="M511.31,1184.32l3.57,3.32c-.29,.38-.71,.5-1.68,.59-2.06,12.22-6.39,23.44-20.5,29.45l-.42-.59c11.05-6.34,15.67-17.27,17.35-29.45h-7.18c-.88,2.23-1.89,4.28-2.98,6.17,9.87,2.9,7.23,9.7,3.82,7.27-.5-2.18-2.44-4.66-4.33-6.43-1.76,2.86-3.82,5.25-6.13,7.18l-.59-.38c4.03-5.33,7.39-13.48,8.74-22.43l5.12,1.18c-.17,.55-.63,.97-1.64,.92-.46,1.85-1.01,3.61-1.6,5.29h6.47l1.97-2.1Zm9.45,8.15c13.44,4.2,11.47,12.35,7.48,9.91-1.22-2.94-4.58-6.43-7.48-8.91v23.15c0,.42-1.43,1.18-2.69,1.18h-.71v-38.44l4.92,.54c-.08,.59-.42,1.01-1.51,1.18v11.38Z"/>
    </g>
    <g>
      <circle class="cls-4" cx="441.32" cy="1052.26" r="80.76"/>
      <path class="cls-1" d="M440.19,1022.96c1.34,.23,2.73,.42,4.07,.74,3.29,.83,6.06,2.59,8.42,5,2.54,2.59,4.21,5.69,4.95,9.25,.28,1.3,.37,2.59,.51,3.89,.65,.23,1.39,.37,2.04,.69,2.04,.97,3.05,2.73,3.1,4.9,.09,3.89,.09,7.77-.05,11.71-.09,2.59-1.9,4.49-4.49,5-.51,.09-.69,.28-.74,.83-.09,1.85-.42,3.61-1.2,5.27-1.2,2.54-3.28,4.07-5.97,4.67-1.8,.42-3.66,.6-5.6,.93v.51c-.05,1.16-.93,2.04-2.08,2.04h-6.66c-1.2,0-2.04-.83-2.08-2.04v-3.56c0-1.11,.79-1.94,1.9-1.99,2.31-.05,4.67-.05,6.99,0,1.06,0,1.76,.79,1.9,1.8,0,.28,0,.56,.05,.93,1.67-.05,3.28-.19,4.86-.6,1.16-.32,2.22-.74,3.15-1.53,1.57-1.34,2.22-3.1,2.5-5.09,.09-.65,.14-1.3,.19-1.99h-1.85c-.83,0-1.2-.37-1.25-1.16v-20.17c.05-.74,.42-1.11,1.16-1.16h1.9c-.19-5.97-2.59-10.78-7.59-14.02-6.06-3.93-12.4-3.93-18.51-.05-5.04,3.19-7.45,8.05-7.68,14.07h1.71c.97,0,1.34,.37,1.34,1.3v19.94c0,.88-.37,1.3-1.25,1.25-1.57-.05-3.19,0-4.72-.28-2.41-.42-4.07-2.36-4.35-4.81-.05-.56-.09-1.16-.09-1.71v-9.16c0-.97,.19-2.04,.51-2.96,.69-1.94,2.22-2.96,4.16-3.38,.19,0,.37-.09,.42-.19,.32-1.71,.51-3.47,.93-5.14,.83-3.28,2.59-6.06,5.04-8.42,2.54-2.45,5.55-4.07,9.02-4.86,1.02-.23,2.04-.32,3.05-.46h2.31Zm-17.03,39.37v-18.46c-1.11,.05-2.17,0-3.19,.19-1.71,.28-2.78,1.43-2.96,3.19-.09,.93-.09,1.85-.09,2.73v8c0,2.22,.93,3.61,2.78,4.03,1.11,.23,2.27,.19,3.47,.28v.05Zm31.88-18.32v18.23c.83,0,1.67,.05,2.45,0,2.36-.19,3.61-1.57,3.66-3.93,.05-3.05,.05-6.15,.09-9.21v-1.34c-.19-2.27-1.43-3.56-3.7-3.75-.83-.05-1.67,0-2.54,0h.05Zm-18.51,32.29h6.57v-3.38h-6.57v3.38Z"/>
    </g>
  </g>
</svg>