<svg width="22" height="21" viewBox="0 0 22 21" fill="none" xmlns="http://www.w3.org/2000/svg">
<path d="M10.8767 0C14.3422 0.108407 17.2508 1.06858 19.6024 3.40708C21.3042 5.11062 22.1397 7.18584 21.985 9.60177C21.8767 11.2588 21.165 12.6991 20.113 13.969C18.3802 16.0752 16.2142 17.6858 13.9245 19.1416C13.1664 19.6217 12.3928 20.1173 11.6193 20.5819C11.3099 20.7677 10.985 20.9226 10.6446 21C10.1186 21.1239 9.88652 20.8606 9.96387 20.3341C10.0258 19.9159 10.1031 19.5133 10.165 19.1106C10.2888 18.4447 10.0722 18.0885 9.42238 17.9336C8.86542 17.7942 8.29299 17.7013 7.75149 17.5619C4.85839 16.8341 2.50677 15.3473 0.975124 12.7146C-0.54105 10.0973 -0.247098 6.67478 1.62491 4.28982C3.5124 1.90487 5.98778 0.665929 8.9273 0.216814C9.65445 0.108407 10.3816 0.0619469 10.8767 0ZM13.089 9.72566C12.9034 9.50885 12.7951 9.41593 12.7023 9.29204C12.0834 8.45575 11.4955 7.61947 10.8457 6.79867C10.722 6.62832 10.3971 6.48894 10.2114 6.5354C10.0567 6.56637 9.87104 6.89159 9.87104 7.09292C9.8401 8.45575 9.85557 9.81858 9.87104 11.1969C9.87104 11.5376 10.0258 11.7854 10.3816 11.8319C10.6601 11.8783 10.9076 11.5686 10.9076 11.1659C10.9076 10.469 10.9076 9.78761 10.9076 9.09071C10.9076 8.95133 10.9231 8.82743 10.9386 8.56416C11.1087 8.76549 11.2016 8.85841 11.2789 8.96681C11.8978 9.8031 12.5166 10.6549 13.1509 11.4912C13.2747 11.646 13.5687 11.8319 13.6924 11.7854C13.8935 11.708 14.0173 11.4447 14.1411 11.2279C14.203 11.135 14.1566 10.9801 14.1566 10.8407C14.1566 9.72566 14.1566 8.59513 14.1566 7.48009C14.1566 7.32522 14.1566 7.17035 14.1256 7.01549C14.0792 6.70575 13.9709 6.44248 13.5841 6.48894C13.2283 6.5354 13.12 6.78319 13.12 7.10841C13.12 7.78982 13.12 8.45575 13.12 9.13717C13.12 9.29204 13.1045 9.43142 13.089 9.72566ZM15.0229 9.13717C15.0229 9.8031 15.0229 10.4535 15.0229 11.1195C15.0229 11.5221 15.1777 11.8164 15.5954 11.8319C16.2606 11.8628 16.9414 11.8628 17.6221 11.8319C17.9315 11.8319 18.2409 11.6925 18.21 11.2898C18.1791 10.9181 17.8851 10.8097 17.5602 10.8097C17.1734 10.8097 16.7867 10.8097 16.3999 10.8097C16.1678 10.8097 16.0595 10.7168 16.075 10.469C16.075 10.3606 16.075 10.2367 16.075 10.1283C16.0286 9.74115 16.1833 9.63274 16.5701 9.64823C16.9723 9.6792 17.3746 9.63274 17.7613 9.60177C18.0398 9.58628 18.2255 9.43142 18.2255 9.13717C18.2255 8.82743 18.0398 8.65708 17.7304 8.64159C17.4364 8.62611 17.127 8.64159 16.8331 8.64159C16.044 8.64159 16.0595 8.64159 16.075 7.86726C16.075 7.57301 16.1678 7.44911 16.4772 7.44911C16.8331 7.44911 17.1889 7.44911 17.5602 7.44911C17.9161 7.44911 18.1945 7.38717 18.2409 6.96903C18.2719 6.64381 18.0243 6.45796 17.5447 6.45796C16.9568 6.45796 16.3689 6.45796 15.781 6.45796C15.2086 6.45796 15.0694 6.59735 15.0539 7.17035C15.0539 7.8208 15.0539 8.45575 15.0539 9.10619L15.0229 9.13717ZM4.06936 9.13717C4.06936 9.83407 4.06936 10.5155 4.06936 11.2124C4.06936 11.6305 4.28595 11.8319 4.67273 11.8473C5.33799 11.8628 5.98778 11.8628 6.65304 11.8473C6.96247 11.8473 7.21 11.708 7.19453 11.3208C7.19453 10.9491 6.94699 10.8252 6.6221 10.8097C6.26626 10.8097 5.89495 10.7788 5.53912 10.8097C5.1214 10.8407 5.0131 10.6704 5.02857 10.2832C5.04404 9.24557 5.02857 8.20796 5.02857 7.18584C5.02857 6.69027 4.87386 6.48894 4.53349 6.48894C4.19313 6.48894 4.05389 6.69027 4.05389 7.20133C4.05389 7.85177 4.05389 8.50221 4.05389 9.13717H4.06936ZM8.91183 9.13717C8.91183 8.47124 8.91183 7.8208 8.91183 7.15487C8.91183 6.72124 8.72618 6.48894 8.40128 6.50442C7.98356 6.50442 7.87526 6.81416 7.87526 7.15487C7.87526 8.47124 7.87526 9.8031 7.87526 11.1195C7.87526 11.5531 8.10733 11.8473 8.40128 11.8473C8.69524 11.8473 8.91183 11.5531 8.91183 11.1195C8.91183 10.4535 8.91183 9.8031 8.91183 9.13717Z" fill="#4D4D4D"/>
</svg>
